<svg width="102" height="120" viewBox="0 0 102 120" fill="none" xmlns="http://www.w3.org/2000/svg">
<path d="M100.075 23.2062C99.6261 22.6931 99.0757 22.2782 98.4586 21.9875C97.8415 21.6969 97.1711 21.5367 96.4893 21.517C85.897 21.2401 72.4939 9.91393 63.6324 5.46932C58.1585 2.73239 54.5447 0.927779 51.8309 0.452394C51.2798 0.372098 50.7199 0.373654 50.1693 0.457009C47.4555 0.932394 43.8416 2.73701 38.3724 5.47393C29.5109 9.91393 16.1078 21.2401 5.51547 21.517C4.83318 21.5377 4.16241 21.6983 3.54474 21.9889C2.92707 22.2795 2.37566 22.6938 1.9247 23.2062C0.989958 24.2638 0.50768 25.646 0.581622 27.0555C2.85701 73.3155 19.4493 101.945 48.5632 118.583C49.3201 119.012 50.1601 119.234 50.9955 119.234C51.8308 119.234 52.6709 119.012 53.4324 118.583C82.5462 101.945 99.1339 73.3155 101.414 27.0555C101.492 25.6462 101.011 24.263 100.075 23.2062ZM76.9247 41.4001L52.357 77.6539C51.4755 78.9555 50.0909 79.8186 48.7201 79.8186C47.3447 79.8186 45.817 79.0662 44.8524 78.1016L27.5355 60.7801C26.9701 60.2126 26.6526 59.4442 26.6526 58.6432C26.6526 57.8421 26.9701 57.0737 27.5355 56.5062L31.8139 52.2185C32.3826 51.6554 33.1505 51.3395 33.9509 51.3395C34.7512 51.3395 35.5191 51.6554 36.0878 52.2185L47.3493 63.4801L66.9139 34.6016C67.3666 33.9408 68.0624 33.4859 68.8493 33.3363C69.6362 33.1867 70.4503 33.3545 71.1139 33.8032L76.1216 37.2001C76.7832 37.652 77.239 38.3475 77.3895 39.1344C77.54 39.9214 77.3729 40.7359 76.9247 41.4001Z" fill="#00BB62"/>
</svg>
