<?xml version="1.0" encoding="utf-8"?><svg xmlns="http://www.w3.org/2000/svg" xmlns:xlink="http://www.w3.org/1999/xlink"><symbol viewBox="0 0 24 18" id="ad" xmlns="http://www.w3.org/2000/svg"><path d="M7.384 9.75h1.732L8.25 7.255 7.384 9.75zM16.5 9c-.62 0-1.125.505-1.125 1.125s.505 1.125 1.125 1.125 1.125-.505 1.125-1.125S17.12 9 16.5 9zm5.25-9H2.25A2.25 2.25 0 000 2.25v13.5A2.25 2.25 0 002.25 18h19.5A2.25 2.25 0 0024 15.75V2.25A2.25 2.25 0 0021.75 0zM11.746 13.5h-.794a.751.751 0 01-.709-.504L9.898 12H6.603l-.346.996a.75.75 0 01-.709.504h-.794a.75.75 0 01-.709-.996l2.518-7.248A1.125 1.125 0 017.625 4.5h1.25a1.125 1.125 0 011.063.756l2.516 7.248a.75.75 0 01-.708.996zm8.129-.75a.75.75 0 01-.75.75h-.75a.739.739 0 01-.562-.266 3.379 3.379 0 01-4.688-3.109A3.379 3.379 0 0116.5 6.75c.397 0 .772.081 1.125.207V5.25a.75.75 0 01.75-.75h.75a.75.75 0 01.75.75v7.5z"/></symbol><symbol viewBox="0 0 18 20" id="add-person" xmlns="http://www.w3.org/2000/svg"><path d="M12.898 13.056a4.018 4.018 0 011.908-.478h.002c.07 0 .103-.084.051-.131a8.71 8.71 0 00-2.43-1.542c-.01-.005-.019-.007-.028-.012a5.814 5.814 0 002.402-4.713 5.806 5.806 0 00-5.8-5.813c-3.206 0-5.8 2.603-5.8 5.813a5.81 5.81 0 002.405 4.713c-.01.005-.02.007-.028.012a8.733 8.733 0 00-2.797 1.889 8.751 8.751 0 00-1.884 2.8 8.757 8.757 0 00-.689 3.237.187.187 0 00.187.192h1.404a.189.189 0 00.188-.182 6.993 6.993 0 012.053-4.789 6.958 6.958 0 014.962-2.06c1.329 0 2.604.368 3.703 1.057a.189.189 0 00.19.007zm-3.893-2.845A3.998 3.998 0 016.159 9.03a4.013 4.013 0 01-1.178-2.85c0-1.076.42-2.089 1.178-2.85a3.99 3.99 0 012.846-1.182c1.075 0 2.083.42 2.845 1.182a4.015 4.015 0 011.179 2.85c0 1.075-.42 2.088-1.179 2.85a3.998 3.998 0 01-2.845 1.18zm8.62 5.578h-1.969V13.82a.188.188 0 00-.187-.187h-1.313a.188.188 0 00-.187.187v1.97H12a.188.188 0 00-.187.187v1.312c0 .103.084.188.187.188h1.969v1.968c0 .103.084.188.187.188h1.313a.188.188 0 00.187-.188v-1.968h1.97a.188.188 0 00.187-.188v-1.312a.188.188 0 00-.188-.188z"/></symbol><symbol viewBox="0 0 24 24" id="archive" xmlns="http://www.w3.org/2000/svg"><path d="M6 12h6v3H6v-3z"/><path d="M24 3h-1.5V0h-15v3h-3v1.875L3.6 6H1.5v2.625L0 10.5V24h18l6-7.5V3zM3 7.5h12v3H3v-3zm13.5 15h-15V12h15v10.5zm1.5-12h-1.5V6H6V4.5h12v6zm3-3.75l-1.5 1.875V3H9V1.5h12v5.25z"/></symbol><symbol viewBox="0 0 19 16" id="arrow-left" xmlns="http://www.w3.org/2000/svg"><path d="M19 7H4.414l5.293-5.293L8.293.293.586 8l7.707 7.707 1.414-1.414L4.414 9H19V7z"/></symbol><symbol viewBox="0 0 19 16" id="arrow-right" xmlns="http://www.w3.org/2000/svg"><path d="M0 7h14.586L9.293 1.707 10.707.293 18.414 8l-7.707 7.707-1.414-1.414L14.586 9H0V7z"/></symbol><symbol viewBox="0 0 18 18" id="article" xmlns="http://www.w3.org/2000/svg"><path d="M16 0H2C.9 0 0 .9 0 2v14c0 1.1.9 2 2 2h14c1.1 0 2-.9 2-2V2c0-1.1-.9-2-2-2zm-5 14H4v-2h7v2zm3-4H4V8h10v2zm0-4H4V4h10v2z"/></symbol><symbol viewBox="0 0 11 22" id="attach" xmlns="http://www.w3.org/2000/svg"><path d="M9.5 5v11.5c0 2.21-1.79 4-4 4s-4-1.79-4-4V4a2.5 2.5 0 115 0v10.5c0 .55-.45 1-1 1s-1-.45-1-1V5H3v9.5a2.5 2.5 0 005 0V4c0-2.21-1.79-4-4-4S0 1.79 0 4v12.5C0 19.54 2.46 22 5.5 22s5.5-2.46 5.5-5.5V5H9.5z"/></symbol><symbol viewBox="0 0 12 13" id="b-coin" xmlns="http://www.w3.org/2000/svg"><path d="M6.479.4c1.65 0 2.877.315 3.68.945.805.63 1.207 1.521 1.207 2.673a2.76 2.76 0 01-.46 1.575c-.3.456-.704.816-1.214 1.08a2.879 2.879 0 011.377 1.062c.366.498.549 1.047.549 1.647 0 1.152-.396 2.043-1.188 2.673-.792.63-2.001.945-3.627.945H.827V.4h5.652zM4.247 8.059v2.16l2.367.009c.99 0 1.485-.363 1.485-1.089 0-.72-.495-1.08-1.485-1.08H4.247zm0-4.869v2.097h2.15c.949 0 1.423-.351 1.423-1.053 0-.696-.471-1.044-1.413-1.044h-2.16z"/></symbol><symbol viewBox="0 0 24 24" id="badge" xmlns="http://www.w3.org/2000/svg"><path d="M23 11.5c.482.482.722 1.046.722 1.694 0 .649-.24 1.195-.722 1.64l-8.278 8.333a2.418 2.418 0 01-1.694.666c-.648 0-1.195-.222-1.64-.666L.723 12.5C.241 12.018 0 11.463 0 10.833V2.5C0 1.87.231 1.324.694.861A2.305 2.305 0 012.39.167h8.278c.666 0 1.222.222 1.666.666L23 11.5zM4.139 6.056c.5 0 .926-.167 1.278-.5a1.65 1.65 0 00.527-1.25c0-.5-.175-.926-.527-1.278A1.74 1.74 0 004.139 2.5c-.5 0-.917.176-1.25.528a1.79 1.79 0 00-.5 1.278c0 .5.167.916.5 1.25.333.333.75.5 1.25.5z"/></symbol><symbol viewBox="0 0 16 20" id="bell" xmlns="http://www.w3.org/2000/svg"><path d="M8 20c1.1 0 2-.9 2-2H6a2 2 0 002 2zm6-6V9c0-3.07-1.64-5.64-4.5-6.32V2C9.5 1.17 8.83.5 8 .5S6.5 1.17 6.5 2v.68C3.63 3.36 2 5.92 2 9v5l-2 2v1h16v-1l-2-2z"/></symbol><symbol viewBox="0 0 12 12" id="birthday" xmlns="http://www.w3.org/2000/svg"><path d="M11.625 12H.375a.36.36 0 01-.264-.111.36.36 0 01-.111-.264.36.36 0 01.111-.264.36.36 0 01.264-.111H.75v-4.5c0-.414.146-.768.44-1.06a1.44 1.44 0 011.06-.44h7.5c.414 0 .768.146 1.06.44.293.292.44.646.44 1.06v4.5h.375a.36.36 0 01.264.111.36.36 0 01.111.264.36.36 0 01-.111.264.36.36 0 01-.264.111zm-2.25-9.75a.36.36 0 01.264.111.36.36 0 01.111.264V4.5h-1.5V2.625a.36.36 0 01.111-.264.36.36 0 01.264-.111h.75zm-.246-.375c.164-.148.246-.305.246-.469a.51.51 0 00-.088-.228 2.547 2.547 0 00-.17-.252L9.035.82c-.055.29-.172.485-.351.586-.055.047-.073.115-.053.205.02.09.06.178.123.264-.07 0-.188-.07-.352-.21a.422.422 0 01-.152-.317c0-.172.086-.328.258-.47a.533.533 0 00.152-.32 1.102 1.102 0 000-.393L8.625 0c.406.156.707.367.902.633.157.219.23.437.223.656-.008.242-.027.379-.059.41a.722.722 0 01-.263.123 1.12 1.12 0 01-.3.053zm-2.754.375a.36.36 0 01.264.111.36.36 0 01.111.264V4.5h-1.5V2.625a.36.36 0 01.111-.264.36.36 0 01.264-.111h.75zm-.246-.375c.164-.148.246-.305.246-.469a.51.51 0 00-.088-.228 2.547 2.547 0 00-.17-.252L6.035.82c-.055.29-.172.485-.351.586-.055.047-.073.115-.053.205.02.09.06.178.123.264-.07 0-.188-.07-.352-.21a.422.422 0 01-.152-.317c0-.172.086-.328.258-.47a.533.533 0 00.152-.32 1.102 1.102 0 000-.393L5.625 0c.406.156.707.367.902.633.157.219.23.437.223.656-.008.242-.027.379-.059.41a.722.722 0 01-.263.123 1.12 1.12 0 01-.3.053zm-2.754.375a.36.36 0 01.264.111.36.36 0 01.111.264V4.5h-1.5V2.625a.36.36 0 01.111-.264.36.36 0 01.264-.111h.75zm-.246-.375c.164-.148.246-.305.246-.469a.51.51 0 00-.088-.228 2.547 2.547 0 00-.17-.252L3.035.82c-.055.29-.172.485-.351.586-.055.047-.073.115-.053.205.02.09.06.178.123.264-.07 0-.188-.07-.352-.21a.422.422 0 01-.152-.317c0-.172.086-.328.258-.47a.509.509 0 00.146-.321A1.45 1.45 0 002.66.164L2.625 0c.406.156.707.367.902.633.157.219.23.437.223.656-.008.242-.027.379-.059.41a.722.722 0 01-.263.123 1.12 1.12 0 01-.3.053z"/></symbol><symbol viewBox="0 0 22 20" id="box" xmlns="http://www.w3.org/2000/svg"><path d="M21.079.4H.92C.522.4.2.72.2 1.12V4h21.6V1.12a.721.721 0 00-.72-.72zM1.4 17.92c0 .924.755 1.68 1.679 1.68h15.84c.924 0 1.68-.757 1.68-1.68V5.2H1.4v12.72zm6-10.32h7.2V10H7.4V7.6z"/></symbol><symbol viewBox="0 0 20 20" id="calendar" xmlns="http://www.w3.org/2000/svg"><path fill-rule="evenodd" clip-rule="evenodd" d="M16.763 2.307H18.8a.8.8 0 01.8.8V18.8a.8.8 0 01-.8.8H1.2a.8.8 0 01-.8-.8V3.107a.8.8 0 01.8-.8h2.037V1.2a.8.8 0 011.6 0v1.107H9.2V1.2a.8.8 0 011.6 0v1.107h4.363V1.2a.8.8 0 011.6 0v1.107zM8.667 12.462c-.184.235-.517.574-.999 1.015-.481.442-.786.735-.914.88a2.637 2.637 0 00-.313.423h3.03v1.417H4.123a3.683 3.683 0 01.521-1.523c.29-.48.862-1.115 1.716-1.908.688-.64 1.11-1.075 1.265-1.303.21-.315.315-.626.315-.934 0-.34-.091-.602-.274-.784-.183-.183-.436-.275-.758-.275-.318 0-.572.096-.76.288-.188.192-.297.51-.326.956l-1.52-.152c.09-.84.375-1.443.853-1.808.477-.366 1.075-.549 1.791-.549.786 0 1.403.212 1.852.636.449.423.673.95.673 1.58 0 .358-.064.699-.193 1.023a4.16 4.16 0 01-.61 1.018zm3.741-1.336c.34-.17.688-.255 1.042-.255.677 0 1.251.246 1.722.738.47.493.705 1.132.705 1.917 0 .655-.19 1.24-.57 1.754-.517.702-1.236 1.053-2.155 1.053-.735 0-1.334-.197-1.797-.592-.464-.394-.74-.925-.831-1.59l1.52-.158c.044.344.172.616.386.817a1.046 1.046 0 001.547-.087c.22-.259.331-.649.331-1.17 0-.489-.11-.855-.328-1.1a1.095 1.095 0 00-.855-.366c-.438 0-.831.194-1.178.581l-1.238-.179.781-4.143h4.034v1.428h-2.877l-.239 1.352z"/></symbol><symbol viewBox="0 0 16 18" id="calendar-alt" xmlns="http://www.w3.org/2000/svg"><path d="M3.832 8.166h1.667v1.667H3.832V8.166zm0 3.334h1.667v1.666H3.832V11.5zm3.333-3.334h1.667v1.667H7.165V8.166zm0 3.334h1.667v1.666H7.165V11.5zM10.5 8.166h1.666v1.667H10.5V8.166zm0 3.334h1.666v1.666H10.5V11.5z"/><path d="M2.167 17.333h11.666c.92 0 1.667-.747 1.667-1.666V4c0-.92-.748-1.667-1.667-1.667h-1.666V.667H10.5v1.666h-5V.667H3.833v1.666H2.167C1.247 2.333.5 3.081.5 4v11.666c0 .92.748 1.667 1.667 1.667zM13.833 5.667l.001 10H2.167v-10h11.666z"/></symbol><symbol viewBox="0 0 20 18" id="camera" xmlns="http://www.w3.org/2000/svg"><path d="M18 3h-2.586L12.707.293A.996.996 0 0012 0H8a.996.996 0 00-.707.293L4.586 3H2C.897 3 0 3.897 0 5v11c0 1.103.897 2 2 2h16c1.103 0 2-.897 2-2V5c0-1.103-.897-2-2-2zm-8 12c-2.71 0-5-2.29-5-5s2.29-5 5-5 5 2.29 5 5-2.29 5-5 5z"/></symbol><symbol viewBox="0 0 14 14" id="cancel" xmlns="http://www.w3.org/2000/svg"><path d="M8.41 7l4.3-4.29a1.004 1.004 0 10-1.42-1.42L7 5.59l-4.29-4.3a1.004 1.004 0 00-1.42 1.42L5.59 7l-4.3 4.29a1 1 0 000 1.42.998.998 0 001.42 0L7 8.41l4.29 4.3a.998.998 0 001.42 0 .997.997 0 00.219-1.095.998.998 0 00-.22-.325L8.41 7z"/></symbol><symbol viewBox="0 0 24 20" id="car" xmlns="http://www.w3.org/2000/svg"><path d="M22.224 6.232h-1.488l-.96-3A3.71 3.71 0 0016.248.664H7.752c-1.608 0-3.048 1.032-3.528 2.568l-.96 3H1.776C1.128 6.232.6 6.76.6 7.408v.672c0 .648.528 1.176 1.176 1.176h.408c-.24 1.08-.36 2.184-.36 3.288v5.64c0 .648.528 1.176 1.176 1.176h1.968c.648 0 1.176-.528 1.176-1.176v-1.8h11.76v1.8c0 .648.528 1.176 1.176 1.176h1.968c.648 0 1.176-.528 1.176-1.176V12.52c0-1.104-.12-2.208-.36-3.288h.408c.648 0 1.176-.528 1.176-1.176v-.672c-.048-.624-.576-1.152-1.224-1.152zm-16.896 1.2l1.128-3.504c.192-.576.72-.96 1.296-.96h8.496c.6 0 1.128.384 1.296.96l1.128 3.504c.048.168-.072.312-.24.312H5.568c-.168.024-.288-.144-.24-.312zm2.448 5.736H5.4a.707.707 0 01-.72-.72V11.32c0-.432.408-.792.84-.72l2.208.36a.747.747 0 01.6.552l.168.768a.73.73 0 01-.72.888zm11.52-.72c0 .408-.312.72-.72.72H16.2a.717.717 0 01-.696-.864l.168-.768a.717.717 0 01.6-.552l2.208-.36a.726.726 0 01.84.72v1.104h-.024z"/></symbol><symbol viewBox="0 0 24 24" id="cart" xmlns="http://www.w3.org/2000/svg"><path d="M23.988 8.07l-1.006 5.775a1.236 1.236 0 01-1.219 1.032H7.09l-.291 1.643h13.984c.737.056 1.236.577 1.245 1.245-.053.734-.575 1.235-1.245 1.244H5.315c-.836-.075-1.335-.742-1.244-1.483l.662-3.602L3.726 3.806l-2.86-.9c-.7-.278-.984-.91-.821-1.563.271-.68.922-.99 1.562-.82l3.655 1.165c.493.184.776.587.848 1.06l.212 2.012 16.58 1.854c.762.165 1.175.768 1.086 1.457zM9.105 21.624a1.9 1.9 0 11-3.8 0 1.9 1.9 0 013.8 0zm11.346 0a1.9 1.9 0 11-3.801 0 1.9 1.9 0 013.8 0z"/></symbol><symbol viewBox="0 0 20 20" id="chat" xmlns="http://www.w3.org/2000/svg"><path d="M2.401 15.549h1.542V18.8a.8.8 0 001.364.567l3.832-3.818h8.46a2.001 2.001 0 002-1.997V2.397A2.001 2.001 0 0017.6.4H2.4a2.001 2.001 0 00-2 1.997v11.155c0 1.101.898 1.997 2.001 1.997z"/></symbol><symbol viewBox="0 0 14 10" id="check" xmlns="http://www.w3.org/2000/svg"><path d="M5.486 9.73a.997.997 0 01-.707-.292L.537 5.195A1 1 0 111.95 3.78l3.535 3.535L11.85.952a1 1 0 011.415 1.414L6.193 9.438a.997.997 0 01-.707.292z"/></symbol><symbol viewBox="0 0 22 24" id="checkout" xmlns="http://www.w3.org/2000/svg"><path fill-rule="evenodd" clip-rule="evenodd" d="M6.78 1.538C8.345 1.123 10.005.75 11 .75c.993 0 2.655.373 4.22.788 1.394.374 2.78.782 4.157 1.222a2.181 2.181 0 011.505 1.776c.86 6.296-1.134 10.96-3.55 14.048a16.79 16.79 0 01-3.628 3.45c-.478.334-.983.628-1.51.879-.405.186-.837.337-1.194.337s-.79-.151-1.194-.337a10.36 10.36 0 01-1.51-.88 16.788 16.788 0 01-3.626-3.45C2.25 15.498.258 10.832 1.118 4.537A2.181 2.181 0 012.622 2.76 91.665 91.665 0 016.78 1.538zm4.992 10.325a2.25 2.25 0 10-1.59-.016.748.748 0 00-.066.204l-.5 3a.75.75 0 00.74.873h1.253a.75.75 0 00.74-.877l-.521-3a.751.751 0 00-.056-.184z"/></symbol><symbol viewBox="0 0 10 18" id="chevron" xmlns="http://www.w3.org/2000/svg"><path d="M9.8 3l-6 6 6 6-1.2 2.4L.2 9 8.6.6 9.8 3z"/></symbol><symbol viewBox="0 0 8 5" id="chevron-down" xmlns="http://www.w3.org/2000/svg"><path d="M7.805 1.138L6.862.195 4 3.057 1.138.195l-.943.943L4 4.943l3.805-3.805z"/></symbol><symbol viewBox="0 0 6 11" id="chevron-left" xmlns="http://www.w3.org/2000/svg"><path d="M5 1.245L1 5.233 5 9.22"/></symbol><symbol viewBox="0 0 6 11" id="chevron-right" xmlns="http://www.w3.org/2000/svg"><path d="M1 1.245l4 3.988L1 9.22"/></symbol><symbol viewBox="0 0 20 20" id="clock" xmlns="http://www.w3.org/2000/svg"><path d="M10 0C4.486 0 0 4.486 0 10s4.486 10 10 10 10-4.486 10-10S15.514 0 10 0zm0 18c-4.411 0-8-3.589-8-8s3.589-8 8-8 8 3.589 8 8-3.589 8-8 8z"/><path d="M11 5H9v6h6V9h-4V5z"/></symbol><symbol viewBox="0 0 16 16" id="close" xmlns="http://www.w3.org/2000/svg"><path d="M9.996 8l5.586-5.587A1.413 1.413 0 0013.586.414L8 6.001 2.413.414a1.414 1.414 0 00-1.999 2L6.001 8 .414 13.586a1.414 1.414 0 002 2L8 9.999l5.586 5.587a1.414 1.414 0 002-2L9.996 8z"/></symbol><symbol viewBox="0 0 42 43" id="cloud" xmlns="http://www.w3.org/2000/svg"><path d="M29.615 25.038A8.998 8.998 0 1015.1 16.741a11.335 11.335 0 00-8.576 7.634A8.99 8.99 0 009 42.008h16.5a8.977 8.977 0 004.115-16.97zM24 12.008a6.006 6.006 0 016 6 5.942 5.942 0 01-1.2 3.6c-.394.518-.87.97-1.41 1.336a11.314 11.314 0 00-9.2-6.36A5.997 5.997 0 0124 12.008zm1.5 27H9a5.99 5.99 0 01-1.01-11.895l.995-.168.22-.984a8.244 8.244 0 0116.093 0l.219.984.993.168a5.99 5.99 0 01-1.01 11.895zM36 16.507h6v3h-6v-3zm-4.575-8.046l4.242-4.242 2.121 2.121-4.242 4.242-2.12-2.12zM22.5.007h3v6h-3v-6zM10.211 6.34l2.121-2.12 4.242 4.24-2.12 2.121-4.243-4.24z"/></symbol><symbol viewBox="0 0 23 24" id="coins" xmlns="http://www.w3.org/2000/svg"><path d="M18.02 11.919c2.708 0 4.903-1.325 4.903-2.96C22.923 7.325 20.728 6 18.02 6c-2.708 0-4.903 1.325-4.903 2.96 0 1.634 2.195 2.959 4.903 2.959z"/><path fill-rule="evenodd" clip-rule="evenodd" d="M18.09 13.621c-3.506 0-4.902-1.561-4.902-2.466v3.875c0 1.635 2.195 2.958 4.903 2.958 2.71 0 4.905-1.323 4.905-2.958v-3.782c0 .906-1.397 2.373-4.905 2.373z"/><path fill-rule="evenodd" clip-rule="evenodd" d="M18.09 19.608c-3.136 0-4.902-1.502-4.902-2.406v3.838c0 1.635 2.195 2.96 4.903 2.96 2.71 0 4.905-1.325 4.905-2.96v-3.885c0 .905-1.767 2.453-4.905 2.453z"/><path d="M5.968 5.919c3.07 0 5.558-1.325 5.558-2.96C11.526 1.325 9.038 0 5.968 0S.41 1.325.41 2.96c0 1.634 2.489 2.959 5.558 2.959z"/><path fill-rule="evenodd" clip-rule="evenodd" d="M6.144 7.621C2.17 7.621.586 6.06.586 5.155V9.03c0 1.635 2.489 2.958 5.558 2.958 3.072 0 5.56-1.323 5.56-2.958V5.248c0 .906-1.586 2.373-5.56 2.373z"/><path fill-rule="evenodd" clip-rule="evenodd" d="M6.144 13.608c-3.556 0-5.558-1.502-5.558-2.406v3.838c0 1.635 2.489 2.96 5.558 2.96 3.072 0 5.56-1.325 5.56-2.96v-3.885c0 .905-2.005 2.453-5.56 2.453z"/><path fill-rule="evenodd" clip-rule="evenodd" d="M6.144 19.608c-3.556 0-5.558-1.502-5.558-2.406v3.838c0 1.635 2.489 2.96 5.558 2.96 3.072 0 5.56-1.325 5.56-2.96v-3.885c0 .905-2.005 2.453-5.56 2.453z"/></symbol><symbol viewBox="0 0 20 20" id="comment" xmlns="http://www.w3.org/2000/svg"><path d="M18 0H2C.897 0 0 .897 0 2v18l5.333-4H18c1.103 0 2-.897 2-2V2c0-1.103-.897-2-2-2zm0 14H4.667L2 16V2h16v12z"/></symbol><symbol viewBox="0 0 20 20" id="comment-filled" xmlns="http://www.w3.org/2000/svg"><path d="M18 0H2C.897 0 0 .897 0 2v18l4-4h14c1.103 0 2-.897 2-2V2c0-1.103-.897-2-2-2z"/></symbol><symbol viewBox="0 0 20 20" id="contacts" xmlns="http://www.w3.org/2000/svg"><path d="M19 0H4a2 2 0 00-2 2v3H0v2h2v2H0v2h2v2H0v2h2v3a2 2 0 002 2h15a1 1 0 001-1V1a1 1 0 00-1-1zm-8 2.999c1.648 0 3 1.351 3 3A3.012 3.012 0 0111 9C9.353 9 8 7.647 8 5.999c0-1.649 1.353-3 3-3zM17 16H5v-.75c0-2.219 2.705-4.5 6-4.5s6 2.281 6 4.5V16z"/></symbol><symbol viewBox="0 0 12 14" id="copy" xmlns="http://www.w3.org/2000/svg"><path d="M11 0H2.625A.125.125 0 002.5.125V1c0 .069.056.125.125.125h7.75v10.75c0 .069.056.125.125.125h.875a.125.125 0 00.125-.125V.5A.5.5 0 0011 0zM9 2H1a.5.5 0 00-.5.5v8.292c0 .133.053.26.147.353l2.708 2.708a.519.519 0 00.115.086v.03h.066c.055.02.112.031.172.031H9a.5.5 0 00.5-.5v-11A.5.5 0 009 2zM3.969 13h-.003l-2.341-2.34v-.004h2.344V13z"/></symbol><symbol viewBox="0 0 18 16" id="description" xmlns="http://www.w3.org/2000/svg"><path fill-rule="evenodd" clip-rule="evenodd" d="M6 14.75a.75.75 0 01.75-.75h10.5a.75.75 0 110 1.5H6.75a.75.75 0 01-.75-.75zm-6-4.5a.75.75 0 01.75-.75h16.5a.75.75 0 110 1.5H.75a.75.75 0 01-.75-.75zm6-4.5A.75.75 0 016.75 5h10.5a.75.75 0 110 1.5H6.75A.75.75 0 016 5.75zm-6-4.5A.75.75 0 01.75.5h16.5a.75.75 0 110 1.5H.75A.75.75 0 010 1.25z"/></symbol><symbol viewBox="0 0 20 19" id="eats" xmlns="http://www.w3.org/2000/svg"><path d="M1 1a1 1 0 00-1 1v5.5c0 1.69 1.03 3.13 2.5 3.72v6.28a1.5 1.5 0 003 0v-6.28C6.97 10.63 8 9.19 8 7.5V2a1 1 0 00-2 0v4a.5.5 0 01-1 0V2a1 1 0 00-2 0v4a.5.5 0 01-1 0V2a1 1 0 00-1-1zm16.88 0c-.13 0-.26.09-.38.16L14 3.25V7h-4v2h1l1 10h6l1-10h1V7h-4V4.34l2.5-1.5c.5-.28.63-.84.34-1.34-.21-.36-.58-.55-.96-.5z"/></symbol><symbol viewBox="0 0 20 20" id="edit" xmlns="http://www.w3.org/2000/svg"><path d="M18.625 17.594H1.375a.75.75 0 00-.75.75v.843c0 .104.084.188.188.188h18.375a.188.188 0 00.187-.188v-.843a.75.75 0 00-.75-.75zM4.04 15.625a.953.953 0 00.14-.012l3.943-.691a.23.23 0 00.124-.066l9.935-9.935a.233.233 0 000-.33L14.287.693a.232.232 0 00-.167-.068.232.232 0 00-.166.068l-9.935 9.935a.238.238 0 00-.066.124l-.691 3.942a.785.785 0 00.22.699c.155.15.35.232.558.232z"/></symbol><symbol viewBox="0 0 20 16" id="envelope" xmlns="http://www.w3.org/2000/svg"><path d="M18 0H2C.9 0 .01.9.01 2L0 14c0 1.1.9 2 2 2h16c1.1 0 2-.9 2-2V2c0-1.1-.9-2-2-2zm0 4l-8 5-8-5V2l8 5 8-5v2z"/></symbol><symbol viewBox="0 0 22 16" id="equipment-share" xmlns="http://www.w3.org/2000/svg"><path d="M20.469.922H7.812a.75.75 0 00-.75.75v5.531h-5.53a.75.75 0 00-.75.75v6.375c0 .415.334.75.75.75h12.655a.75.75 0 00.75-.75V8.797h5.532a.75.75 0 00.75-.75V1.672a.75.75 0 00-.75-.75zm-7.125 12.562H8.656V8.797h4.688v4.687zm6.281-6.28h-4.688V2.515h4.688v4.687z"/></symbol><symbol viewBox="0 0 20 19" id="event" xmlns="http://www.w3.org/2000/svg"><path d="M5 5c.265 0 .52-.066.707-.183C5.895 4.7 6 4.54 6 4.375V.625C6 .459 5.895.3 5.707.183A1.36 1.36 0 005 0c-.265 0-.52.066-.707.183C4.105.3 4 .46 4 .625v3.75c0 .166.105.325.293.442C4.48 4.934 4.735 5 5 5zm10 0c.265 0 .52-.066.707-.183.188-.117.293-.276.293-.442V.625c0-.166-.105-.325-.293-.442A1.36 1.36 0 0015 0c-.265 0-.52.066-.707.183C14.105.3 14 .46 14 .625v3.75c0 .166.105.325.293.442.187.117.442.183.707.183z"/><path d="M18.906 2h-2.5v1.962c0 .381-.145.747-.403 1.017-.257.27-.607.421-.972.421s-.714-.151-.972-.421a1.473 1.473 0 01-.403-1.017V2h-7.28v1.962c0 .381-.146.747-.404 1.017-.258.27-.607.421-.972.421s-.714-.151-.972-.421a1.473 1.473 0 01-.403-1.017V2h-2.5a1.07 1.07 0 00-.434.087 1.11 1.11 0 00-.367.256 1.17 1.17 0 00-.243.386 1.211 1.211 0 00-.08.455v14.633a1.211 1.211 0 00.312.828 1.093 1.093 0 00.781.355h17.812a1.07 1.07 0 00.424-.096c.135-.06.256-.149.357-.259a1.212 1.212 0 00.313-.829V3.185a1.212 1.212 0 00-.078-.447 1.172 1.172 0 00-.235-.382 1.113 1.113 0 00-.357-.259A1.07 1.07 0 0018.906 2zm-3.944 6.918L8.92 15.24l-3.294-3.472a.913.913 0 01-.22-.614.91.91 0 01.242-.606.827.827 0 011.166-.048l2.112 2.21 4.825-5.048a.82.82 0 011.206 0 .897.897 0 01.25.631.93.93 0 01-.25.631l.006-.006z"/></symbol><symbol viewBox="0 0 24 18" id="exchange" xmlns="http://www.w3.org/2000/svg"><path d="M1.5 7.236a1.498 1.498 0 01-.796-2.77L4.732.438a1.499 1.499 0 012.12 2.12l-1.68 1.68h11.313a1.499 1.499 0 010 2.996H1.5v.002zm21 2.949a1.499 1.499 0 01.796 2.769l-4.028 4.028a1.499 1.499 0 11-2.12-2.12l1.68-1.679H7.516a1.499 1.499 0 010-2.997H22.5v-.001z"/></symbol><symbol viewBox="0 0 22 22" id="expand" xmlns="http://www.w3.org/2000/svg"><path d="M11 .5C5.3.5.5 5.3.5 11S5.3 21.5 11 21.5 21.5 16.7 21.5 11 16.7.5 11 .5zm6 11.25h-5.25V17h-1.5v-5.25H5v-1.5h5.25V5h1.5v5.25H17v1.5z"/></symbol><symbol viewBox="0 0 24 24" id="file-size" xmlns="http://www.w3.org/2000/svg"><path d="M11.25 13.594H8.719a.187.187 0 00-.188.187v1.125a.187.187 0 00.188.188h2.531v2.531a.188.188 0 00.188.188h1.124a.188.188 0 00.188-.188v-2.531h2.531a.187.187 0 00.188-.188v-1.125a.187.187 0 00-.188-.187H12.75v-2.531a.188.188 0 00-.188-.188h-1.124a.188.188 0 00-.188.188v2.53zm8.78-6.828c.14.141.22.33.22.53V21.75a.75.75 0 01-.75.75h-15a.75.75 0 01-.75-.75V2.25a.75.75 0 01.75-.75h9.954c.2 0 .391.08.532.22l5.044 5.046zm-1.51.875L14.11 3.23v4.41h4.41z"/></symbol><symbol viewBox="0 0 22 20" id="heart" xmlns="http://www.w3.org/2000/svg"><path d="M20.633 4.647a6.093 6.093 0 00-1.334-1.94A6.219 6.219 0 0014.93.93 6.26 6.26 0 0011 2.315 6.26 6.26 0 007.07.93 6.219 6.219 0 002.7 2.706a6.057 6.057 0 00-1.825 4.33c0 .78.16 1.593.476 2.42.265.692.644 1.409 1.13 2.133.768 1.146 1.825 2.341 3.138 3.553a35.068 35.068 0 004.42 3.453l.556.356a.753.753 0 00.808 0l.556-.357a35.528 35.528 0 004.42-3.452c1.312-1.211 2.37-2.407 3.138-3.553.485-.724.867-1.441 1.13-2.133.316-.827.476-1.64.476-2.42a5.968 5.968 0 00-.49-2.39zM11 17.097S2.656 11.75 2.656 7.035c0-2.388 1.976-4.324 4.414-4.324 1.713 0 3.199.956 3.93 2.353a4.426 4.426 0 013.93-2.353c2.438 0 4.414 1.936 4.414 4.324 0 4.716-8.344 10.062-8.344 10.062z"/></symbol><symbol viewBox="0 0 22 20" id="heart-filled" xmlns="http://www.w3.org/2000/svg"><path d="M20.633 4.647a6.093 6.093 0 00-1.334-1.94A6.219 6.219 0 0014.93.93 6.26 6.26 0 0011 2.315 6.26 6.26 0 007.07.93 6.219 6.219 0 002.7 2.706a6.057 6.057 0 00-1.825 4.33c0 .78.16 1.593.476 2.42.265.692.644 1.409 1.13 2.133.768 1.146 1.825 2.341 3.138 3.553a35.068 35.068 0 004.42 3.453l.556.356a.753.753 0 00.808 0l.556-.357a35.528 35.528 0 004.42-3.452c1.312-1.211 2.37-2.407 3.138-3.553.485-.724.867-1.441 1.13-2.133.316-.827.476-1.64.476-2.42a5.968 5.968 0 00-.49-2.39z"/></symbol><symbol viewBox="0 0 20 22" id="history" xmlns="http://www.w3.org/2000/svg"><path d="M10.565 5.398H9.438a.188.188 0 00-.187.188v6.452c0 .061.028.117.077.153l3.874 2.829a.187.187 0 00.263-.04l.67-.914a.185.185 0 00-.04-.263l-3.342-2.416V5.586a.188.188 0 00-.188-.188zm5.152 1.763l3.675.898a.188.188 0 00.232-.18l.019-3.786a.186.186 0 00-.303-.148L15.647 6.83a.187.187 0 00.07.33zm3.93 7.057l-1.328-.457a.188.188 0 00-.237.112 8.233 8.233 0 01-1.92 2.99 8.274 8.274 0 01-5.864 2.431 8.275 8.275 0 01-5.864-2.43 8.312 8.312 0 01-1.779-2.637A8.283 8.283 0 012.008 11c0-1.12.218-2.208.652-3.23a8.235 8.235 0 011.779-2.636 8.273 8.273 0 015.861-2.43c1.12 0 2.206.217 3.228.65a8.273 8.273 0 013.307 2.537l1.401-1.097a10.05 10.05 0 00-7.94-3.872A10.06 10.06 0 00.227 11.103c.056 5.52 4.545 9.975 10.073 9.975 4.348 0 8.051-2.756 9.462-6.616a.191.191 0 00-.115-.244z"/></symbol><symbol viewBox="0 0 22 22" id="house" xmlns="http://www.w3.org/2000/svg"><path d="M21.183 10.836L11.53 1.189a.748.748 0 00-1.059 0L.816 10.836a1.501 1.501 0 001.06 2.562h1.017v6.883c0 .415.335.75.75.75H9.5v-5.25h2.625v5.25h6.232a.75.75 0 00.75-.75v-6.883h1.017a1.502 1.502 0 001.06-2.562z"/></symbol><symbol viewBox="0 0 24 22" id="hyperloop" xmlns="http://www.w3.org/2000/svg"><path d="M23.04 11.801l-6.24-5.81A3.773 3.773 0 0014.25 5H4.5a.75.75 0 000 1.5h.75a.75.75 0 010 1.5H4.5a.75.75 0 00-.75.75v1.5a.75.75 0 00.75.75h.75a.75.75 0 110 1.5H4.5a.75.75 0 100 1.5h3a.75.75 0 110 1.5h-3a.75.75 0 100 1.5H21a3 3 0 003-3 2.958 2.958 0 00-.96-2.199zM18 11c-.45 0-.887-.015-1.299-.04-.078 0-.15-.013-.228-.019a16.244 16.244 0 01-1.011-.1l-.098-.013C10.934 10.207 9.561 8.02 9.15 6.5h5.1c.564 0 1.108.21 1.525.59L19.98 11H18z"/><path d="M5.25 20c-1.775 0-3.75-3.696-3.75-9s1.975-9 3.75-9c.676 0 1.381.54 1.997 1.5h1.708c-.944-1.863-2.25-3-3.705-3C2.307.5 0 5.112 0 11c0 5.887 2.307 10.5 5.25 10.5 1.461 0 2.763-1.137 3.705-3H7.247c-.615.96-1.32 1.5-1.997 1.5z"/></symbol><symbol viewBox="0 0 22 22" id="info" xmlns="http://www.w3.org/2000/svg"><path d="M11 .5C5.202.5.5 5.202.5 11S5.202 21.5 11 21.5 21.5 16.798 21.5 11 16.798.5 11 .5zm0 19.219A8.72 8.72 0 012.281 11 8.72 8.72 0 0111 2.281 8.72 8.72 0 0119.719 11 8.72 8.72 0 0111 19.719z"/><path d="M9.875 6.875a1.125 1.125 0 102.25 0 1.125 1.125 0 00-2.25 0zM11.563 9.5h-1.126a.188.188 0 00-.187.188v6.374c0 .104.084.188.188.188h1.124a.188.188 0 00.188-.188V9.688a.188.188 0 00-.188-.187z"/></symbol><symbol viewBox="0 0 22 22" id="info-filled" xmlns="http://www.w3.org/2000/svg"><path d="M11 .5C5.202.5.5 5.202.5 11S5.202 21.5 11 21.5 21.5 16.798 21.5 11 16.798.5 11 .5zm.75 15.563a.188.188 0 01-.188.187h-1.124a.188.188 0 01-.188-.188V9.688c0-.103.084-.187.188-.187h1.124c.104 0 .188.084.188.188v6.374zM11 8a1.125 1.125 0 010-2.25A1.125 1.125 0 0111 8z"/></symbol><symbol viewBox="0 0 24 24" id="log-out" xmlns="http://www.w3.org/2000/svg"><path d="M9 1v3h12v15H9v3h15V1H9zM6 7l-6 4.5L6 16v-3h12v-3H6V7z"/></symbol><symbol viewBox="0 0 22 16" id="lorri" xmlns="http://www.w3.org/2000/svg"><path d="M2 0a2 2 0 00-2 2v11h2a3 3 0 006 0h6a3 3 0 006 0h2V8l-3-4h-3V0H2zm7 2l4 4-4 4V7H3V5h6V2zm7 3.5h2.5L20.47 8H16V5.5zm-11 6a1.5 1.5 0 110 3 1.5 1.5 0 010-3zm12 0a1.5 1.5 0 110 3 1.5 1.5 0 010-3z"/></symbol><symbol viewBox="0 0 20 18" id="map" xmlns="http://www.w3.org/2000/svg"><path d="M19.447 3.105l-6-3a1 1 0 00-.895 0L7 2.882 1.447.105A1 1 0 000 1v13c0 .379.214.725.553.895l6 3a1 1 0 00.895 0L13 15.118l5.553 2.776a.992.992 0 00.972-.043c.295-.183.475-.504.475-.851V4c0-.379-.214-.725-.553-.895zM8 4.618l4-2v10.764l-4 2V4.618zm-6-2l4 2v10.764l-4-2V2.618zm16 12.764l-4-2V2.618l4 2v10.764z"/></symbol><symbol viewBox="0 0 20 20" id="marketplace" xmlns="http://www.w3.org/2000/svg"><path d="M18.8.4H1.2a.8.8 0 00-.8.8v2.909c0 .692.277 1.32.725 1.78V18.8a.8.8 0 00.8.8h16.151a.8.8 0 00.8-.8V5.89a2.55 2.55 0 00.724-1.781V1.2a.8.8 0 00-.8-.8zM18 4.109a.961.961 0 01-1.92 0V2H18v2.109zm-3.52 0a.961.961 0 01-1.92 0V2h1.92v2.109zm-3.52 0a.961.961 0 01-1.92 0V2h1.92v2.109zm-3.52 0a.961.961 0 01-1.92 0V2h1.92v2.109zM2 2h1.92v2.109a.96.96 0 01-1.92 0V2zm6.054 16v-6.69h3.892V18H8.054z"/></symbol><symbol viewBox="0 0 14 19" id="microphone" xmlns="http://www.w3.org/2000/svg"><path d="M7 12c1.66 0 2.99-1.34 2.99-3L10 3c0-1.66-1.34-3-3-3S4 1.34 4 3v6c0 1.66 1.34 3 3 3zm6.08-3c-.42 0-.77.3-.83.71-.37 2.61-2.72 4.39-5.25 4.39s-4.88-1.77-5.25-4.39A.839.839 0 00.92 9C.4 9 0 9.46.07 9.97c.46 2.97 2.96 5.3 5.93 5.75V18c0 .55.45 1 1 1s1-.45 1-1v-2.28c2.96-.43 5.47-2.78 5.93-5.75a.858.858 0 00-.85-.97z"/></symbol><symbol viewBox="0 0 21 21" id="moon" xmlns="http://www.w3.org/2000/svg"><path fill-rule="evenodd" clip-rule="evenodd" d="M20.795 13.795A10.5 10.5 0 017.208.208 10.505 10.505 0 0011 20.5a10.502 10.502 0 009.795-6.705z"/></symbol><symbol viewBox="0 0 30 36" id="muted" xmlns="http://www.w3.org/2000/svg"><path fill-rule="evenodd" clip-rule="evenodd" d="M25.653 21.63c.398-1.17.6-2.396.599-3.63v-2.25a1.125 1.125 0 10-2.25 0V18c0 .616-.061 1.215-.18 1.798l1.831 1.831zM19.98 25.5A9 9 0 016.002 18v-2.25a1.125 1.125 0 10-2.25 0V18a11.25 11.25 0 0010.125 11.194v4.556h-6.75a1.125 1.125 0 100 2.25h15.75a1.125 1.125 0 000-2.25h-6.75v-4.556a11.19 11.19 0 005.467-2.077l-1.615-1.618zm1.773-7.77V6.75A6.75 6.75 0 008.607 4.583l1.901 1.901a4.5 4.5 0 018.994.266v8.728l2.25 2.25v.002zm-5.09 4.455l1.683 1.683A6.751 6.751 0 018.252 18v-4.228l2.25 2.25V18a4.5 4.5 0 006.16 4.185zm11.043 7.862l-27-27 1.593-1.594 27 27-1.593 1.591v.003z"/></symbol><symbol viewBox="0 0 24 24" id="nearby" xmlns="http://www.w3.org/2000/svg"><path d="M12 17l1-2V9.858c1.721-.447 3-2 3-3.858 0-2.206-1.794-4-4-4S8 3.794 8 6c0 1.858 1.279 3.411 3 3.858V15l1 2z"/><path d="M16.267 10.563l-.533 1.928C18.325 13.207 20 14.584 20 16c0 1.892-3.285 4-8 4s-8-2.108-8-4c0-1.416 1.675-2.793 4.267-3.51l-.533-1.928C4.197 11.54 2 13.623 2 16c0 3.364 4.393 6 10 6s10-2.636 10-6c0-2.377-2.197-4.46-5.733-5.437z"/></symbol><symbol viewBox="0 0 20 21" id="new-post" xmlns="http://www.w3.org/2000/svg"><path d="M5.72 15.456l1.761-.508 10.603-10.73a.456.456 0 00-.003-.64l-.635-.642a.443.443 0 00-.632-.003L6.239 13.635l-.52 1.82h.001zM18.703 1.664l.635.643c.876.887.884 2.318.016 3.196L8.428 16.56l-3.764 1.084a.9.9 0 01-1.11-.623.915.915 0 01-.002-.506l1.095-3.84 10.897-11.03a2.215 2.215 0 013.159.017zM7.184 2.817c.496 0 .898.407.898.909a.903.903 0 01-.898.909H3.592c-.992 0-1.796.814-1.796 1.817v10.906c0 1.004.804 1.818 1.796 1.818h10.776c.992 0 1.797-.814 1.797-1.818v-3.635c0-.502.402-.91.898-.91s.898.408.898.91v3.635c0 2.008-1.609 3.636-3.593 3.636H3.592C1.608 20.994 0 19.366 0 17.358V6.452c0-2.007 1.608-3.635 3.592-3.635h3.592z"/></symbol><symbol viewBox="0 0 24 19" id="notebook" xmlns="http://www.w3.org/2000/svg"><path d="M24.004 12.667v4.75c0 .428-.149.8-.445 1.113-.297.313-.649.47-1.055.47h-13.5v-.792c0-.214-.074-.4-.223-.556a.703.703 0 00-.527-.235.703.703 0 00-.527.235.782.782 0 00-.223.556V19h-6c-.406 0-.758-.157-1.055-.47a1.564 1.564 0 01-.445-1.113v-4.75c.828 0 1.535-.31 2.121-.928.586-.619.879-1.365.879-2.239 0-.874-.293-1.62-.879-2.239-.586-.618-1.293-.928-2.121-.928v-4.75c0-.428.148-.8.445-1.113C.746.157 1.098 0 1.504 0h6v.792c0 .214.074.4.223.556a.703.703 0 00.527.235.703.703 0 00.527-.235.782.782 0 00.223-.556V0h13.5c.406 0 .758.157 1.055.47.296.313.445.685.445 1.113v4.75c-.828 0-1.535.31-2.121.928-.586.619-.88 1.365-.88 2.239 0 .874.294 1.62.88 2.239.586.618 1.293.928 2.12.928zm-15-8.709c0-.214-.074-.4-.223-.556a.703.703 0 00-.527-.235.703.703 0 00-.527.235.782.782 0 00-.223.556v1.584c0 .214.074.4.223.556a.703.703 0 00.527.235.703.703 0 00.527-.235.782.782 0 00.223-.556V3.958zm0 4.75c0-.214-.074-.4-.223-.556a.703.703 0 00-.527-.235.703.703 0 00-.527.235.782.782 0 00-.223.556v1.584c0 .214.074.4.223.556a.703.703 0 00.527.235.703.703 0 00.527-.235.782.782 0 00.223-.556V8.708zm0 4.75c0-.214-.074-.4-.223-.556a.703.703 0 00-.527-.235.703.703 0 00-.527.235.782.782 0 00-.223.556v1.584c0 .214.074.4.223.556a.703.703 0 00.527.235.703.703 0 00.527-.235.782.782 0 00.223-.556v-1.584z"/></symbol><symbol viewBox="0 0 21 18" id="paper-plane" xmlns="http://www.w3.org/2000/svg"><path d="M.01 18L21 9 .01 0 0 7l15 2-15 2 .01 7z"/></symbol><symbol viewBox="0 0 18 18" id="paper-plane-angled" xmlns="http://www.w3.org/2000/svg"><path d="M17.782.217a.75.75 0 00-.787-.172l-16.5 6a.75.75 0 000 1.402l6.442 2.573 4.755-4.77 1.058 1.057-4.778 4.778 2.58 6.442a.75.75 0 00.698.473.75.75 0 00.69-.495l6-16.5a.75.75 0 00-.158-.788z"/></symbol><symbol viewBox="0 0 22 14" id="people" xmlns="http://www.w3.org/2000/svg"><path d="M15 6c1.66 0 2.99-1.34 2.99-3S16.66 0 15 0c-1.66 0-3 1.34-3 3s1.34 3 3 3zM7 6c1.66 0 2.99-1.34 2.99-3S8.66 0 7 0C5.34 0 4 1.34 4 3s1.34 3 3 3zm0 2c-2.33 0-7 1.17-7 3.5V14h14v-2.5C14 9.17 9.33 8 7 8zm8 0c-.29 0-.62.02-.97.05 1.16.84 1.97 1.97 1.97 3.45V14h6v-2.5C22 9.17 17.33 8 15 8z"/></symbol><symbol viewBox="0 0 14 14" id="person" xmlns="http://www.w3.org/2000/svg"><path d="M12.15 9.912l-2.83-1.16a.4.4 0 01-.252-.37V7.72c0-.088.028-.171.08-.235.726-.904 1.159-2.17 1.159-3.389C10.308 2.005 8.978.6 7 .6S3.692 2.005 3.692 4.097c0 1.218.434 2.485 1.16 3.389a.38.38 0 01.08.235v.66a.4.4 0 01-.253.37L1.85 9.912A2.001 2.001 0 00.6 11.766v1.1c0 .295.239.534.533.534h11.734a.533.533 0 00.533-.534v-1.1a2 2 0 00-1.25-1.854zm.183 2.421H1.667v-.567c0-.38.23-.72.589-.867l2.828-1.161c.556-.228.914-.76.914-1.356V7.72c0-.33-.112-.65-.315-.903-.57-.71-.924-1.752-.924-2.72C4.76 2.304 5.917 1.666 7 1.666c1.084 0 2.241.638 2.241 2.43 0 .969-.354 2.011-.924 2.72a1.446 1.446 0 00-.315.904v.66c0 .597.359 1.129.914 1.357l2.829 1.16a.938.938 0 01.588.868v.567z"/><path d="M12.333 12.333H1.667v-.567c0-.38.23-.72.589-.867l2.828-1.161c.556-.228.914-.76.914-1.356V7.72c0-.33-.112-.65-.315-.903-.57-.71-.924-1.752-.924-2.72C4.76 2.304 5.917 1.666 7 1.666c1.084 0 2.241.638 2.241 2.43 0 .969-.354 2.011-.924 2.72a1.446 1.446 0 00-.315.904v.66c0 .597.359 1.129.914 1.357l2.829 1.16a.938.938 0 01.588.868v.567z"/></symbol><symbol viewBox="0 0 18 18" id="phone" xmlns="http://www.w3.org/2000/svg"><path d="M17.487 14.14l-4.065-3.696a1.001 1.001 0 00-1.39.043l-2.394 2.461c-.576-.11-1.734-.471-2.926-1.66-1.192-1.193-1.553-2.354-1.66-2.926l2.46-2.394a1 1 0 00.042-1.391L3.86.513A1 1 0 002.47.426L.298 2.287a1 1 0 00-.29.649c-.016.25-.302 6.172 4.29 10.766C8.305 17.707 13.323 18 14.705 18c.202 0 .326-.006.36-.008a.992.992 0 00.647-.291l1.86-2.171a.997.997 0 00-.085-1.39z"/></symbol><symbol viewBox="0 0 36 16" id="phone-horizontal" xmlns="http://www.w3.org/2000/svg"><path d="M35.767 9.25c.281 1.95.466 4.62-.41 5.64-1.446 1.69-10.606 1.69-10.606-1.689 0-1.701 1.508-2.817.06-4.507-1.421-1.66-3.973-1.687-6.81-1.69-2.837-.002-5.386.028-6.81 1.69-1.447 1.69.06 2.806.06 4.507 0 3.377-9.16 3.377-10.606 1.69-.876-1.022-.691-3.69-.41-5.641.216-1.303.763-2.707 2.516-4.5C5.379 2.297 9.354.295 17.86.25h.284c8.507.043 12.483 2.047 15.111 4.5 1.75 1.793 2.3 3.197 2.516 4.5h-.005z"/></symbol><symbol viewBox="0 0 18 18" id="phone-light" xmlns="http://www.w3.org/2000/svg"><path d="M16.23 12.26l-2.54-.29a1.99 1.99 0 00-1.64.57l-1.84 1.84a15.045 15.045 0 01-6.59-6.59l1.85-1.85c.43-.43.64-1.03.57-1.64l-.29-2.52A2.001 2.001 0 003.76.01H2.03C.9.01-.04.95.03 2.08c.53 8.54 7.36 15.36 15.89 15.89 1.13.07 2.07-.87 2.07-2v-1.73c.01-1.01-.75-1.86-1.76-1.98z"/></symbol><symbol viewBox="0 0 32 36" id="phone-rotated" xmlns="http://www.w3.org/2000/svg"><path d="M7.912 3.177C9.46 1.958 11.679.464 13.002.711c2.186.409 6.766 8.341 3.84 10.03-1.474.851-3.194.104-3.934 2.202-.727 2.061.525 4.284 1.942 6.743 1.417 2.458 2.717 4.651 4.869 5.053 2.186.408 2.4-1.455 3.872-2.306 2.925-1.688 7.505 6.244 6.767 8.34-.447 1.27-2.85 2.444-4.68 3.176-1.237.464-2.726.693-5.155.071-3.438-1.05-7.16-3.491-11.453-10.836l-.142-.246C4.712 15.55 4.46 11.104 5.27 7.602c.678-2.413 1.62-3.59 2.64-4.429l.002.004z"/></symbol><symbol viewBox="0 0 20 16" id="pictogram" xmlns="http://www.w3.org/2000/svg"><path d="M17.999 0h-16c-1.103 0-2 .897-2 2v12c0 1.103.897 2 2 2h16c1.103 0 2-.897 2-2V2c0-1.103-.897-2-2-2zm-13.5 3a1.5 1.5 0 110 3 1.5 1.5 0 010-3zm5.5 10h-7l4-5 1.5 2 3-4 5.5 7h-7z"/></symbol><symbol viewBox="0 0 20 21" id="picture" xmlns="http://www.w3.org/2000/svg"><path d="M15.912 5.545L10.764.418A1.091 1.091 0 009.222.412l-.007.006-5.127 5.127H1.273A1.09 1.09 0 00.182 6.636v13.091a1.09 1.09 0 001.09 1.091h17.455a1.091 1.091 0 001.091-1.09V6.635a1.09 1.09 0 00-1.09-1.09h-2.816zM10 2.731l2.814 2.814H7.185L10 2.731zm7.636 15.905H2.363V7.727h15.273v10.91zM7.818 11a1.091 1.091 0 11-2.182 0 1.091 1.091 0 012.182 0zm7.636 5.454H6.727l1.636-3.272 1.091 2.182 2.728-5.455 3.272 6.545z"/></symbol><symbol viewBox="0 0 14 18" id="pin" xmlns="http://www.w3.org/2000/svg"><path d="M7 .667C3.326.667.335 3.657.335 7.329.31 12.7 6.747 17.153 7.001 17.333c0 0 6.69-4.633 6.666-10A6.674 6.674 0 007.001.667zm0 10A3.332 3.332 0 117 4a3.332 3.332 0 110 6.667z"/></symbol><symbol viewBox="0 0 22 22" id="planet" xmlns="http://www.w3.org/2000/svg"><path d="M11 .5A10.5 10.5 0 1021.5 11 10.512 10.512 0 0011 .5zM2 11a8.986 8.986 0 013.75-7.295V5.75a.75.75 0 00.75.75h2.537a.75.75 0 00.67-.415L10.25 5h3v4.5H8.927a.75.75 0 00-.335.079l-2.427 1.214a.75.75 0 00-.415.67v2.78a.75.75 0 00.472.696L9.5 16.25l.618 3.705A9.011 9.011 0 012 11zm13.5 7.782V16.25l1.316-1.974a.753.753 0 00.104-.598L16.25 11V8.75h3.454A8.926 8.926 0 0115.5 18.782z"/></symbol><symbol viewBox="0 0 20 20" id="plus" xmlns="http://www.w3.org/2000/svg"><path d="M8.99.4h2.021c.18 0 .27.072.27.214v18.773c0 .142-.09.213-.27.213h-2.02c-.18 0-.27-.07-.27-.213V.614c0-.142.09-.214.27-.214z"/><path d="M.624 8.72h18.753c.149 0 .223.09.223.27v2.021c0 .18-.074.27-.223.27H.624c-.15 0-.224-.09-.224-.27v-2.02c0-.18.075-.27.224-.27z"/></symbol><symbol viewBox="0 0 18 19" id="profile" xmlns="http://www.w3.org/2000/svg"><path d="M4.5 4.5C4.5 6.981 6.519 9 9 9s4.5-2.019 4.5-4.5S11.481 0 9 0a4.505 4.505 0 00-4.5 4.5zM17 19h1v-1c0-3.859-3.141-7-7-7H7c-3.86 0-7 3.141-7 7v1h17z"/></symbol><symbol viewBox="0 0 19 22" id="profile-settings" xmlns="http://www.w3.org/2000/svg"><path d="M8 13v8H0a8 8 0 018-8zm0-1c-3.315 0-6-2.685-6-6s2.685-6 6-6 6 2.685 6 6-2.685 6-6 6zm2.595 5.812a3.51 3.51 0 010-1.623l-.992-.573 1-1.732.992.573c.398-.377.88-.655 1.405-.812V12.5h2v1.145c.532.158 1.012.44 1.405.812l.992-.573 1 1.732-.992.573a3.511 3.511 0 010 1.622l.992.573-1 1.732-.992-.573c-.398.377-.88.655-1.405.812V21.5h-2v-1.145a3.497 3.497 0 01-1.405-.812l-.992.573-1-1.732.992-.572zM14 16a1 1 0 100 2 1 1 0 000-2z"/></symbol><symbol viewBox="0 0 20 20" id="qr-code" xmlns="http://www.w3.org/2000/svg"><path d="M1.733.667A1.067 1.067 0 00.667 1.733V6H6V.667H1.733zm2.933 4H2V2h2.667v2.667zm-3.999 13.6a1.066 1.066 0 001.066 1.066H6V14H.667v4.267zM2 15.333h2.667V18H2v-2.667zm12 4h4.267a1.066 1.066 0 001.066-1.066V14H14v5.333zm1.333-4H18V18h-2.667v-2.667zM18.267.667H14V6h5.333V1.733A1.066 1.066 0 0018.267.667zm-.267 4h-2.667V2H18v2.667zm-6.667 0V3.333H8.666V6H10V4.667h1.333zM6 6h1.333v1.333H6V6zm1.333 1.333H10v1.334H7.333V7.333zM11.334 2v1.333h1.333V.667H7.334v2.666h1.333V2h2.667zM.667 7.333H2V10H.667V7.333z"/><path d="M6 8.667V10H4.667V7.333H3.333V10H2v1.333H.667v1.334h2.666v-1.334h1.333v1.334H6v-1.334h1.333V8.667H6zm5.333 0h1.334V10H14V8.667h1.333V7.333h-2.666V4.667h-1.334V6H10v1.333h1.333v1.334zM10 18H7.333v1.333h5.334V18h-1.333v-1.333H10V18zm2.666-6.667V10h-1.333V8.667H10V10H8.666v1.333H10v1.334h1.333v-1.334h1.333zm5.334 0h1.333v1.334H18v-1.334zm-5.334 0h4v1.334h-4v-1.334zm5.334-4h-1.333v1.334h-1.334V10h1.334v1.333H18V10h1.334V8.667H18V7.333zm-6.666 5.334h1.333v4h-1.333v-4z"/><path d="M7.333 16.667h1.334v-1.334H10V14H8.667v-2.667H7.334v5.334z"/></symbol><symbol viewBox="0 0 11 12" id="reminder" xmlns="http://www.w3.org/2000/svg"><path d="M3.49 1.09c.357 0 .688.115.963.306v-.305c0-.29.116-.567.322-.771a1.106 1.106 0 011.557 0c.207.204.323.482.323.77v.312c.275-.191.605-.311.963-.311.438 0 .858.172 1.168.48.31.306.483.722.483 1.156 0 .862-.666 1.566-1.513 1.637H6.655v.545h.682l.264.071 2.527 1.25c.451.168.672.5.672.997l-.017.077v.076l-.55 3.682a1.05 1.05 0 01-.364.665.997.997 0 01-.693.273H5.003c-.302 0-.55-.104-.781-.322L.6 8.095l.578-.584a.835.835 0 01.594-.235h.176l2.505.54V4.364H3.352a1.669 1.669 0 01-1.077-.528 1.629 1.629 0 01.047-2.266c.31-.307.73-.48 1.168-.48zm.963 1.637a.95.95 0 00-.282-.675.968.968 0 00-1.363 0 .95.95 0 00.544 1.619v.01h1.1v-.954zm3.303.955v-.006a.957.957 0 00.825-.949.956.956 0 00-.963-.949.955.955 0 00-.963.95v.954h1.1z"/></symbol><symbol viewBox="0 0 60 60" id="replay" xmlns="http://www.w3.org/2000/svg"><path d="M59.941 20.02a3.715 3.715 0 01-.556 1.697c-.332.546-.752.82-1.26.82H38.789c-.937.039-1.387-.625-1.348-1.99l7.383-7.376C40.566 9.424 35.625 7.55 30 7.55c-4.063 0-7.822 1.005-11.28 3.015-3.456 2.01-6.19 4.741-8.202 8.195C8.506 22.215 7.5 25.981 7.5 30.058c0 4.079 1.006 7.835 3.018 11.269 2.011 3.434 4.746 6.156 8.203 8.166 3.457 2.01 7.216 3.014 11.279 3.014 3.438 0 6.67-.731 9.697-2.195a22.483 22.483 0 007.705-6.058l5.918 4.624c-2.812 3.473-6.25 6.195-10.312 8.166C38.945 59.014 34.609 60 30 60c-4.063 0-7.95-.79-11.66-2.37-3.711-1.581-6.905-3.708-9.58-6.381-2.676-2.673-4.805-5.864-6.387-9.571A29.377 29.377 0 010 30.029c0-4.058.791-7.931 2.373-11.62 1.582-3.687 3.711-6.868 6.387-9.54 2.675-2.674 5.869-4.8 9.58-6.381A29.456 29.456 0 0130 .117c3.79 0 7.412.683 10.87 2.049a30.578 30.578 0 019.286 5.736L58.008.058C59.375.02 60.039.468 60 1.405l-.059 18.614z"/></symbol><symbol viewBox="0 0 19 18" id="repost" xmlns="http://www.w3.org/2000/svg"><path d="M.188 9.938h1.49a.188.188 0 00.188-.188V3.766h12.389v1.702a.194.194 0 00.316.155l3.359-2.637c.1-.117.084-.241 0-.31L14.57.043a.198.198 0 00-.319.155v1.701H1.68A1.683 1.683 0 000 3.581V9.75c0 .103.084.188.188.188zm17.625-1.875h-1.491a.188.188 0 00-.188.187v5.984H3.745v-1.702a.192.192 0 00-.042-.122.194.194 0 00-.274-.033L.07 15.014c-.1.117-.084.242 0 .31l3.359 2.634a.198.198 0 00.319-.155v-1.701h12.576c.926 0 1.68-.755 1.68-1.683V8.25a.195.195 0 00-.192-.187z"/></symbol><symbol viewBox="0 0 20 22" id="requests" xmlns="http://www.w3.org/2000/svg"><path d="M13.5 15.5V20h-12V2H9V.5H1.5A1.5 1.5 0 000 2v18a1.5 1.5 0 001.5 1.5h12A1.5 1.5 0 0015 20v-4.5h-1.5z"/><path d="M19.155 3.32L16.68.845a1.2 1.2 0 00-1.68 0l-10.5 10.5V15.5h4.148L19.148 5a1.2 1.2 0 000-1.68h.007zM8.025 14H6v-2.025l7.08-7.087 2.033 2.032L8.024 14zm8.145-8.137L14.137 3.83l1.703-1.702 2.032 2.032-1.702 1.703z"/></symbol><symbol viewBox="0 0 20 20" id="search" xmlns="http://www.w3.org/2000/svg"><path d="M19.319 18.027l-6.087-6.086a6.968 6.968 0 001.456-4.285c0-1.88-.734-3.642-2.06-4.97A6.98 6.98 0 007.655.624a6.99 6.99 0 00-4.97 2.06A6.975 6.975 0 00.624 7.656c0 1.878.734 3.645 2.06 4.971a6.975 6.975 0 004.971 2.06 6.97 6.97 0 004.282-1.453l6.087 6.085a.19.19 0 00.136.056.191.191 0 00.136-.056l1.022-1.02a.19.19 0 00.041-.21.191.191 0 00-.041-.062zm-7.95-6.658a5.222 5.222 0 01-3.713 1.537 5.222 5.222 0 01-3.712-1.537 5.222 5.222 0 01-1.538-3.713c0-1.401.546-2.72 1.538-3.712a5.222 5.222 0 013.712-1.538c1.402 0 2.721.544 3.713 1.538a5.222 5.222 0 011.537 3.712 5.218 5.218 0 01-1.537 3.713z"/></symbol><symbol viewBox="0 0 10 18" id="send-clock-bordered" xmlns="http://www.w3.org/2000/svg"><path d="M0 .667h10v5L6.667 9 10 12.334v5H0v-5L3.333 9 0 5.667v-5zM8.333 12.75L5 9.417 1.667 12.75v2.917h6.666V12.75zM5 8.584L8.333 5.25V2.334H1.667V5.25L5 8.584zM3.333 4h3.334v.625L5 6.292 3.333 4.625V4z"/></symbol><symbol viewBox="0 0 21 20" id="settings" xmlns="http://www.w3.org/2000/svg"><path d="M20.713 8.48l-2.233-.667a7.765 7.765 0 00-.633-1.553l1.093-2.047a.407.407 0 00-.073-.48l-1.594-1.6a.407.407 0 00-.48-.073L14.76 3.147a7.746 7.746 0 00-1.573-.667L12.52.273A.407.407 0 0012.127 0H9.873a.407.407 0 00-.386.287l-.667 2.2a7.754 7.754 0 00-1.587.666l-2-1.08a.407.407 0 00-.48.074l-1.62 1.58a.407.407 0 00-.073.48l1.08 2a7.73 7.73 0 00-.667 1.58l-2.206.666a.407.407 0 00-.287.387v2.253a.406.406 0 00.287.387l2.22.667c.165.54.388 1.061.666 1.553L3.06 15.793a.407.407 0 00.073.48l1.594 1.594a.406.406 0 00.48.073l2.06-1.1a7.768 7.768 0 001.533.627l.667 2.246a.407.407 0 00.386.287h2.254a.406.406 0 00.386-.287l.667-2.253a7.75 7.75 0 001.52-.627l2.073 1.107a.407.407 0 00.48-.073l1.594-1.594a.406.406 0 00.073-.48l-1.107-2.066a7.75 7.75 0 00.634-1.527l2.246-.667a.406.406 0 00.287-.386V8.873a.407.407 0 00-.247-.393zM11 13.667a3.667 3.667 0 110-7.334 3.667 3.667 0 010 7.334z"/></symbol><symbol viewBox="0 0 24 24" id="shield" xmlns="http://www.w3.org/2000/svg"><path d="M12 1L3 5v6c0 5.55 3.84 10.74 9 12 5.16-1.26 9-6.45 9-12V5l-9-4zm0 10.99h7c-.53 4.12-3.28 7.79-7 8.94V12H5V6.3l7-3.11v8.8z"/></symbol><symbol viewBox="0 0 20 20" id="shop" xmlns="http://www.w3.org/2000/svg"><path d="M18.672 4.377V1.375a.75.75 0 00-.75-.75H2.078a.75.75 0 00-.75.75v3.002a.75.75 0 00-.703.748v3.087a4.148 4.148 0 00.338 1.65c.1.239.225.464.365.677v8.086c0 .413.335.75.75.75H8.5V15.25h3v4.125h6.422a.75.75 0 00.75-.75v-8.086a4.189 4.189 0 00.703-2.327V5.125a.75.75 0 00-.703-.748zM16.984 17.69H13V14.5a.75.75 0 00-.75-.75h-4.5a.75.75 0 00-.75.75v3.19H3.016v-5.677a4.225 4.225 0 001.86.424 4.284 4.284 0 002.557-.848.015.015 0 01.015 0c.28.21.584.383.907.518.522.22 1.078.33 1.65.33a4.238 4.238 0 002.557-.848.015.015 0 01.014 0c.28.21.584.383.907.518.522.22 1.078.33 1.65.33a4.233 4.233 0 001.86-.424v5.677h-.009zm0-13.315H3.016V2.312h13.968v2.063z"/></symbol><symbol viewBox="0 0 20 20" id="smile" xmlns="http://www.w3.org/2000/svg"><path d="M10 0C4.486 0 0 4.486 0 10s4.486 10 10 10 10-4.486 10-10S15.514 0 10 0zm0 18c-4.411 0-8-3.589-8-8s3.589-8 8-8 8 3.589 8 8-3.589 8-8 8z"/><path d="M12.828 12.828a4.002 4.002 0 01-6.147-.592l-1.658 1.119a6.063 6.063 0 001.621 1.62c.65.44 1.38.746 2.148.903a6.043 6.043 0 002.415 0 5.972 5.972 0 003.034-1.634c.272-.271.52-.571.734-.889l-1.658-1.119c-.143.212-.307.41-.489.592zM6.5 10a1.5 1.5 0 100-3 1.5 1.5 0 000 3zm6.993-.014a1.493 1.493 0 100-2.986 1.493 1.493 0 000 2.986z"/></symbol><symbol viewBox="0 0 22 22" id="sold" xmlns="http://www.w3.org/2000/svg"><path d="M12 20v2H0v-2h12zM12.586.686l7.778 7.778L18.95 9.88l-1.06-.354L15.413 12l5.657 5.657-1.414 1.414L14 13.414l-2.404 2.404.283 1.132-1.415 1.414-7.778-7.778 1.415-1.414 1.13.282 6.294-6.293-.353-1.06L12.586.686z"/></symbol><symbol viewBox="0 0 32 24" id="speaker" xmlns="http://www.w3.org/2000/svg"><path d="M14.5 1.5L7 7.5H1v9h6l7.5 6v-21zm12.105-.105a15 15 0 010 21.21M21.311 6.69a7.5 7.5 0 010 10.605"/></symbol><symbol viewBox="0 0 20 18" id="switch" xmlns="http://www.w3.org/2000/svg"><path d="M15 17l-4-4m-6 0V1v12zM5 1L1 5l4-4zm0 0l4 4-4-4zm10 4v12V5zm0 12l4-4-4 4z"/></symbol><symbol viewBox="0 0 40 40" id="target" xmlns="http://www.w3.org/2000/svg"><path d="M20 28a8 8 0 100-16 8 8 0 000 16z"/><path d="M22 4.138V0h-4v4.138A16.02 16.02 0 004.138 18H0v4h4.138A16.016 16.016 0 0018 35.862V40h4v-4.138A16.014 16.014 0 0035.862 22H40v-4h-4.138A16.016 16.016 0 0022 4.138zM20 32c-6.618 0-12-5.382-12-12S13.382 8 20 8s12 5.382 12 12-5.382 12-12 12z"/></symbol><symbol viewBox="0 0 12 12" id="task" xmlns="http://www.w3.org/2000/svg"><path d="M3.6 0h4.8A3.6 3.6 0 0112 3.6v4.8A3.6 3.6 0 018.4 12H3.6A3.6 3.6 0 010 8.4V3.6A3.6 3.6 0 013.6 0zm3.6 5.4a.6.6 0 100 1.2H9a.6.6 0 100-1.2H7.2zM6 7.8A.6.6 0 106 9h3a.6.6 0 100-1.2H6zM6 3a.6.6 0 100 1.2h3A.6.6 0 109 3H6zM3.497 6.146l-.424-.424a.6.6 0 10-.849.848l.849.848a.6.6 0 00.849 0l1.696-1.696a.6.6 0 00-.848-.85L3.497 6.145z"/></symbol><symbol viewBox="0 0 18 20" id="trash-can" xmlns="http://www.w3.org/2000/svg"><path d="M17.25 4h-3V2.125c0-.827-.673-1.5-1.5-1.5h-7.5c-.827 0-1.5.673-1.5 1.5V4h-3a.75.75 0 00-.75.75v.75c0 .103.084.188.188.188h1.415l.579 12.257c.038.8.698 1.43 1.498 1.43h10.64c.802 0 1.46-.628 1.498-1.43l.579-12.258h1.416A.188.188 0 0018 5.5v-.75a.75.75 0 00-.75-.75zm-4.688 0H5.439V2.312h7.125V4z"/></symbol><symbol viewBox="0 0 22 24" id="trips" xmlns="http://www.w3.org/2000/svg"><path fill-rule="evenodd" clip-rule="evenodd" d="M15.224 5.983a.867.867 0 000-1.225L11.649.253a.867.867 0 00-1.226 0L6.847 4.758a.865.865 0 000 1.225h2.717v17.969h2.904V5.983h2.755z"/><path fill-rule="evenodd" clip-rule="evenodd" d="M20.773 7.512l-4.479.525a.688.688 0 00-.68.693l1.211 1.231-2.79 2.835v11.206h2.934v-9.963l1.935-1.96 1.355 1.38a.69.69 0 00.682-.692l.513-4.564a.687.687 0 00-.68-.691zM6.502 13.263a.695.695 0 00-.693-.693l-4.56-.524a.692.692 0 00-.694.692l.525 4.56c0 .384.31.695.693.695l1.326-1.325 1.97 2.433v4.796l2.85.078v-6.038l-2.726-3.366 1.31-1.308z"/></symbol><symbol viewBox="0 0 22 15" id="truck" xmlns="http://www.w3.org/2000/svg"><path d="M19 3h-5v6H1v3h1a3 3 0 006 0h6a3 3 0 006 0h2V7l-3-4zM5 13.5a1.5 1.5 0 110-3 1.5 1.5 0 010 3zm12 0a1.5 1.5 0 110-3 1.5 1.5 0 010 3zM16 7V4.5h2.5L20.46 7H16zm1-5h-4v6H2L.57 3H0V1h12l1-1h4v2z"/></symbol><symbol viewBox="0 0 20 20" id="unfollow" xmlns="http://www.w3.org/2000/svg"><path d="M5 9v2h10V9H5zm5-9C4.48 0 0 4.48 0 10s4.48 10 10 10 10-4.48 10-10S15.52 0 10 0zm0 18c-4.41 0-8-3.59-8-8s3.59-8 8-8 8 3.59 8 8-3.59 8-8 8z"/></symbol><symbol viewBox="0 0 18 20" id="user" xmlns="http://www.w3.org/2000/svg"><path d="M17.121 15.897a8.767 8.767 0 00-1.889-2.8 8.804 8.804 0 00-2.8-1.89c-.01-.005-.02-.007-.029-.012A5.812 5.812 0 009 .672a5.811 5.811 0 00-3.403 10.526l-.028.011a8.727 8.727 0 00-2.801 1.89 8.804 8.804 0 00-1.889 2.8 8.712 8.712 0 00-.691 3.237.187.187 0 00.187.192h1.406a.187.187 0 00.188-.183 6.988 6.988 0 012.058-4.788A6.985 6.985 0 019 12.297c1.88 0 3.645.731 4.973 2.06a6.988 6.988 0 012.058 4.788.186.186 0 00.188.183h1.406a.188.188 0 00.188-.192 8.736 8.736 0 00-.692-3.24zm-8.12-5.381a4.005 4.005 0 01-2.85-1.182 4.005 4.005 0 01-1.182-2.85 4.01 4.01 0 011.181-2.85A4.005 4.005 0 019 2.454c1.076 0 2.088.419 2.85 1.18a4.005 4.005 0 011.181 2.85 4.01 4.01 0 01-1.18 2.85A4.005 4.005 0 019 10.516z"/></symbol><symbol viewBox="0 0 20 12" id="users" xmlns="http://www.w3.org/2000/svg"><path fill-rule="evenodd" clip-rule="evenodd" d="M6 6a3 3 0 110-6 3 3 0 010 6zm8 0a3 3 0 110-6 3 3 0 010 6zM6 8a7.98 7.98 0 016 2.708V12H0v-1.292A7.98 7.98 0 016 8zm8 4V9.952l-.5-.567a10.06 10.06 0 00-1.25-1.193 8.028 8.028 0 015.042.514A7.98 7.98 0 0120 10.708V12h-6z"/></symbol><symbol viewBox="0 0 20 12" id="users-settigns" xmlns="http://www.w3.org/2000/svg"><path fill-rule="evenodd" clip-rule="evenodd" d="M6 6a3 3 0 110-6 3 3 0 010 6zm8 0a3 3 0 110-6 3 3 0 010 6zM6 8a7.98 7.98 0 016 2.708V12H0v-1.292A7.98 7.98 0 016 8zm8 4V9.952l-.5-.567a10.06 10.06 0 00-1.25-1.193 8.028 8.028 0 015.042.514A7.98 7.98 0 0120 10.708V12h-6z"/></symbol><symbol viewBox="0 0 20 14" id="video" xmlns="http://www.w3.org/2000/svg"><path d="M16 2c0-1.103-.897-2-2-2H2C.897 0 0 .897 0 2v10c0 1.103.897 2 2 2h12c1.103 0 2-.897 2-2V8.667L20 12V2l-4 3.333V2z"/></symbol><symbol viewBox="0 0 58 58" id="video-play" xmlns="http://www.w3.org/2000/svg"><path d="M29.004.5C13.284.5.504 13.28.504 29s12.78 28.5 28.5 28.5 28.5-12.78 28.5-28.5S44.724.5 29.004.5zm9.18 29.94l-13.44 8.94c-1.14.78-2.7-.06-2.7-1.44V20.06c0-1.38 1.56-2.22 2.7-1.44l13.44 8.94c1.02.66 1.02 2.22 0 2.88z"/></symbol><symbol viewBox="0 0 24 18" id="views-eye" xmlns="http://www.w3.org/2000/svg"><path d="M15.75 9a3.75 3.75 0 11-7.5 0 3.75 3.75 0 017.5 0z"/><path fill-rule="evenodd" clip-rule="evenodd" d="M0 9S4.5.75 12 .75 24 9 24 9s-4.5 8.25-12 8.25S0 9 0 9zm12 5.25a5.25 5.25 0 100-10.5 5.25 5.25 0 000 10.5z"/></symbol><symbol viewBox="0 0 20 18" id="wallet" xmlns="http://www.w3.org/2000/svg"><path d="M18 4V2c0-1.103-.897-2-2-2H3C1.346 0 0 1.346 0 3v12c0 2.201 1.794 3 3 3h15c1.103 0 2-.897 2-2V6c0-1.103-.897-2-2-2zm-2 9h-2V9h2v4zM3 4a1.001 1.001 0 010-2h13v2H3z"/></symbol></svg>