<svg width="583" height="423" viewBox="0 0 583 423" fill="none" xmlns="http://www.w3.org/2000/svg">
<path opacity="0.1" d="M574.595 127.498C574.494 127.973 574.398 128.448 574.286 128.917C570.789 145.054 565.074 160.604 556.577 174.884C556.295 175.359 556.012 175.833 555.724 176.308C550.121 185.496 543.417 193.964 535.761 201.524C531.528 205.706 526.912 209.68 521.421 212.545C513.729 216.567 504.736 218.199 495.897 219.533C486.718 220.925 477.41 222.088 468.129 223.342C464.831 223.779 461.553 224.243 458.294 224.734C449.328 226.062 440.426 227.599 431.736 229.636C420.995 232.149 410.584 235.44 400.749 240.071C399.963 240.426 399.187 240.803 398.419 241.201C397.652 241.586 396.879 241.975 396.122 242.37C395.365 242.764 394.618 243.159 393.877 243.565C393.494 243.773 393.11 243.981 392.731 244.199C392.353 244.418 391.98 244.61 391.612 244.824C390.503 245.442 389.416 246.077 388.328 246.717L388.285 246.744C387.566 247.165 386.857 247.597 386.153 248.03C382.134 250.473 378.2 253.023 374.266 255.588L371.792 257.189L367.959 259.669C367.213 260.155 366.451 260.64 365.699 261.12C365.166 261.472 364.633 261.824 364.052 262.187C361.259 263.947 358.428 265.676 355.523 267.324C354.835 267.719 354.142 268.114 353.444 268.498C347.574 271.775 341.436 274.544 335.095 276.777L335.01 276.809C331.82 277.922 328.566 278.841 325.265 279.561C323.362 279.977 321.454 280.319 319.524 280.58C314.366 281.312 309.135 281.386 303.958 280.799C293.793 279.62 284.267 275.715 274.106 274.398C253.188 271.73 232.873 280.324 213.203 287.056C208.366 288.71 203.493 290.259 198.586 291.702C195.323 292.668 192.05 293.58 188.75 294.46C168.534 299.805 147.901 303.426 127.074 305.284C118.367 306.138 109.609 306.332 100.873 305.865C97.552 305.663 94.2683 305.332 91.0432 304.799C80.0085 303.091 69.7202 299.512 61.4149 292.956C54.6129 287.574 49.7459 280.559 46.041 273.219C42.2485 265.729 39.5708 257.724 38.0929 249.459C37.8903 248.334 37.7091 247.203 37.5598 246.072C37.2933 244.137 37.0942 242.192 36.9628 240.236C36.2455 229.81 37.4895 219.343 40.6303 209.376C44.1486 198.217 50.0124 187.505 52.5925 176.26C52.6991 175.784 52.8004 175.309 52.8963 174.836C53.2487 173.128 53.5103 171.402 53.68 169.667C54.9967 155.851 49.9485 142.381 45.9877 128.869C45.8491 128.4 45.7105 127.925 45.5772 127.45C45.1508 125.949 44.7421 124.45 44.3512 122.953C40.6836 108.668 39.6654 93.3738 42.9332 79.1149C43.0345 78.6401 43.1571 78.1654 43.2744 77.6959C45.462 68.6827 49.5758 60.251 55.3325 52.9815C61.4522 45.3 69.4856 38.904 78.0681 33.2868C82.251 30.5485 86.576 27.9897 91.0432 25.6106C94.2416 23.9036 97.5182 22.2872 100.873 20.7616C127.767 8.49241 158.445 2.50185 188.782 3.82478C190.382 3.89413 191.981 3.97948 193.58 4.09684C195.179 4.2142 196.928 4.35289 198.602 4.50759C218.144 6.40665 237.159 10.9889 256.04 15.9979C262.368 17.6783 268.685 19.4013 274.997 21.0923C277.806 21.8391 280.61 22.586 283.419 23.3114C297.178 26.8695 311.139 30.0915 325.276 32.4973C328.549 33.0628 331.826 33.5784 335.106 34.0443C346.495 35.7193 357.976 36.6937 369.484 36.9622C373.958 37.0512 378.434 37.012 382.912 36.8449C385.172 36.7631 387.434 36.6404 389.698 36.4768C413.073 34.8285 435.665 29.3127 458.294 24.1596C461.567 23.4128 464.846 22.6767 468.129 21.9512C472.437 21.0016 476.744 20.0841 481.072 19.2359C508.009 13.9389 532.018 16.9848 557.062 27.9151C562.755 30.3956 568.443 33.3935 571.93 38.0505C575.416 42.7074 576.29 48.4259 576.941 53.9471C577.863 61.81 578.465 69.7743 578.694 77.7813C578.694 78.2507 578.694 78.7255 578.726 79.2002C579.089 95.3742 577.884 111.703 574.595 127.498Z" fill="#F8A441"/>
<path opacity="0.1" d="M395.92 174.884H394.16V175.513V176.308H396.154L395.92 174.884ZM375.967 174.884C375.964 174.896 375.964 174.909 375.967 174.921C375.919 175.311 375.865 175.7 375.812 176.095V176.201V176.308H391.058V176.223L392.124 174.884H375.967ZM335.106 174.884V128.917H352.645C352.458 128.794 352.266 128.666 352.069 128.549L351.813 128.384L351.482 128.181C351.291 128.069 351.099 127.957 350.896 127.85C350.693 127.744 350.571 127.669 350.4 127.578L350.283 127.514H350.256H335.106V124.98L334.696 125.14L334.264 125.343H334.232L334.142 125.391L333.87 125.535L333.598 125.679C333.331 125.823 333.065 125.983 332.798 126.149L332.542 126.319L332.009 126.661C331.322 127.119 330.645 127.6 329.946 128.048C329.77 128.16 329.594 128.272 329.413 128.373C329.035 128.597 328.645 128.81 328.246 129.002C328.075 129.088 327.91 129.163 327.713 129.232L327.425 129.344L327.158 129.435C326.533 129.652 325.891 129.82 325.239 129.936V174.873H298.943C298.943 174.927 298.98 174.969 298.996 175.023C299.14 175.449 299.284 175.871 299.422 176.298H325.276V225.566C325.412 225.566 325.545 225.566 325.676 225.566L326.14 225.593L326.977 225.641L328.315 225.801L328.928 225.86L329.594 225.929H329.696L330.874 226.073L331.124 226.105L331.695 226.185L332.51 226.302L334.467 226.217L334.733 226.265C334.84 226.265 334.952 226.297 335.064 226.318V176.308H375.759V176.201V176.095C375.812 175.7 375.865 175.311 375.913 174.921C375.911 174.909 375.911 174.896 375.913 174.884H335.106ZM395.92 174.884H394.16V175.513V176.308H396.154L395.92 174.884ZM374.868 174.884C374.804 175.359 374.746 175.833 374.682 176.308H391.682L392.838 174.884H374.868ZM335.106 174.884V128.917H352.645C352.458 128.794 352.266 128.666 352.069 128.549L351.813 128.384L351.482 128.181C351.291 128.069 351.099 127.957 350.896 127.85C350.693 127.744 350.571 127.669 350.4 127.578L350.283 127.514H350.246H335.106V124.98L334.696 125.14L334.264 125.343H334.232L334.142 125.391L333.87 125.535L333.598 125.679C333.331 125.823 333.065 125.983 332.798 126.149L332.542 126.319L332.009 126.661C331.322 127.119 330.645 127.6 329.946 128.048C329.77 128.16 329.594 128.272 329.413 128.373C329.035 128.597 328.645 128.81 328.246 129.002C328.075 129.088 327.91 129.163 327.713 129.232L327.425 129.344L327.158 129.435C326.533 129.652 325.891 129.82 325.239 129.936V174.873H298.943C298.943 174.927 298.98 174.969 298.996 175.023C299.14 175.444 299.289 175.871 299.428 176.298H325.276V225.561H325.676L326.14 225.588L326.977 225.636L328.315 225.801L328.928 225.86L329.594 225.929H329.696L330.874 226.073L331.124 226.105L331.695 226.185L332.51 226.302L334.467 226.217L334.733 226.265C334.84 226.265 334.952 226.297 335.064 226.318V176.308H374.692C374.756 175.833 374.815 175.359 374.879 174.884H335.106ZM468.13 79.1629H578.727C578.727 78.6882 578.727 78.2134 578.695 77.744H468.13V21.9352C464.846 22.6464 461.568 23.3826 458.295 24.1436V77.744H338.012L337.708 77.4719L338.166 77.0665L382.907 36.8342C378.429 37.0049 373.953 37.0441 369.479 36.9516L335.101 67.8593V34.0443C331.817 33.5785 328.541 33.0628 325.271 32.4973V66.3016L275.008 21.0923C268.696 19.4013 262.379 17.6783 256.051 15.998L324.408 77.4719L324.104 77.744H198.618V4.55561C196.944 4.39913 195.27 4.26222 193.596 4.14486C191.997 4.0275 190.398 3.94215 188.799 3.8728V77.744H100.873V20.8096C97.5542 22.3317 94.2775 23.948 91.0436 25.6586V77.744H43.2748C43.1575 78.2134 43.0349 78.6882 42.9336 79.1629H91.0436V127.498H45.5776C45.7109 127.973 45.8495 128.448 45.9881 128.917H91.0436V174.884H52.8968C52.8008 175.357 52.6995 175.832 52.5929 176.308H91.0436V304.831C94.242 305.327 97.5524 305.673 100.873 305.897V176.308H188.783V294.482C192.082 293.602 195.356 292.689 198.618 291.724V176.308H325.276V279.556C328.577 278.836 331.831 277.917 335.021 276.803L335.106 276.771V176.308H458.295V224.734C461.564 224.254 464.842 223.793 468.13 223.353V176.308H555.725C556.012 175.833 556.295 175.359 556.577 174.884H468.13V128.917H574.286C574.398 128.448 574.494 127.973 574.595 127.498H468.13V79.1629ZM100.873 79.1629H188.783V127.498H100.873V79.1629ZM100.873 174.884V128.917H188.783V174.884H100.873ZM198.618 79.1629H325.276V127.498H198.618V79.1629ZM198.618 174.884V128.917H325.276V174.884H198.618ZM458.295 174.884H335.106V128.917H458.295V174.884ZM458.295 127.498H335.106V80.4592L336.833 79.1629H458.295V127.498ZM375.967 174.884C375.964 174.896 375.964 174.909 375.967 174.921C375.919 175.311 375.865 175.7 375.812 176.095V176.201V176.308H391.058V176.223L392.124 174.884H375.967ZM395.92 174.884H394.16V175.513V176.308H396.154L395.92 174.884ZM335.106 174.884V128.917H352.645C352.458 128.794 352.266 128.666 352.069 128.549L351.813 128.384L351.482 128.181C351.291 128.069 351.099 127.957 350.896 127.85C350.693 127.744 350.571 127.669 350.4 127.578L350.283 127.514H350.256H335.106V124.98L334.696 125.14L334.264 125.343H334.232L334.142 125.391L333.87 125.535L333.598 125.679C333.331 125.823 333.065 125.983 332.798 126.149L332.542 126.319L332.009 126.661C331.322 127.119 330.645 127.6 329.946 128.048C329.77 128.16 329.594 128.272 329.413 128.373C329.035 128.597 328.645 128.81 328.246 129.002C328.075 129.088 327.91 129.163 327.713 129.232L327.425 129.344L327.158 129.435C326.533 129.652 325.891 129.82 325.239 129.936V174.873H298.943C298.943 174.927 298.98 174.969 298.996 175.023C299.14 175.449 299.284 175.871 299.422 176.298H325.276V225.566C325.412 225.566 325.545 225.566 325.676 225.566L326.14 225.593L326.977 225.641L328.315 225.801L328.928 225.86L329.594 225.929H329.696L330.874 226.073L331.124 226.105L331.695 226.185L332.51 226.302L334.467 226.217L334.733 226.265C334.84 226.265 334.952 226.297 335.064 226.318V176.308H375.759V176.201V176.095C375.812 175.7 375.865 175.311 375.913 174.921C375.911 174.909 375.911 174.896 375.913 174.884H335.106Z" fill="#F8A441"/>
<path opacity="0.1" d="M143.142 45.8867H143.905C143.653 45.7803 143.435 45.6093 143.271 45.391C143.107 45.1727 143.004 44.9149 142.972 44.6438C142.972 43.6622 144.438 42.8621 146.229 42.8621H169.023C170.814 42.8621 172.275 43.6622 172.275 44.6438C172.275 45.62 170.814 46.4255 169.023 46.4255H168.261C168.512 46.53 168.731 46.6998 168.895 46.9174C169.059 47.1349 169.162 47.3923 169.194 47.663C169.194 48.5006 168.128 49.2047 166.704 49.3914H173.266C175.052 49.3914 176.518 50.1916 176.518 51.1731C176.518 52.1546 175.052 52.9548 173.266 52.9548H150.467C148.681 52.9548 147.215 52.1493 147.215 51.1731C147.215 50.3356 148.281 49.6368 149.705 49.4447H143.142C141.351 49.4447 139.891 48.6446 139.891 47.663C139.891 46.6815 141.351 45.8867 143.142 45.8867Z" fill="#F8A441"/>
<path opacity="0.1" d="M390.189 62.8342H390.952C390.701 62.7271 390.484 62.5557 390.321 62.3375C390.158 62.1192 390.056 61.8618 390.024 61.5913C390.024 60.6097 391.485 59.8096 393.276 59.8096H416.07C417.861 59.8096 419.327 60.6097 419.327 61.5913C419.327 62.5675 417.861 63.3676 416.07 63.3676H415.313C415.563 63.4748 415.781 63.6461 415.944 63.8643C416.107 64.0826 416.209 64.34 416.241 64.6106C416.241 65.4481 415.174 66.1522 413.751 66.3389H420.313C422.104 66.3389 423.565 67.1391 423.565 68.1206C423.565 69.1022 422.104 69.9023 420.313 69.9023H397.519C395.728 69.9023 394.262 69.0968 394.262 68.1206C394.262 67.2831 395.328 66.579 396.751 66.3923H390.189C388.403 66.3923 386.938 65.5921 386.938 64.6106C386.938 63.629 388.403 62.8342 390.189 62.8342Z" fill="#F8A441"/>
<path opacity="0.1" d="M108.156 135.361H108.912C108.662 135.254 108.444 135.083 108.281 134.865C108.118 134.646 108.016 134.389 107.985 134.118C107.985 133.142 109.451 132.336 111.237 132.336H134.036C135.822 132.336 137.288 133.142 137.288 134.118C137.288 135.1 135.822 135.9 134.036 135.9H133.274C133.525 136.005 133.743 136.175 133.906 136.392C134.069 136.61 134.171 136.867 134.202 137.137C134.202 137.975 133.135 138.679 131.712 138.866H138.274C140.065 138.866 141.531 139.671 141.531 140.647C141.531 141.624 140.065 142.429 138.274 142.429H115.501C113.71 142.429 112.25 141.629 112.25 140.647C112.25 139.815 113.316 139.111 114.739 138.919H108.156C106.364 138.919 104.898 138.119 104.898 137.137C104.898 136.156 106.386 135.361 108.156 135.361Z" fill="#F8A441"/>
<path opacity="0.1" d="M537.362 325.455C541.191 306.705 494.309 281.282 432.647 268.672C370.986 256.063 317.895 261.04 314.066 279.791C310.237 298.541 357.119 323.964 418.781 336.574C480.442 349.184 533.533 344.206 537.362 325.455Z" fill="#F8A441"/>
<path d="M412.84 205.311C412.84 205.311 418.901 175.54 442.042 178.298C442.042 178.298 458.034 179.397 461.323 189.874V213.03L412.84 205.311Z" fill="#3A3768"/>
<path d="M539.567 216.343L333.497 199.246L307.051 204.762L308.703 241.703L310.505 241.922L312.557 297.394L514.769 333.781L536.262 315.585V255.45L539.013 253.834L539.567 216.343Z" fill="#D48A9B"/>
<path opacity="0.05" d="M539.845 216.343L539.291 253.833L516.976 264.31L516.699 225.161L539.845 216.343Z" fill="black"/>
<path opacity="0.05" d="M536.263 255.487L536.535 314.486L515.047 332.682L516.428 264.31L536.263 255.487Z" fill="black"/>
<path opacity="0.05" d="M310.783 244.13L516.593 269.261L516.699 264.492L310.629 242.252L310.783 244.13Z" fill="black"/>
<path opacity="0.05" d="M536.261 257.653V255.487L515.871 264.492V269.271L536.261 257.653Z" fill="black"/>
<path d="M306.773 204.762L333.219 199.246L539.29 216.343L516.149 225.161L306.773 204.762Z" fill="#EFC6CD"/>
<path opacity="0.1" d="M517.338 217.405L527.451 218.066L510.691 223.086L502.156 222.472L517.338 217.405Z" fill="black"/>
<path d="M517.338 216.962L527.451 217.623L510.691 222.648L502.156 222.03L517.338 216.962Z" fill="white"/>
<path d="M516.129 218.098C516.529 217.927 516.95 218.253 517.376 218.333C517.622 218.381 517.872 218.333 518.117 218.381C518.613 218.445 519.104 218.776 519.578 218.61" fill="#D3DAE1"/>
<path d="M515.605 218.402C516 218.231 516.426 218.552 516.853 218.637C517.098 218.68 517.349 218.637 517.594 218.68C518.09 218.749 518.58 219.08 519.054 218.914" fill="#D3DAE1"/>
<path d="M514.402 219.01C514.802 218.84 515.229 219.16 515.655 219.24C515.895 219.288 516.151 219.24 516.391 219.288C516.892 219.357 517.382 219.688 517.851 219.517" fill="#D3DAE1"/>
<path opacity="0.1" d="M473.627 212.422L483.74 213.089L466.98 218.109L458.445 217.49L473.627 212.422Z" fill="black"/>
<path d="M473.627 211.985L483.74 212.646L466.98 217.666L458.445 217.053L473.627 211.985Z" fill="white"/>
<path d="M472.414 213.121C472.814 212.95 473.235 213.27 473.661 213.356C473.907 213.398 474.157 213.356 474.402 213.398C474.898 213.468 475.389 213.798 475.863 213.633" fill="#D3DAE1"/>
<path d="M471.895 213.425C472.289 213.254 472.715 213.575 473.142 213.655C473.387 213.703 473.638 213.655 473.883 213.703C474.379 213.772 474.869 214.103 475.344 213.932" fill="#D3DAE1"/>
<path d="M470.688 214.028C471.087 213.857 471.514 214.183 471.94 214.263C472.18 214.311 472.436 214.263 472.676 214.311C473.177 214.375 473.667 214.711 474.136 214.54" fill="#D3DAE1"/>
<path opacity="0.1" d="M494.592 214.914L504.71 215.575L487.95 220.6L479.41 219.981L494.592 214.914Z" fill="black"/>
<path d="M494.592 214.476L504.71 215.138L487.95 220.157L479.41 219.538L494.592 214.476Z" fill="white"/>
<path d="M493.383 215.612C493.783 215.442 494.209 215.762 494.636 215.842C494.875 215.89 495.126 215.842 495.371 215.89C495.867 215.954 496.363 216.29 496.832 216.119" fill="#D3DAE1"/>
<path d="M492.859 215.911C493.259 215.74 493.686 216.066 494.112 216.146C494.352 216.194 494.603 216.146 494.848 216.194C495.343 216.258 495.839 216.594 496.308 216.423" fill="#D3DAE1"/>
<path d="M491.66 216.519C492.055 216.348 492.481 216.668 492.908 216.754C493.153 216.796 493.403 216.754 493.649 216.796C494.144 216.866 494.635 217.197 495.109 217.031" fill="#D3DAE1"/>
<path opacity="0.1" d="M265.644 422.156C325.256 422.156 373.581 412.201 373.581 399.922C373.581 387.642 325.256 377.688 265.644 377.688C206.032 377.688 157.707 387.642 157.707 399.922C157.707 412.201 206.032 422.156 265.644 422.156Z" fill="#F8A441"/>
<path d="M383.84 217.847C382.689 207.723 378.131 198.062 378.131 198.062L378.478 194.648C378.478 194.648 378.552 192.941 378.44 190.38C378.453 188.782 378.662 187.191 379.064 185.643C379.997 182.683 377.897 179.045 377.662 178.709C377.428 178.373 377.779 171.881 375.679 168.696C373.579 165.511 359.591 159.59 359.591 159.59C359.591 159.59 358.839 158.016 357.778 156.176L357.874 155.989C357.006 154.414 355.931 152.962 354.676 151.674C353.818 150.756 352.991 150.233 352.325 150.49C352.054 149.604 351.847 148.7 351.707 147.785C351.845 147.822 351.989 147.86 352.128 147.886C352.705 148.02 353.304 148.035 353.887 147.929C355.188 147.636 356.051 146.467 356.776 145.368C360.391 139.874 363.504 133.846 364.138 127.343C364.309 126.016 364.245 124.669 363.951 123.364C363.652 122.349 363.233 121.373 362.704 120.457C361.77 118.576 360.586 116.83 359.186 115.266C356.696 112.642 353.263 111.036 349.734 110.087C345.759 109.017 341.617 108.707 337.527 109.174C336.461 109.297 335.395 109.473 334.329 109.542C332.976 109.602 331.621 109.579 330.272 109.473L323.294 109.068L323.262 108.961L322.1 108.892C321.641 109.804 322.1 110.887 322.67 111.74C323.241 112.594 323.896 113.485 323.848 114.493C323.8 115.501 323.07 116.312 322.5 117.16C321.929 118.008 321.497 119.118 322.068 119.95C322.148 120.065 322.243 120.169 322.35 120.259C322.953 120.883 324.003 120.953 324.914 120.942H325.074C322.779 123.968 321.537 127.663 321.54 131.462C321.555 134.708 322.463 137.887 324.164 140.652C325.865 143.416 328.294 145.659 331.183 147.134C331.285 147.481 331.386 147.838 331.482 148.201C332.539 151.948 332.918 155.854 332.601 159.734L332.479 160.001L332.404 159.718C332.404 159.718 324.184 165.298 321.743 166.776C319.301 168.253 316.849 173.262 316.732 174.628C316.614 175.993 312.766 196.59 312.766 196.59C311.983 198.664 311.339 200.789 310.836 202.948L305.926 207.264C305.926 207.264 295.798 208.176 292.866 207.493L292.951 208.059C290.366 207.468 287.732 207.111 285.083 206.992C283.636 206.806 282.166 207.002 280.818 207.563L280.717 207.611L280.637 207.648C279.094 207.859 277.587 208.283 276.159 208.907C275.989 208.976 275.834 209.046 275.685 209.115L275.717 208.416L264.757 207.851L259.16 206.714C259.16 206.714 257.177 205.114 256.009 205.349C254.842 205.583 252.395 203.983 252.395 203.983C251.837 203.545 251.233 203.17 250.593 202.863C250.407 201.572 250.289 200.788 250.289 200.788C250.289 200.788 245.934 183.494 242.672 173.326C240.486 166.535 237.341 163.191 235.486 161.734C234.66 160.294 234.116 159.366 234.116 159.366C233.759 158.118 231.797 155.307 231.296 155.237C231.216 155.109 231.157 155.045 231.125 155.045C231.018 155.034 230.91 155.05 230.811 155.093C229.894 150.527 229.361 144.803 230.763 139.815C232.682 138.237 234.229 136.254 235.292 134.007C236.356 131.761 236.91 129.307 236.914 126.821C236.914 126.746 236.914 126.671 236.914 126.597C236.914 126.522 236.914 126.442 236.914 126.367C236.913 122.403 235.51 118.567 232.954 115.538L232.772 115.336C232.821 115.301 232.867 115.264 232.911 115.224C233.312 114.899 233.617 114.471 233.794 113.986C233.972 113.502 234.015 112.978 233.919 112.471C233.679 111.447 232.879 110.641 232.469 109.67C232.222 108.923 232.024 108.16 231.877 107.387C231.563 106.289 230.987 105.284 230.198 104.459L230.278 104.672C228.188 102.32 224.595 101.151 221.359 101.674C218.955 102.058 216.716 103.178 214.301 103.525C212.569 103.771 210.804 103.611 209.061 103.787C207.444 103.953 205.87 104.408 204.413 105.131C204.032 105.293 203.695 105.541 203.427 105.856C203.179 106.279 203.012 106.744 202.936 107.227C202.345 109.388 200.468 110.929 199.109 112.732C197.556 114.792 196.657 117.271 196.529 119.849C196.476 120.504 196.539 121.163 196.715 121.796C196.833 122.174 197.014 122.532 197.099 122.916C197.366 124.089 196.753 125.258 196.454 126.421C196.078 127.904 196.211 129.471 196.833 130.87C198.938 135.585 205.852 137.159 207.292 142.109C208.393 142.616 209.556 142.974 210.751 143.176C210.847 143.667 210.932 144.163 211.002 144.664C210.969 144.678 210.939 144.696 210.911 144.718C209.045 146.537 208.582 150.052 208.582 150.052L208.358 150.233C207.595 150.863 204.989 152.975 202.632 154.602C199.834 156.539 195.169 163.025 191.907 164.962C188.645 166.898 185.958 178.831 186.662 183.168C187.365 187.505 190.276 199.668 189.108 204.106C187.941 208.544 190.857 228.799 190.857 228.799C192.814 229.172 194.728 229.74 196.571 230.495L196.513 231.381L196.337 234.048C196.337 234.048 191.054 253.167 193.074 267.884C195.095 282.602 192.142 284.117 192.142 284.117C192.142 284.117 192.76 290.641 191.209 292.919C189.657 295.197 189.343 300.2 189.343 300.2C189.343 300.2 189.188 311.429 189.497 314.603C189.807 317.777 189.961 323.56 188.874 324.925C187.786 326.291 185.766 335.237 185.921 337.968C186.075 340.699 182.034 346.924 184.209 354.963C186.384 363.002 177.812 363.157 177.812 363.157C177.812 363.157 178.905 375.426 181.235 378.936L181.576 379.438C181.517 379.641 181.459 379.854 181.395 380.083C180.515 383.284 179.31 388.336 180.147 389.557C181.389 391.382 182.013 391.072 182.013 391.072L182.477 399.266C182.477 399.266 191.806 407.155 198.96 406.857C206.113 406.558 204.711 399.266 204.711 399.266L198.618 383.455L198.41 382.921L205.181 370.119C205.181 370.119 207.046 364.507 207.51 362.533C207.974 360.559 210.506 353.566 210.506 353.566C210.506 353.566 216.903 338.395 217.036 336.57C217.169 334.746 217.66 324.893 218.902 322.914C220.144 320.935 223.566 309.578 223.566 309.578L223.652 309.653C224.232 310.224 224.647 310.941 224.852 311.73C225.056 312.518 225.043 313.347 224.814 314.128C224.03 317.009 224.499 322.925 224.499 322.925C224.499 322.925 224.19 327.934 223.566 330.516C222.943 333.098 222.793 354.185 223.881 359.188C224.75 363.194 224.723 370.695 224.68 373.533C223.95 376.547 223.31 380.291 224.499 380.734C226.525 381.497 236.787 381.342 236.787 381.342C236.787 381.342 241.136 379.822 247.048 385.135C252.96 390.448 271.143 383.62 271.143 383.62C271.143 383.62 276.74 382.1 265.7 377.704C257.998 374.637 253.024 372.594 249.772 370.407C249.847 370.263 249.927 370.119 249.996 369.964C249.996 369.964 245.486 365.696 249.218 358.132C252.949 350.568 252.795 344.172 252.795 344.172L253.418 318.679L251.553 284.837L250.108 249.32L250.364 249.235C250.609 255.764 251.883 271.309 258.552 268.295C266.948 264.502 259.794 254.639 259.794 254.639L256.025 247.288L257.15 246.904L252.933 233.269C252.529 230.608 252.475 227.905 252.773 225.23C252.857 223.665 252.825 222.096 252.677 220.536C258.2 219.57 263.488 218.546 264.437 218.781C265.557 219.053 271.82 219.106 274.283 219.117C273.478 219.746 272.833 220.371 272.833 220.371L282.86 227.124C282.86 227.124 286.261 225.262 286.97 223.288C287.668 223.112 288.312 222.768 288.847 222.286C288.953 224.617 289.572 227.14 291.725 227.199C292.264 227.21 292.798 227.104 293.292 226.889L309.69 223.641L308.282 232.437L309.263 234.181C308.768 241.602 308.197 249.48 307.696 256.41L307.467 257.925L307.584 257.952C306.806 268.62 306.182 276.702 306.182 276.702C307.101 274.951 308.526 273.517 310.271 272.589L310.377 288.422C310.377 288.422 311.198 313.456 311.198 316.87C311.198 320.284 311.31 327.907 311.31 327.907C311.31 327.907 313.064 337.237 314.109 340.31C315.154 343.382 315.975 357.38 315.975 357.38C315.975 357.38 318.427 361.247 317.377 362.714C316.327 364.181 321.46 367.377 321.46 367.377C321.46 367.377 318.192 371.815 317.958 374.776C317.931 375.117 318.267 375.48 318.875 375.842C318.683 375.997 318.486 376.152 318.267 376.301C316.753 377.315 314.535 378.019 311.198 377.731C302.099 376.931 295.686 385.354 301.283 387.061C306.88 388.768 323.672 389.109 323.672 389.109C323.672 389.109 328.758 385.935 332.735 387.365C332.676 390.704 332.841 393.766 332.868 394.171L332.82 394.209C330.442 396.343 325.89 400.013 321.444 401.512C315.047 403.672 313.629 412.437 321.908 413.573C330.186 414.709 342.314 412.207 342.314 412.207C342.314 412.207 348.61 407.545 353.391 406.521C358.173 405.496 362.256 403.219 361.441 400.487C360.908 398.743 359.538 394.171 358.61 391.099C358.557 390.914 358.503 390.736 358.45 390.565C358.594 390.245 358.738 389.915 358.871 389.573C358.871 389.573 356.424 376.829 358.407 373.645C360.391 370.46 359.34 338.592 359.34 338.592C359.34 338.592 355.955 330.516 357.709 325.624C359.463 320.732 354.911 313.787 354.911 313.787C354.911 313.787 355.406 299.869 356.739 292.113C356.799 291.783 356.858 291.462 356.915 291.153C359.146 290.49 361.321 289.65 363.418 288.641C363.418 288.641 364.586 271.112 365.284 267.132C365.353 266.759 365.449 266.156 365.567 265.372L366.1 262.561L366.729 259.36L368.861 248.451L372.71 243.469L382.625 233.333C382.625 233.333 385.008 227.977 383.84 217.847ZM230.933 155.259L230.859 155.312C230.847 155.273 230.838 155.234 230.832 155.194C230.863 155.22 230.897 155.241 230.933 155.259ZM328.896 167.682L328.513 168.52L329.915 167.122L328.012 169.256L328.651 167.912L328.896 167.682ZM319.429 187.26C319.061 188.236 318.667 189.292 318.256 190.391L319.008 188.145L319.429 187.26Z" fill="url(#paint0_linear)"/>
<path d="M288.838 219.176C288.838 219.176 287.532 227.876 291.45 227.988C295.368 228.1 297.985 221.277 297.985 221.277L296.386 215.82L288.838 219.176Z" fill="#585B8A"/>
<path opacity="0.2" d="M288.838 219.176C288.838 219.176 287.532 227.876 291.45 227.988C295.368 228.1 297.985 221.277 297.985 221.277L296.386 215.82L288.838 219.176Z" fill="black"/>
<path d="M201.074 407.502C194.102 407.806 185.007 399.922 185.007 399.922L184.554 391.734C184.554 391.734 183.952 392.038 182.736 390.219C181.921 388.997 183.094 383.935 183.952 380.75C184.368 379.193 184.709 378.083 184.709 378.083L200.008 382.18L200.738 384.116L206.677 399.917C206.677 399.917 208.041 407.198 201.074 407.502Z" fill="#636992"/>
<path d="M271.373 384.308C271.373 384.308 253.648 391.131 247.917 385.823C242.187 380.515 237.917 382.03 237.917 382.03C237.917 382.03 227.916 382.185 225.944 381.422C224.782 380.979 225.411 377.187 226.136 374.167C226.626 372.082 227.159 370.359 227.159 370.359C227.159 370.359 244.58 364.443 247.31 368.081C248.129 369.15 249.109 370.085 250.215 370.855C253.371 373.138 258.302 375.208 266.101 378.392C276.826 382.788 271.373 384.308 271.373 384.308Z" fill="#636992"/>
<path d="M255.467 245.725L260.313 255.428C260.313 255.428 267.285 265.286 259.103 269.074C250.92 272.861 251.074 247.245 251.074 247.245L255.467 245.725Z" fill="#FFD6D6"/>
<path d="M235.16 161.58C235.16 161.58 240.464 164.007 243.647 174.164C246.829 184.321 251.072 201.609 251.072 201.609C251.072 201.609 253.951 221.165 253.493 226.02C253.201 228.693 253.253 231.393 253.647 234.053L257.736 247.699L249.553 250.579L236.978 202.367L235.16 161.58Z" fill="#DCE6F2"/>
<path opacity="0.05" d="M235.16 161.58C235.16 161.58 240.464 164.007 243.647 174.164C246.829 184.321 251.072 201.609 251.072 201.609C251.072 201.609 253.951 221.165 253.493 226.02C253.201 228.693 253.253 231.393 253.647 234.053L257.736 247.699L249.553 250.579L236.978 202.367L235.16 161.58Z" fill="black"/>
<path opacity="0.1" d="M200.01 382.185L200.74 384.121L199.844 385.834C196.358 387.349 187.722 386.138 187.722 386.138C187.722 386.138 186.123 384.105 183.938 380.761C184.353 379.203 184.694 378.094 184.694 378.094L200.01 382.185Z" fill="black"/>
<path opacity="0.1" d="M250.767 371.569C246.348 381.588 231.326 377.869 227.152 376.616C226.464 376.408 226.086 376.269 226.086 376.269C226.086 376.269 226.113 375.453 226.123 374.167C226.614 372.082 227.147 370.359 227.147 370.359C227.147 370.359 244.568 364.443 247.297 368.081C248.117 369.15 249.097 370.085 250.202 370.855C250.369 371.109 250.558 371.348 250.767 371.569Z" fill="black"/>
<path d="M250.005 358.836C246.369 366.411 250.767 370.663 250.767 370.663C246.348 380.675 231.326 376.963 227.152 375.704C226.464 375.501 226.086 375.362 226.086 375.362C226.086 375.362 226.39 364.896 225.329 359.893C224.268 354.889 224.417 333.818 225.025 331.241C225.633 328.665 225.931 323.656 225.931 323.656C225.931 323.656 225.478 317.745 226.235 314.865C226.463 314.086 226.478 313.261 226.279 312.475C226.081 311.689 225.675 310.971 225.105 310.394L225.025 310.314C225.025 310.314 221.693 321.687 220.478 323.65C219.262 325.613 218.815 335.477 218.66 337.296C218.505 339.115 212.295 354.281 212.295 354.281C212.295 354.281 209.875 361.253 209.422 363.221C208.969 365.19 207.146 370.807 207.146 370.807L199.842 384.911C196.356 386.426 187.72 385.215 187.72 385.215C187.72 385.215 186.057 383.081 183.781 379.603C181.505 376.125 180.449 363.84 180.449 363.84C180.449 363.84 188.781 363.685 186.66 355.652C184.538 347.618 188.477 341.398 188.328 338.667C188.179 335.936 190.146 326.995 191.207 325.629C192.267 324.264 192.113 318.503 191.809 315.318C191.505 312.133 191.66 300.915 191.66 300.915C191.66 300.915 191.964 295.911 193.478 293.639C194.991 291.366 194.389 284.842 194.389 284.842C194.389 284.842 197.262 283.327 195.295 268.62C193.328 253.913 198.494 234.811 198.494 234.811L198.67 232.144L198.947 227.823C198.947 227.823 242.281 225.092 245.767 228.426C246.678 229.351 247.426 230.424 247.979 231.6C249.172 234.165 250.015 236.88 250.485 239.671L252.302 285.611L254.12 319.42L253.512 344.892C253.512 344.892 253.646 351.251 250.005 358.836Z" fill="#565988"/>
<path opacity="0.1" d="M237.159 268.167L232.612 366.715L227.153 375.698C226.465 375.496 226.087 375.357 226.087 375.357C226.087 375.357 226.391 364.891 225.33 359.887C224.269 354.883 224.418 333.812 225.026 331.236C225.634 328.659 225.932 323.65 225.932 323.65C225.932 323.65 225.479 317.74 226.236 314.859C226.464 314.081 226.479 313.256 226.28 312.47C226.082 311.684 225.676 310.965 225.106 310.389L225.18 309.856L237.159 268.167Z" fill="black"/>
<path opacity="0.1" d="M188.193 373.997C188.193 373.997 200.011 369.297 201.829 370.796C203.647 372.295 187.895 374.583 187.895 374.583L188.193 373.997Z" fill="black"/>
<path opacity="0.1" d="M246.527 361.562C246.073 361.717 234.559 365.83 235.62 370.204C236.681 374.578 246.527 361.562 246.527 361.562Z" fill="black"/>
<path d="M210.543 137.249C210.543 137.249 214.402 146.574 212.361 151.354C210.319 156.133 234.403 164.316 234.403 164.316C234.403 164.316 227.361 146.121 234.18 135.884C240.998 125.647 210.543 137.249 210.543 137.249Z" fill="#FFD6D6"/>
<path d="M351.563 407.198C346.903 408.222 340.768 412.885 340.768 412.885C340.768 412.885 328.95 415.387 320.879 414.25C312.808 413.114 314.178 404.355 320.426 402.194C324.76 400.701 329.2 397.015 331.519 394.902C332.542 393.958 333.15 393.302 333.15 393.302L355.768 388.752C355.768 388.752 356.136 390.016 356.648 391.76C357.554 394.838 358.892 399.405 359.404 401.144C360.198 403.902 356.222 406.174 351.563 407.198Z" fill="#505484"/>
<path d="M345.769 389.685C345.769 389.685 336.222 390.709 332.245 388.437C328.268 386.164 322.586 389.802 322.586 389.802C322.586 389.802 306.22 389.461 300.767 387.754C295.314 386.047 301.561 377.619 310.426 378.429C313.657 378.723 315.842 378.013 317.319 377C318.861 375.942 319.936 374.329 320.32 372.498L339.511 373.634L342.176 380.441L345.769 389.685Z" fill="#505484"/>
<path opacity="0.1" d="M342.467 383.545C342.467 383.545 320.163 379.896 317.316 377C318.859 375.942 319.934 374.329 320.318 372.498L339.508 373.634L342.174 380.441L342.467 383.545Z" fill="black"/>
<path d="M309.402 255.85L309.632 289.163C309.632 289.163 310.426 314.182 310.426 317.596C310.426 321.01 310.538 328.622 310.538 328.622C310.538 328.622 312.244 337.947 313.267 341.019C314.291 344.092 315.085 358.09 315.085 358.09C315.085 358.09 317.473 361.957 316.45 363.424C315.426 364.891 320.426 368.086 320.426 368.086C320.426 368.086 317.228 372.525 317.02 375.48C316.812 378.435 342.469 382.633 342.469 382.633L332.474 280.068L324.515 254.372L309.402 255.85Z" fill="#575988"/>
<path opacity="0.1" d="M309.402 255.85L309.632 289.163C309.632 289.163 310.426 314.182 310.426 317.596C310.426 321.01 310.538 328.622 310.538 328.622C310.538 328.622 312.244 337.947 313.267 341.019C314.291 344.092 315.085 358.09 315.085 358.09C315.085 358.09 317.473 361.957 316.45 363.424C315.426 364.891 320.426 368.086 320.426 368.086C320.426 368.086 317.228 372.525 317.02 375.48C316.812 378.435 342.469 382.633 342.469 382.633L332.474 280.068L324.515 254.372L309.402 255.85Z" fill="black"/>
<path opacity="0.1" d="M356.649 391.787C349.223 409.503 331.562 395.83 331.562 395.83C331.562 395.83 331.562 395.489 331.52 394.902C332.543 393.958 333.151 393.302 333.151 393.302L355.769 388.752C355.769 388.752 356.137 390.043 356.649 391.787Z" fill="black"/>
<path d="M356.905 390.256C349.628 408.926 331.562 394.918 331.562 394.918C331.562 394.918 330.992 385.252 332.133 380.819C333.273 376.386 330.88 363.077 330.88 363.077C330.88 363.077 329.515 351.251 328.268 348.525C327.02 345.799 327.132 340.336 327.132 339.883C327.132 339.429 327.586 335.786 326.562 333.284C325.539 330.782 324.963 324.642 324.963 324.642C324.963 324.642 324.963 316.001 323.939 310.885L320.416 293.281L314.051 257.231L316.039 256.89L351.665 250.638C351.665 250.638 358.371 284.778 356.094 288.278C355.604 289.046 355.172 290.726 354.815 292.892C353.514 300.638 353.029 314.544 353.029 314.544C353.029 314.544 357.459 321.479 355.759 326.371C354.058 331.262 357.358 339.333 357.358 339.333C357.358 339.333 358.381 371.175 356.446 374.359C354.511 377.544 356.905 390.256 356.905 390.256Z" fill="#575988"/>
<path d="M353.493 157.488C353.493 157.488 321.221 180.229 328.492 168.856C332.41 162.732 331.691 154.933 330.155 149.044C329.379 146.048 328.308 143.138 326.957 140.354C326.957 140.354 354.378 128.682 350.743 139.143C349.891 141.58 349.529 144.162 349.677 146.739C349.894 150.614 351.219 154.345 353.493 157.488Z" fill="#D28690"/>
<path d="M295.387 209.568C295.387 209.568 281.751 205.626 279.48 209.494C277.209 213.361 280.162 221.848 284.278 223.214C288.393 224.579 297.839 218.589 297.839 218.589L295.387 209.568Z" fill="#D28690"/>
<path d="M310.997 202.863L305.314 208.096C305.314 208.096 295.426 209.003 292.585 208.32C292.585 208.32 295.202 225.833 291.449 227.993L314.403 223.331L310.997 202.863Z" fill="#585B8A"/>
<path opacity="0.1" d="M310.997 202.863L305.314 208.096C305.314 208.096 295.426 209.003 292.585 208.32C292.585 208.32 295.202 225.833 291.449 227.993L314.403 223.331L310.997 202.863Z" fill="black"/>
<path opacity="0.1" d="M238.04 127.695C238.04 132.223 236.243 136.565 233.044 139.766C229.845 142.967 225.506 144.766 220.982 144.766C212.229 140.557 203.923 137.132 203.923 127.695C203.833 125.399 204.206 123.107 205.022 120.959C205.838 118.81 207.079 116.848 208.67 115.191C210.262 113.534 212.172 112.216 214.285 111.315C216.398 110.415 218.672 109.951 220.969 109.951C223.265 109.951 225.539 110.415 227.652 111.315C229.765 112.216 231.675 113.534 233.267 115.191C234.858 116.848 236.099 118.81 236.915 120.959C237.731 123.107 238.104 125.399 238.014 127.695H238.04Z" fill="black"/>
<path d="M238.037 127.237C238.04 131.251 236.626 135.138 234.044 138.211C231.463 141.284 227.88 143.346 223.928 144.034C219.975 144.722 215.907 143.991 212.44 141.97C208.974 139.949 206.332 136.769 204.98 132.989C203.628 129.209 203.654 125.073 205.052 121.31C206.45 117.547 209.131 114.399 212.622 112.421C216.113 110.443 220.189 109.762 224.133 110.498C228.077 111.235 231.634 113.341 234.178 116.445C236.669 119.49 238.032 123.302 238.037 127.237Z" fill="#FFD6D6"/>
<path opacity="0.1" d="M247.978 231.615C246.291 232.664 244.525 233.581 242.696 234.357C242.696 234.357 234.06 233.104 232.812 234.581C231.565 236.059 220.552 236.63 220.552 236.63C220.552 236.63 203.733 235.835 201.233 233.674C200.46 233.048 199.6 232.538 198.68 232.159L198.957 227.839C198.957 227.839 242.291 225.107 245.777 228.441C246.684 229.368 247.429 230.441 247.978 231.615Z" fill="black"/>
<path d="M250.088 228.559C249.747 230.49 242.7 233.445 242.7 233.445C242.7 233.445 234.064 232.197 232.817 233.675C231.569 235.152 220.556 235.723 220.556 235.723C220.556 235.723 203.738 234.923 201.237 232.762C198.737 230.602 193.167 229.562 193.167 229.562C193.167 229.562 190.325 209.323 191.466 204.89C192.607 200.457 189.76 188.284 189.078 183.963C188.396 179.642 191.008 167.704 194.19 165.773C197.373 163.842 201.92 157.355 204.644 155.424C206.941 153.797 209.479 151.69 210.22 151.055L210.438 150.874C210.438 150.874 210.897 147.348 212.714 145.539C214.532 143.731 231.233 157.024 231.233 157.024C231.233 157.024 231.351 158.048 232.486 156.117C232.742 155.685 234.944 158.865 235.327 160.209C235.327 160.209 244.416 176.132 244.987 179.413C245.557 182.693 247.94 193.4 248.393 196.014C248.51 196.686 248.702 199.043 248.926 202.201C248.969 202.82 249.006 203.476 249.054 204.159C249.39 209.398 249.752 216.087 249.971 221.144C249.971 221.72 250.019 222.275 250.035 222.808C250.15 224.723 250.168 226.642 250.088 228.559Z" fill="#DCE6F2"/>
<path opacity="0.1" d="M192.383 187.505C192.383 187.505 198.63 195.123 200.677 195.123C202.724 195.123 192.383 187.505 192.383 187.505Z" fill="black"/>
<path opacity="0.1" d="M205.541 203.882C205.541 203.882 195.311 215.025 196.676 217.074C198.041 219.122 205.541 203.882 205.541 203.882Z" fill="black"/>
<path opacity="0.1" d="M198.043 226.057C198.043 226.057 209.771 213.206 210.304 208.773L198.043 226.057Z" fill="black"/>
<path opacity="0.1" d="M212.812 226.964C212.812 226.964 226.337 219.8 227.472 214.113C228.608 208.427 212.812 226.964 212.812 226.964Z" fill="black"/>
<path opacity="0.1" d="M229.974 157.83L228.098 162.375L231.221 163.852L234.292 172.441C234.292 172.441 242.757 189.383 242.416 198.195C242.075 207.008 243.951 220.253 243.951 220.253L248.834 219.346L246.531 193.426C246.173 189.413 245.168 185.484 243.557 181.792C239.655 172.851 232.394 156.347 231.936 156.347C231.312 156.347 231.749 156.576 231.749 156.576L229.974 157.83Z" fill="black"/>
<path d="M230.427 157.371L228.551 161.921L231.68 163.399L234.745 171.987C234.745 171.987 243.21 188.929 242.869 197.742C242.528 206.554 244.404 219.8 244.404 219.8L249.293 218.893L246.985 192.973C246.63 188.96 245.627 185.03 244.015 181.339C240.113 172.393 232.853 155.893 232.4 155.893C231.771 155.893 232.208 156.123 232.208 156.123L230.427 157.371Z" fill="#575989"/>
<path d="M285.764 224.201C283.386 224.019 277.682 221.133 275.417 219.933L274.457 219.4L274.574 210.592C275.135 210.263 275.715 209.969 276.312 209.712C279.34 208.389 285.55 206.592 288.663 212.38C292.864 220.141 288.775 224.403 285.764 224.201Z" fill="#FFD6D6"/>
<path opacity="0.1" d="M234.178 116.445C233.934 116.598 233.665 116.708 233.384 116.771C231.406 117.203 229.157 115.501 227.461 116.595C226.427 117.267 226.187 118.659 226.049 119.886C225.807 122.02 225.565 124.139 225.324 126.244C225.273 126.994 225.115 127.732 224.855 128.437C224.018 130.352 221.72 131.254 219.625 131.222C218.804 131.28 217.994 131.012 217.37 130.475C217.002 130.101 216.805 129.579 216.4 129.237C213.735 127.002 212.924 132.48 213.628 134.038C214.758 136.583 218.772 139.036 217.088 142.269C216.804 142.794 216.375 143.226 215.851 143.512C213.312 142.716 210.995 141.338 209.084 139.486C207.173 137.635 205.721 135.362 204.844 132.849C203.967 130.335 203.69 127.652 204.034 125.012C204.378 122.373 205.335 119.85 206.827 117.647C208.319 115.443 210.306 113.619 212.628 112.321C214.95 111.022 217.543 110.285 220.201 110.168C222.858 110.052 225.506 110.558 227.933 111.648C230.36 112.738 232.499 114.381 234.178 116.445Z" fill="black"/>
<path d="M215.949 129.216C216.349 129.552 216.551 130.075 216.919 130.448C217.543 130.984 218.354 131.253 219.174 131.195C221.269 131.227 223.567 130.331 224.398 128.405C224.664 127.703 224.823 126.966 224.873 126.218L225.598 119.859C225.736 118.632 225.971 117.24 227.01 116.568C228.706 115.501 230.955 117.176 232.933 116.744C233.646 116.563 234.263 116.116 234.659 115.496C235.055 114.876 235.2 114.128 235.065 113.404C234.836 112.386 234.058 111.58 233.658 110.609C233.415 109.863 233.221 109.102 233.077 108.331C231.973 104.192 227.117 101.866 222.895 102.56C220.55 102.949 218.369 104.069 216.018 104.411C214.334 104.656 212.612 104.496 210.912 104.677C209.332 104.84 207.795 105.294 206.38 106.016C206.009 106.181 205.681 106.429 205.421 106.742C205.179 107.164 205.017 107.627 204.941 108.107C204.371 110.241 202.537 111.815 201.21 113.613C199.691 115.681 198.813 118.15 198.683 120.713C198.631 121.367 198.692 122.026 198.864 122.66C198.976 123.033 199.152 123.396 199.237 123.78C199.498 124.948 198.901 126.116 198.608 127.279C198.244 128.763 198.375 130.326 198.981 131.728C201.028 136.439 207.772 138.012 209.174 142.957C210.419 143.555 211.763 143.916 213.14 144.024C214.515 144.051 215.997 143.459 216.637 142.237C218.316 139.036 214.307 136.551 213.177 134.011C212.468 132.448 213.262 126.975 215.949 129.216Z" fill="#353045"/>
<path opacity="0.1" d="M350.768 139.143C349.916 141.58 349.553 144.162 349.702 146.739C348.881 147.438 347.985 145.347 347.036 145.886C344.435 147.39 341.428 150.97 338.208 150.97C335.416 150.971 332.663 150.311 330.175 149.044C329.399 146.048 328.327 143.138 326.977 140.354C326.977 140.354 354.403 128.682 350.768 139.143Z" fill="black"/>
<path d="M355.917 132.32C355.917 135.83 354.877 139.26 352.929 142.178C350.981 145.095 348.212 147.369 344.972 148.712C341.732 150.055 338.167 150.406 334.728 149.722C331.289 149.037 328.13 147.347 325.65 144.866C323.17 142.385 321.482 139.223 320.798 135.782C320.114 132.34 320.465 128.773 321.807 125.531C323.149 122.289 325.421 119.518 328.337 117.568C331.252 115.619 334.68 114.578 338.187 114.578C340.516 114.577 342.821 115.036 344.973 115.927C347.124 116.819 349.079 118.126 350.726 119.773C352.372 121.421 353.678 123.377 354.569 125.53C355.46 127.683 355.918 129.99 355.917 132.32Z" fill="#D28690"/>
<path d="M355.159 161.43C355.159 161.43 351.822 165.069 351.369 165.367C350.916 165.666 341.241 206.442 341.07 206.917C340.9 207.392 329.55 244.21 329.55 244.21L311.367 253.156L312.886 208.123L326.213 170.984C326.213 170.984 330.611 165.981 331.97 164.162C333.33 162.343 350.303 151.423 350.303 151.423L353.203 157.403L355.159 161.43Z" fill="#F0F3F7"/>
<path opacity="0.1" d="M352.755 158.315L331.848 173.294L331.512 165.069C332.876 163.25 349.844 152.335 349.844 152.335L352.755 158.315Z" fill="black"/>
<path d="M353.209 157.403L332.302 172.382L331.977 164.162C333.341 162.337 350.309 151.423 350.309 151.423L353.209 157.403Z" fill="#F0F3F7"/>
<path d="M331.28 160.502L331.979 164.162L327.303 168.915L331.035 160.556C331.035 160.556 323.039 166.13 320.64 167.608C318.241 169.085 315.842 174.089 315.752 175.455C315.661 176.82 311.887 197.4 311.887 197.4C311.887 197.4 309.046 205.018 309.845 207.178C310.645 209.339 305.527 277.454 305.527 277.454C306.211 276.131 307.178 274.976 308.36 274.069C309.541 273.163 310.907 272.528 312.361 272.21L310.538 231.957C310.538 231.957 312.756 205.178 312.868 204.837C312.98 204.495 318.039 188.972 318.039 188.972L331.28 160.502Z" fill="#585B8A"/>
<path opacity="0.1" d="M332.436 164.615L332.074 172.083C332.074 172.083 327.015 188.06 325.314 190.674C323.614 193.288 318.438 208.87 318.438 208.87L315.522 235.937L310.521 238.214L308.059 233.675L312.153 207.536C312.153 207.536 319.877 185.478 321.018 183.2L326.716 171.187L332.436 164.615Z" fill="black"/>
<path d="M331.976 164.162L331.618 171.63C331.618 171.63 326.559 187.606 324.854 190.22C323.148 192.834 317.982 208.416 317.982 208.416L315.082 235.478L310.082 237.75L307.582 233.205L311.676 207.066C311.676 207.066 319.4 185.003 320.536 182.731L326.277 170.734L331.976 164.162Z" fill="#663D5C"/>
<path d="M273.039 221.165L282.81 227.935C282.81 227.935 289.703 224.067 285.689 221.565C281.675 219.064 278.114 218.685 276.824 218.685C275.534 218.685 273.039 221.165 273.039 221.165Z" fill="#D28690"/>
<path d="M280.338 208.651C280.12 208.787 279.94 208.976 279.816 209.201C279.692 209.426 279.627 209.679 279.629 209.936C279.629 212.012 279.863 217.506 281.601 215.025C283.734 211.99 283.344 209.264 286.602 211.233C288.626 212.494 290.398 214.122 291.826 216.034L290.919 209.515C290.919 209.515 284.224 206.208 280.338 208.651Z" fill="#D28690"/>
<path opacity="0.1" d="M356.106 288.256C355.616 289.025 355.184 290.705 354.827 292.871C334.901 298.851 320.321 286.208 320.321 286.208C318.557 280.226 317.116 274.154 316.003 268.018C315.646 265.916 315.726 261.84 316.056 256.869L351.682 250.617C351.682 250.617 358.383 284.73 356.106 288.256Z" fill="black"/>
<path d="M376.559 186.481C375.653 189.442 375.994 195.464 375.994 195.464L367.812 234.128C367.812 234.128 363.835 263.921 363.152 267.9C362.47 271.88 361.335 289.393 361.335 289.393C338.151 300.766 320.288 285.301 320.288 285.301C318.524 279.318 317.083 273.244 315.97 267.106C314.829 260.352 318.188 233.296 319.776 221.277C320.251 217.719 320.57 215.479 320.57 215.479L326.536 193.304C326.536 193.304 333.865 174.596 336.595 169.139C339.324 163.682 350.284 151.423 350.284 151.423C351.643 150.559 353.818 153.61 355.434 156.39C356.654 158.491 357.566 160.444 357.566 160.444C357.566 160.444 371.202 166.354 373.244 169.512C375.285 172.67 374.949 179.178 375.179 179.52C375.408 179.861 377.471 183.526 376.559 186.481Z" fill="#585B8A"/>
<path opacity="0.1" d="M344.404 172.723C344.404 172.723 345.427 178.751 342.804 180.57C340.272 182.331 321.423 219.421 320.25 221.736C320.724 218.173 321.044 215.932 321.044 215.932L327.009 193.762C327.009 193.762 334.345 175.055 337.069 169.592C339.793 164.13 350.763 151.877 350.763 151.877C352.123 151.012 354.292 154.064 355.907 156.843C353.471 161.905 348.391 171.475 344.404 172.723Z" fill="black"/>
<path d="M343.949 172.27C343.949 172.27 344.968 178.298 342.35 180.117C339.733 181.936 320.974 218.962 319.785 221.277C320.26 217.719 320.579 215.479 320.579 215.479L326.545 193.304C326.545 193.304 333.874 174.596 336.604 169.139C339.333 163.682 350.293 151.423 350.293 151.423C351.652 150.559 353.827 153.61 355.443 156.39C353.017 161.447 347.932 171.022 343.949 172.27Z" fill="#585B8A"/>
<path d="M370.993 226.74L364.58 260.128V260.133L363.967 263.329V263.334L362.586 270.52L356.696 269.271L353.95 268.69L315.958 260.635L313.165 260.043L306.789 258.693L308.036 250.403L308.554 246.957L313.154 216.391L370.993 226.74Z" fill="#F8A441"/>
<path d="M335.538 254.031C335.538 254.031 320.425 259.488 323.72 265.969C327.014 272.45 348.151 260.965 348.151 260.965L335.538 254.031Z" fill="#D28690"/>
<path opacity="0.1" d="M346.332 300.536C346.332 300.99 346.902 306.793 349.173 308.836C351.444 310.88 346.332 300.536 346.332 300.536Z" fill="black"/>
<path opacity="0.1" d="M331.109 321.117C331.109 321.117 333.833 328.622 344.628 331.695C355.423 334.768 331.109 321.117 331.109 321.117Z" fill="black"/>
<path opacity="0.1" d="M355.917 132.32C355.918 135.439 355.097 138.503 353.537 141.204C351.977 143.904 349.733 146.144 347.031 147.7C346.013 147.129 345.109 146.375 344.366 145.475C343.593 144.536 342.99 143.256 343.454 142.136C343.827 141.234 344.813 140.664 345.053 139.73C345.166 139.159 345.137 138.569 344.968 138.012C344.771 137.132 344.584 136.252 344.392 135.377C344.227 134.63 343.934 133.75 343.193 133.569C342.452 133.387 341.834 134.006 341.253 134.465C339.829 135.59 337.1 136.353 335.389 135.43C333.678 134.508 334.157 131.419 333.88 129.749C333.877 129.604 333.841 129.462 333.777 129.332C333.712 129.202 333.62 129.088 333.507 128.997C333.258 128.914 332.992 128.896 332.734 128.944C331.812 128.944 331.071 128.117 330.804 127.231C330.615 126.327 330.512 125.408 330.495 124.484C330.394 123.561 330.058 122.585 329.269 122.11C328.639 121.817 327.94 121.702 327.249 121.78L323.906 121.817C326.124 118.817 329.229 116.593 332.782 115.461C336.335 114.33 340.154 114.348 343.697 115.513C347.239 116.678 350.324 118.93 352.513 121.951C354.702 124.971 355.884 128.605 355.891 132.336L355.917 132.32Z" fill="black"/>
<path d="M341.726 134.465C342.307 134.006 342.946 133.398 343.666 133.574C344.386 133.75 344.695 134.641 344.86 135.377L345.436 138.007C345.606 138.565 345.637 139.157 345.526 139.73C345.255 140.669 344.274 141.234 343.895 142.136C343.431 143.256 344.039 144.536 344.807 145.47C346.207 147.158 348.143 148.316 350.292 148.75C350.853 148.885 351.437 148.898 352.003 148.788C353.272 148.494 354.136 147.326 354.818 146.233C358.342 140.738 361.375 134.716 361.993 128.218C362.163 126.893 362.102 125.548 361.812 124.244C361.523 123.23 361.115 122.254 360.597 121.337C359.689 119.462 358.536 117.717 357.169 116.146C354.743 113.533 351.396 111.927 347.957 110.977C344.09 109.904 340.052 109.587 336.064 110.044C334.998 110.167 333.975 110.343 332.925 110.412C331.606 110.473 330.285 110.452 328.969 110.348L321.122 109.878C320.675 110.791 321.122 111.874 321.655 112.727C322.188 113.581 322.849 114.466 322.807 115.48C322.764 116.493 322.045 117.293 321.49 118.147C320.936 119 320.515 120.105 321.069 120.937C321.623 121.769 322.754 121.822 323.734 121.812L327.69 121.769C328.379 121.698 329.074 121.818 329.699 122.116C330.488 122.59 330.824 123.572 330.926 124.489C330.948 125.413 331.051 126.332 331.235 127.237C331.507 128.122 332.242 128.96 333.164 128.949C333.423 128.898 333.69 128.918 333.937 129.008C334.051 129.097 334.143 129.21 334.207 129.339C334.272 129.469 334.307 129.61 334.311 129.755C334.588 131.424 334.076 134.508 335.819 135.436C337.562 136.364 340.302 135.59 341.726 134.465Z" fill="#663D5C"/>
<path opacity="0.1" d="M364.262 169.507C362.302 169.298 360.329 169.763 358.668 170.824C357.007 171.886 355.756 173.481 355.12 175.348C352.987 181.424 349.432 192.386 350.322 196.718C351.575 202.858 353.051 213.094 353.051 213.094C353.051 213.094 359.528 216.828 356.25 220.594C352.971 224.361 352.044 229.695 352.044 229.695C352.044 229.695 347.838 231.514 346.932 235.382C346.025 239.249 339.884 244.589 339.884 244.589L330.684 253.801C330.684 253.801 345.908 269.271 348.979 270.061L358.409 259.029L369.545 244.247L379.204 234.112C379.204 234.112 381.475 228.777 380.339 218.642C379.204 208.507 374.769 198.857 374.769 198.857L375.11 195.443C375.11 195.443 376.155 170.984 364.262 169.507Z" fill="black"/>
<path d="M365.167 169.507C363.208 169.301 361.238 169.767 359.579 170.828C357.92 171.889 356.671 173.483 356.035 175.348C353.903 181.424 350.347 192.386 351.238 196.718C352.485 202.858 353.962 213.094 353.962 213.094C353.962 213.094 360.438 216.828 357.16 220.595C353.882 224.361 352.959 229.695 352.959 229.695C352.959 229.695 348.753 231.514 347.842 235.382C346.93 239.249 340.8 244.589 340.8 244.589L331.594 253.801C331.594 253.801 346.818 269.271 349.889 270.061L359.319 259.029L370.428 244.247L380.087 234.112C380.087 234.112 382.364 228.778 381.223 218.642C380.082 208.507 375.658 198.857 375.658 198.857L375.999 195.443C375.999 195.443 377.06 170.984 365.167 169.507Z" fill="#585B8A"/>
<path opacity="0.1" d="M355.652 204.111C355.652 204.111 365.312 215.932 369.406 213.319C373.5 210.705 355.652 204.111 355.652 204.111Z" fill="black"/>
<path opacity="0.1" d="M359.285 195.011C360.309 195.352 368.721 207.067 373.039 205.68C377.356 204.293 359.285 195.011 359.285 195.011Z" fill="black"/>
<path opacity="0.1" d="M361.676 215.132C361.676 215.132 362.246 221.843 369.176 220.931C376.106 220.018 361.676 215.132 361.676 215.132Z" fill="black"/>
<path opacity="0.1" d="M331.052 161.009L327.305 169.368L331.985 164.615L331.052 161.009Z" fill="black"/>
<path d="M331.052 160.556L327.305 168.915L331.985 164.162L331.052 160.556Z" fill="#F0F3F7"/>
<path opacity="0.3" d="M315.957 260.635L313.163 260.043L308.035 250.403L308.552 246.957L315.957 260.635Z" fill="black"/>
<path opacity="0.3" d="M364.579 260.133L363.966 263.329V263.334L356.695 269.271L353.949 268.69L364.579 260.133Z" fill="black"/>
<path opacity="0.1" d="M250.016 222.83C248.609 223.065 247.244 223.278 245.996 223.438C239.066 224.35 222.584 216.162 222.584 216.162C222.584 216.162 202.471 199.332 196.676 183.414C190.882 167.496 203.606 165.106 203.606 165.106C208.404 162.375 218.836 169.992 220.313 171.246C221.79 172.499 223.042 175.679 222.925 177.727C222.808 179.776 226.337 182.389 226.337 182.389C226.337 182.389 232.36 192.85 233.837 193.987C235.314 195.123 235.655 196.147 236.108 198.083C236.561 200.02 240.538 201.609 242.244 201.492C243.949 201.375 245.975 202.063 245.975 202.97C245.975 203.701 247.644 204.063 249.014 204.181C249.419 210.011 249.819 217.65 250.016 222.83Z" fill="black"/>
<path opacity="0.1" d="M249.954 221.165C248.888 221.336 247.865 221.491 246.905 221.619C239.975 222.531 223.498 214.342 223.498 214.342C223.498 214.342 203.385 197.512 197.59 181.594C191.796 165.676 204.52 163.287 204.52 163.287C209.318 160.555 219.745 168.173 221.222 169.427C222.698 170.68 223.951 173.859 223.839 175.908C223.727 177.956 227.245 180.57 227.245 180.57C227.245 180.57 233.269 191.031 234.746 192.167C236.222 193.303 236.564 194.328 237.022 196.264C237.48 198.2 241.452 199.785 243.158 199.673C244.864 199.561 246.889 200.244 246.889 201.15C246.889 201.684 247.838 202.041 248.894 202.217C248.936 202.836 248.974 203.492 249.021 204.175C249.373 209.419 249.736 216.108 249.954 221.165Z" fill="black"/>
<path opacity="0.1" d="M276.312 209.712L275.88 219.933H275.417L274.457 219.4L274.574 210.593C275.135 210.263 275.715 209.969 276.312 209.712Z" fill="black"/>
<path d="M203.606 164.194C203.606 164.194 190.882 166.583 196.676 182.501C202.471 198.419 222.584 215.255 222.584 215.255C222.584 215.255 239.061 223.438 245.996 222.531C252.932 221.624 263.492 219.234 264.857 219.576C266.221 219.917 275.427 219.917 275.427 219.917L275.881 209.248L265.219 208.677L259.766 207.541C259.766 207.541 257.831 205.941 256.695 206.176C255.56 206.41 253.177 204.81 253.177 204.81C253.177 204.81 251.354 203.332 249.978 203.332C248.603 203.332 246.002 202.991 246.002 202.084C246.002 201.177 243.955 200.484 242.27 200.606C240.586 200.729 236.561 199.129 236.092 197.171C235.623 195.213 235.298 194.216 233.821 193.08C232.344 191.943 226.321 181.477 226.321 181.477C226.321 181.477 222.797 178.863 222.909 176.82C223.021 174.777 221.774 171.587 220.297 170.333C218.82 169.08 208.372 161.468 203.606 164.194Z" fill="#DCE6F2"/>
<path opacity="0.1" d="M236.337 200.809C236.337 200.809 231.449 205.701 232.696 206.608L236.337 200.809Z" fill="black"/>
<path opacity="0.1" d="M241.563 204.677C241.563 204.677 235.198 209.568 236.904 209.91C238.61 210.251 241.563 204.677 241.563 204.677Z" fill="black"/>
<path opacity="0.1" d="M230.762 211.931C231.673 212.39 245.192 220.466 250.31 220.349L230.762 211.931Z" fill="black"/>
<path opacity="0.1" d="M231.678 157.942C231.678 157.942 229.29 165.789 228.378 165.789C227.664 165.789 215.67 156.069 210.664 151.983L210.883 151.802C210.883 151.802 211.336 148.276 213.154 146.467C214.971 144.659 231.678 157.942 231.678 157.942Z" fill="black"/>
<path d="M231.221 157.03C231.221 157.03 228.838 164.877 227.926 164.877C227.207 164.877 215.213 155.157 210.207 151.071L210.426 150.89C210.426 150.89 210.884 147.364 212.702 145.555C214.52 143.747 231.221 157.03 231.221 157.03Z" fill="#DCE6F2"/>
<g opacity="0.15">
<path opacity="0.15" d="M199.039 131.67C200.638 135.324 205.041 137.095 207.595 140.007C206.076 136.428 201.635 134.673 199.039 131.67Z" fill="black"/>
<path opacity="0.15" d="M215.337 140.087C214.702 141.309 213.204 141.901 211.84 141.874C210.626 141.787 209.439 141.484 208.332 140.978C208.733 141.57 209.039 142.222 209.238 142.909C210.483 143.508 211.828 143.87 213.204 143.976C214.585 144.008 216.067 143.416 216.701 142.189C217.72 140.242 216.659 138.578 215.417 137.004C215.648 137.488 215.762 138.019 215.748 138.555C215.734 139.091 215.593 139.617 215.337 140.087Z" fill="black"/>
<path opacity="0.15" d="M235.119 113.351C234.889 112.327 234.111 111.522 233.711 110.556C233.466 109.809 233.272 109.046 233.13 108.273C232.827 107.179 232.266 106.175 231.494 105.344C231.601 105.607 231.692 105.876 231.765 106.15C231.915 106.926 232.114 107.693 232.363 108.444C232.762 109.409 233.541 110.215 233.77 111.239C233.905 111.962 233.76 112.71 233.364 113.33C232.968 113.951 232.35 114.397 231.638 114.578C229.665 115.01 227.416 113.303 225.72 114.402C224.681 115.069 224.441 116.461 224.302 117.688C224.064 119.822 223.823 121.943 223.577 124.052C223.529 124.8 223.371 125.537 223.108 126.239C222.271 128.16 219.974 129.061 217.879 129.029C217.06 129.084 216.253 128.816 215.629 128.282C215.326 127.853 215.001 127.44 214.654 127.045C211.988 124.804 211.178 130.283 211.882 131.846C212.234 132.549 212.671 133.206 213.182 133.803C212.596 132.043 213.417 126.975 216.018 129.146C216.365 129.54 216.689 129.953 216.989 130.384C217.615 130.917 218.423 131.185 219.244 131.131C221.339 131.163 223.636 130.261 224.473 128.341C224.736 127.637 224.895 126.898 224.942 126.149C225.184 124.015 225.425 121.895 225.667 119.79C225.806 118.563 226.046 117.171 227.08 116.504C228.78 115.405 231.03 117.112 233.002 116.675C233.71 116.491 234.321 116.046 234.714 115.43C235.106 114.813 235.251 114.07 235.119 113.351Z" fill="black"/>
</g>
<path opacity="0.1" d="M353.139 147.428C352.572 147.533 351.989 147.519 351.428 147.385C349.281 146.951 347.347 145.795 345.948 144.11C345.175 143.171 344.567 141.891 345.036 140.77C345.409 139.869 346.39 139.303 346.635 138.364C346.746 137.791 346.715 137.2 346.545 136.641L345.969 134.012C345.804 133.265 345.516 132.385 344.775 132.209C344.034 132.032 343.416 132.641 342.835 133.099C341.411 134.225 338.677 134.993 336.971 134.065C335.265 133.137 335.739 130.053 335.462 128.384C335.458 128.24 335.422 128.098 335.357 127.969C335.293 127.84 335.201 127.727 335.089 127.637C334.839 127.55 334.571 127.53 334.311 127.578C333.389 127.578 332.653 126.751 332.381 125.866C332.196 124.961 332.095 124.042 332.077 123.119C331.971 122.201 331.64 121.22 330.846 120.745C330.219 120.45 329.525 120.33 328.836 120.398L324.881 120.441C323.905 120.441 322.748 120.377 322.215 119.566C321.682 118.755 322.077 117.603 322.636 116.776C323.196 115.949 323.905 115.128 323.953 114.109C324.001 113.09 323.34 112.21 322.802 111.356C322.493 110.889 322.266 110.374 322.13 109.831L320.995 109.761C320.552 110.668 320.995 111.751 321.528 112.61C322.061 113.469 322.727 114.349 322.679 115.357C322.631 116.365 321.922 117.176 321.362 118.024C320.803 118.872 320.392 119.982 320.947 120.814C321.501 121.646 322.626 121.705 323.612 121.694L327.567 121.646C328.257 121.58 328.951 121.701 329.577 121.998C330.371 122.473 330.707 123.455 330.808 124.372C330.825 125.296 330.929 126.215 331.118 127.119C331.384 128 332.125 128.842 333.047 128.826C333.306 128.781 333.572 128.801 333.82 128.885C333.933 128.976 334.025 129.09 334.089 129.22C334.154 129.35 334.189 129.492 334.193 129.637C334.471 131.302 333.959 134.39 335.702 135.318C337.445 136.247 340.164 135.479 341.566 134.353C342.147 133.894 342.792 133.286 343.512 133.457C344.231 133.627 344.54 134.524 344.7 135.26L345.281 137.895C345.45 138.454 345.479 139.045 345.367 139.618C345.1 140.552 344.114 141.122 343.741 142.019C343.277 143.139 343.879 144.424 344.652 145.358C346.061 147.051 348.01 148.207 350.17 148.633C350.731 148.767 351.314 148.782 351.881 148.676C352.797 148.396 353.584 147.799 354.098 146.99C353.807 147.192 353.482 147.34 353.139 147.428Z" fill="black"/>
<path opacity="0.1" d="M558.455 331.561C565.571 331.561 571.339 330.675 571.339 329.582C571.339 328.489 565.571 327.603 558.455 327.603C551.339 327.603 545.57 328.489 545.57 329.582C545.57 330.675 551.339 331.561 558.455 331.561Z" fill="#F8A441"/>
<path d="M548.3 310.618C548.3 310.618 546.477 319.111 554.585 320.114L555.087 319.169C555.087 319.169 548.802 313.254 548.3 310.618Z" fill="#F8A441"/>
<path d="M557.664 319.1L555.777 319.5L555.59 319.543C555.59 319.543 550.558 315.457 550.622 306.335C551.294 307.68 552.1 308.954 553.026 310.138C555.02 312.779 557.285 316.3 557.664 319.1Z" fill="#F8A441"/>
<path d="M558.3 319.975C558.152 320.071 557.984 320.134 557.809 320.157C557.633 320.18 557.455 320.163 557.287 320.108C552.447 318.977 554.089 303.193 554.089 303.193C554.355 303.316 554.622 305.327 555.762 307.919C557.708 312.469 559.856 318.833 558.3 319.975Z" fill="#F8A441"/>
<path d="M569.034 310.618C569.034 310.618 569.349 319.111 561.241 320.114L560.734 319.153C560.734 319.153 568.533 313.254 569.034 310.618Z" fill="#F8A441"/>
<path d="M566.709 306.351C566.773 315.473 560.238 319.559 560.238 319.559L560.046 319.516L558.164 319.116C558.537 316.316 560.829 312.795 562.796 310.154C563.926 308.718 565.242 307.439 566.709 306.351Z" fill="#F8A441"/>
<path d="M560.023 319.154C559.737 319.508 559.372 319.791 558.957 319.98C558.829 320.038 558.695 320.083 558.557 320.114C557.369 320.391 556.958 319.532 557.022 318.071C557.134 315.473 558.765 310.965 560.22 307.588C560.921 305.932 561.956 304.437 563.259 303.198C563.259 303.198 563.184 315.483 560.023 319.154Z" fill="#F8A441"/>
<path d="M558.669 297.656C558.669 297.656 553.264 316.86 557.917 319.73C562.571 322.6 559.863 299.352 558.669 297.656Z" fill="#F8A441"/>
<path opacity="0.1" d="M548.3 310.618C548.3 310.618 546.477 319.111 554.585 320.114L555.087 319.169C555.087 319.169 548.802 313.254 548.3 310.618Z" fill="black"/>
<path opacity="0.1" d="M557.664 319.1L555.777 319.5L555.59 319.543C555.59 319.543 550.558 315.457 550.622 306.335C551.294 307.68 552.1 308.954 553.026 310.138C555.02 312.779 557.285 316.3 557.664 319.1Z" fill="black"/>
<path opacity="0.1" d="M558.3 319.975C558.152 320.071 557.984 320.134 557.809 320.157C557.633 320.18 557.455 320.163 557.287 320.108C552.447 318.977 554.089 303.193 554.089 303.193C554.355 303.316 554.622 305.327 555.762 307.919C557.708 312.469 559.856 318.833 558.3 319.975Z" fill="black"/>
<path opacity="0.1" d="M569.034 310.618C569.034 310.618 569.349 319.111 561.241 320.114L560.734 319.153C560.734 319.153 568.533 313.254 569.034 310.618Z" fill="black"/>
<path opacity="0.1" d="M566.709 306.351C566.773 315.473 560.238 319.559 560.238 319.559L560.046 319.516L558.164 319.116C558.537 316.316 560.829 312.795 562.796 310.154C563.926 308.718 565.242 307.439 566.709 306.351Z" fill="black"/>
<path opacity="0.1" d="M560.023 319.154C559.737 319.508 559.372 319.791 558.957 319.98C558.829 320.038 558.695 320.083 558.557 320.114C557.369 320.391 556.958 319.532 557.022 318.071C557.134 315.473 558.765 310.965 560.22 307.588C560.921 305.932 561.956 304.437 563.259 303.198C563.259 303.198 563.184 315.483 560.023 319.154Z" fill="black"/>
<path opacity="0.1" d="M558.669 297.656C558.669 297.656 553.264 316.86 557.917 319.73C562.571 322.6 559.863 299.352 558.669 297.656Z" fill="black"/>
<path d="M548.3 310.618C548.3 310.618 547.234 319.111 555.337 320.114L555.838 319.169C555.838 319.169 548.801 313.254 548.3 310.618Z" fill="#F8A441"/>
<path d="M558.415 319.1L556.528 319.5L556.342 319.543C556.342 319.543 550.558 315.457 550.606 306.351C550.606 306.351 552.088 307.951 553.762 310.154C555.771 312.779 558.037 316.3 558.415 319.1Z" fill="#F8A441"/>
<path opacity="0.1" d="M558.415 319.1L556.528 319.5C554.742 317.932 554.033 313.835 553.777 310.138C555.771 312.779 558.037 316.3 558.415 319.1Z" fill="black"/>
<path d="M559.057 319.975C558.907 320.072 558.739 320.134 558.563 320.157C558.386 320.18 558.207 320.163 558.038 320.108C553.198 318.977 554.083 303.193 554.083 303.193C554.35 303.316 555.394 305.327 556.508 307.919C558.465 312.469 560.608 318.833 559.057 319.975Z" fill="#F8A441"/>
<path d="M569.034 310.618C569.034 310.618 570.1 319.111 561.997 320.114L561.496 319.169C561.496 319.169 568.533 313.254 569.034 310.618Z" fill="#F8A441"/>
<path d="M566.712 306.351C566.776 315.473 560.992 319.559 560.992 319.559L560.805 319.516L558.918 319.116C559.291 316.316 561.583 312.795 563.556 310.154C565.23 307.951 566.712 306.351 566.712 306.351Z" fill="#F8A441"/>
<path opacity="0.1" d="M563.556 310.138C563.311 313.584 562.681 317.377 561.152 319.148C561.047 319.276 560.931 319.394 560.805 319.5L558.918 319.1C559.291 316.3 561.562 312.779 563.556 310.138Z" fill="black"/>
<path d="M560.772 319.154C560.487 319.51 560.122 319.793 559.706 319.98C559.579 320.038 559.447 320.082 559.312 320.114C558.118 320.391 557.712 319.532 557.771 318.071C557.888 315.473 559.52 310.965 560.97 307.588C562.036 305.161 563.001 303.321 563.256 303.198C563.256 303.193 563.933 315.483 560.772 319.154Z" fill="#F8A441"/>
<path opacity="0.1" d="M559.057 319.975C558.782 319.978 558.513 319.892 558.29 319.73C556.014 318.311 555.965 312.987 556.509 307.919C558.466 312.469 560.609 318.833 559.057 319.975Z" fill="black"/>
<path opacity="0.1" d="M560.775 319.153C560.513 319.724 560.162 320.023 559.709 319.98C559.477 319.952 559.255 319.868 559.064 319.735C558.47 319.328 558.019 318.746 557.773 318.071C557.891 315.473 559.522 310.965 560.972 307.588C561.494 312.267 561.67 317.228 560.775 319.153Z" fill="black"/>
<path d="M558.668 297.656C558.668 297.656 554.019 316.86 558.668 319.73C563.316 322.6 559.862 299.352 558.668 297.656Z" fill="#F8A441"/>
<path d="M567.59 318.791H548.234V321.997H551.188L551.262 322.376L552.446 328.601H563.699L564.882 322.376L564.952 321.997H567.59V318.791Z" fill="#4B4770"/>
<path opacity="0.1" d="M567.59 318.791H548.234V321.997H551.188L551.262 322.376L552.446 328.601H563.699L564.882 322.376L564.952 321.997H567.59V318.791Z" fill="black"/>
<path d="M565.958 320.674L565.633 322.376L564.449 328.601H553.196L552.013 322.376L551.688 320.674H565.958Z" fill="#4B4770"/>
<path opacity="0.1" d="M565.958 320.674L565.633 322.376H552.013L551.688 320.674H565.958Z" fill="black"/>
<path d="M568.344 318.791H548.988V321.997H568.344V318.791Z" fill="#4B4770"/>
<path opacity="0.1" d="M26.6541 33.3188C29.7336 33.3188 32.23 30.8206 32.23 27.739C32.23 24.6573 29.7336 22.1592 26.6541 22.1592C23.5746 22.1592 21.0781 24.6573 21.0781 27.739C21.0781 30.8206 23.5746 33.3188 26.6541 33.3188Z" fill="#F8A441"/>
<path opacity="0.1" d="M562.166 210.758C566.288 210.758 569.629 207.414 569.629 203.29C569.629 199.165 566.288 195.822 562.166 195.822C558.044 195.822 554.703 199.165 554.703 203.29C554.703 207.414 558.044 210.758 562.166 210.758Z" fill="#F8A441"/>
<path opacity="0.1" d="M576.554 192.738C579.562 192.738 582.002 190.297 582.002 187.287C582.002 184.276 579.562 181.835 576.554 181.835C573.545 181.835 571.105 184.276 571.105 187.287C571.105 190.297 573.545 192.738 576.554 192.738Z" fill="#F8A441"/>
<path opacity="0.1" d="M36.2482 14.9364C40.3699 14.9364 43.7112 11.5928 43.7112 7.4682C43.7112 3.34363 40.3699 0 36.2482 0C32.1265 0 28.7852 3.34363 28.7852 7.4682C28.7852 11.5928 32.1265 14.9364 36.2482 14.9364Z" fill="#F8A441"/>
<path opacity="0.1" d="M7.46304 49.0768C11.5848 49.0768 14.9261 45.7332 14.9261 41.6086C14.9261 37.484 11.5848 34.1404 7.46304 34.1404C3.34132 34.1404 0 37.484 0 41.6086C0 45.7332 3.34132 49.0768 7.46304 49.0768Z" fill="#F8A441"/>
<defs>
<linearGradient id="paint0_linear" x1="281" y1="413.872" x2="281" y2="101.541" gradientUnits="userSpaceOnUse">
<stop stop-color="#808080" stop-opacity="0.25"/>
<stop offset="0.54" stop-color="#808080" stop-opacity="0.12"/>
<stop offset="1" stop-color="#808080" stop-opacity="0.1"/>
</linearGradient>
</defs>
</svg>
