<svg width="46" height="46" viewBox="0 0 46 46" fill="none" xmlns="http://www.w3.org/2000/svg">
<circle cx="23" cy="23" r="18" fill="url(#paint0_linear)"/>
<path fill-rule="evenodd" clip-rule="evenodd" d="M10.9797 3.38755C14.4789 1.2387 18.5979 0 23 0C27.4021 0 31.5211 1.23869 35.0203 3.38755C35.9616 3.96556 36.2561 5.19718 35.6781 6.13844C35.1 7.0797 33.8684 7.37417 32.9272 6.79615C30.0396 5.02292 26.6423 4 23 4C19.3577 4 15.9604 5.02292 13.0728 6.79615C12.1316 7.37417 10.9 7.0797 10.3219 6.13844C9.74393 5.19718 10.0384 3.96557 10.9797 3.38755ZM39.8616 10.3219C40.8028 9.74393 42.0344 10.0384 42.6124 10.9797C44.7613 14.4789 46 18.5979 46 23C46 27.4021 44.7613 31.5211 42.6125 35.0203C42.0344 35.9616 40.8028 36.2561 39.8616 35.6781C38.9203 35.1 38.6258 33.8684 39.2038 32.9272C40.9771 30.0396 42 26.6423 42 23C42 19.3577 40.9771 15.9604 39.2038 13.0728C38.6258 12.1316 38.9203 10.9 39.8616 10.3219ZM6.13844 10.3219C7.0797 10.9 7.37417 12.1316 6.79615 13.0728C5.02292 15.9604 4 19.3577 4 23C4 26.6423 5.02292 30.0396 6.79615 32.9272C7.37417 33.8684 7.0797 35.1 6.13844 35.6781C5.19718 36.2561 3.96557 35.9616 3.38755 35.0203C1.2387 31.5211 0 27.4021 0 23C0 18.5979 1.23869 14.4789 3.38755 10.9797C3.96556 10.0384 5.19718 9.74393 6.13844 10.3219ZM10.3219 39.8616C10.9 38.9203 12.1316 38.6258 13.0728 39.2038C15.9604 40.9771 19.3577 42 23 42C26.6423 42 30.0396 40.9771 32.9272 39.2038C33.8684 38.6258 35.1 38.9203 35.6781 39.8616C36.2561 40.8028 35.9616 42.0344 35.0203 42.6124C31.5211 44.7613 27.4021 46 23 46C18.5979 46 14.4789 44.7613 10.9797 42.6125C10.0384 42.0344 9.74393 40.8028 10.3219 39.8616Z" fill="url(#paint1_linear)"/>
<circle cx="23" cy="23" r="14" transform="rotate(45 23 23)" fill="url(#paint2_linear)"/>
<path d="M23.6383 14.2C25.8383 14.2 27.4743 14.62 28.5463 15.46C29.6183 16.3 30.1543 17.488 30.1543 19.024C30.1543 19.816 29.9503 20.516 29.5423 21.124C29.1423 21.732 28.6023 22.212 27.9223 22.564C28.6663 22.836 29.2783 23.308 29.7583 23.98C30.2463 24.644 30.4903 25.376 30.4903 26.176C30.4903 27.712 29.9623 28.9 28.9063 29.74C27.8503 30.58 26.2383 31 24.0703 31H16.1023V14.2H23.6383ZM20.6623 24.412V27.292L23.8183 27.304C25.1383 27.304 25.7983 26.82 25.7983 25.852C25.7983 24.892 25.1383 24.412 23.8183 24.412H20.6623ZM20.6623 17.92V20.716H23.5303C24.7943 20.716 25.4263 20.248 25.4263 19.312C25.4263 18.384 24.7983 17.92 23.5423 17.92H20.6623Z" fill="white"/>
<defs>
<linearGradient id="paint0_linear" x1="8.57029" y1="11.9978" x2="36.133" y2="35.9902" gradientUnits="userSpaceOnUse">
<stop stop-color="#FEFA74"/>
<stop offset="1" stop-color="#F5B909"/>
</linearGradient>
<linearGradient id="paint1_linear" x1="50.7111" y1="18.3549" x2="6.29698" y2="2.60511" gradientUnits="userSpaceOnUse">
<stop stop-color="white"/>
<stop offset="0.494792" stop-color="#9BA7BD"/>
<stop offset="1" stop-color="white"/>
</linearGradient>
<linearGradient id="paint2_linear" x1="11.7769" y1="14.4428" x2="33.2145" y2="33.1035" gradientUnits="userSpaceOnUse">
<stop stop-color="#FEFA74"/>
<stop offset="1" stop-color="#F5B909"/>
</linearGradient>
</defs>
</svg>
