<svg width="14" height="10" viewBox="0 0 14 10" xmlns="http://www.w3.org/2000/svg">
<path d="M5.48623 9.73C5.35497 9.73027 5.22494 9.70461 5.10361 9.6545C4.98229 9.60439 4.87205 9.53082 4.77923 9.438L0.537232 5.195C0.441659 5.10282 0.3654 4.99253 0.312907 4.87056C0.260413 4.7486 0.232736 4.6174 0.231489 4.48462C0.230243 4.35184 0.255452 4.22015 0.305646 4.09722C0.35584 3.97429 0.430013 3.86258 0.523839 3.76863C0.617664 3.67467 0.729262 3.60034 0.852122 3.54997C0.974981 3.4996 1.10664 3.4742 1.23942 3.47526C1.3722 3.47632 1.50344 3.50381 1.62548 3.55614C1.74752 3.60846 1.85792 3.68456 1.95023 3.78L5.48523 7.315L11.8502 0.952001C12.0377 0.76436 12.2921 0.658892 12.5574 0.658798C12.8226 0.658705 13.0771 0.763993 13.2647 0.951501C13.4524 1.13901 13.5578 1.39338 13.5579 1.65865C13.558 1.92392 13.4527 2.17836 13.2652 2.366L6.19323 9.438C6.10041 9.53082 5.99018 9.60439 5.86885 9.6545C5.74752 9.70461 5.6175 9.73027 5.48623 9.73Z" fill="#172331"/>
</svg>
