<svg width="58" height="58" viewBox="0 0 58 58" fill="none" xmlns="http://www.w3.org/2000/svg">
<g filter="url(#filter0_d)">
<rect x="13" y="28.938" width="14" height="14" transform="rotate(-39.6751 13 28.938)" fill="#F37F67"/>
<rect x="24" y="17.938" width="14" height="14" transform="rotate(-39.6751 24 17.938)" fill="white"/>
<path d="M29 0C15.1942 0 4 11.1942 4 25C4 38.8058 15.1942 50 29 50C42.8058 50 54 38.8058 54 25C54 11.1942 42.8058 0 29 0ZM18.6931 35.625C18.5815 35.6752 18.4475 35.625 18.3973 35.5078C18.375 35.452 18.375 35.385 18.3973 35.3292L23.9051 22.7455L31.2768 30.1172L18.6931 35.625ZM39.625 14.6931L34.1172 27.2768L26.7455 19.9051L39.3292 14.3973C39.4408 14.3471 39.5748 14.3973 39.625 14.5145C39.6473 14.5703 39.6473 14.6317 39.625 14.6931Z" fill="black"/>
</g>
<defs>
<filter id="filter0_d" x="0" y="0" width="58" height="58" filterUnits="userSpaceOnUse" color-interpolation-filters="sRGB">
<feFlood flood-opacity="0" result="BackgroundImageFix"/>
<feColorMatrix in="SourceAlpha" type="matrix" values="0 0 0 0 0 0 0 0 0 0 0 0 0 0 0 0 0 0 127 0"/>
<feOffset dy="4"/>
<feGaussianBlur stdDeviation="2"/>
<feColorMatrix type="matrix" values="0 0 0 0 0 0 0 0 0 0 0 0 0 0 0 0 0 0 0.25 0"/>
<feBlend mode="normal" in2="BackgroundImageFix" result="effect1_dropShadow"/>
<feBlend mode="normal" in="SourceGraphic" in2="effect1_dropShadow" result="shape"/>
</filter>
</defs>
</svg>
