<svg width="18" height="12" viewBox="0 0 18 12" fill="none" xmlns="http://www.w3.org/2000/svg">
<path d="M9 0.375C5.07487 0.375 1.67175 2.661 0 6C1.67175 9.339 5.07487 11.625 9 11.625C12.9251 11.625 16.3283 9.339 18 6C16.3283 2.661 12.9251 0.375 9 0.375ZM13.4381 3.3585C14.4956 4.0335 15.3923 4.93687 16.065 6C15.3943 7.06301 14.4974 7.96495 13.4381 8.6415C12.1129 9.48823 10.5732 9.93814 9.00056 9.93814C7.42796 9.93814 5.88819 9.48823 4.563 8.6415C3.50421 7.96435 2.60739 7.06253 1.93612 6C2.65094 4.86728 3.62207 3.9185 4.77113 3.23025C4.52384 3.91003 4.44406 4.6394 4.53857 5.35656C4.63308 6.07372 4.89908 6.75753 5.31403 7.35003C5.72898 7.94254 6.28066 8.42628 6.9223 8.76027C7.56394 9.09425 8.27664 9.26863 9 9.26863C9.72336 9.26863 10.4361 9.09425 11.0777 8.76027C11.7193 8.42628 12.271 7.94254 12.686 7.35003C13.1009 6.75753 13.3669 6.07372 13.4614 5.35656C13.5559 4.6394 13.4762 3.91003 13.2289 3.23025C13.2986 3.27188 13.3684 3.31463 13.437 3.3585H13.4381ZM9 4.3125C8.99985 4.7602 8.82186 5.18951 8.50518 5.50598C8.1885 5.82244 7.75908 6.00015 7.31138 6C6.86367 5.99985 6.43437 5.82186 6.1179 5.50518C5.80143 5.1885 5.62373 4.75908 5.62388 4.31138C5.62402 3.86367 5.80202 3.43437 6.11869 3.1179C6.43537 2.80143 6.8648 2.62373 7.3125 2.62388C7.7602 2.62402 8.18951 2.80202 8.50598 3.11869C8.82244 3.43537 9.00015 3.8648 9 4.3125Z" fill="white"/>
</svg>
