<svg width="24" height="37" viewBox="0 0 24 37" fill="none" xmlns="http://www.w3.org/2000/svg">
<ellipse cx="12" cy="33.1667" rx="12" ry="3.5" fill="black" fill-opacity="0.12"/>
<path d="M12.0026 0C5.55261 0 0.335938 5.21667 0.335938 11.6667C0.335938 20.4167 12.0026 33.3333 12.0026 33.3333C12.0026 33.3333 23.6693 20.4167 23.6693 11.6667C23.6693 5.21667 18.4526 0 12.0026 0ZM12.0026 15.8333C10.8975 15.8333 9.83773 15.3943 9.05633 14.6129C8.27493 13.8315 7.83594 12.7717 7.83594 11.6667C7.83594 10.5616 8.27493 9.50179 9.05633 8.72039C9.83773 7.93899 10.8975 7.5 12.0026 7.5C13.1077 7.5 14.1675 7.93899 14.9489 8.72039C15.7303 9.50179 16.1693 10.5616 16.1693 11.6667C16.1693 12.7717 15.7303 13.8315 14.9489 14.6129C14.1675 15.3943 13.1077 15.8333 12.0026 15.8333Z" fill="#F35148"/>
</svg>
