<svg width="46" height="46" viewBox="0 0 46 46" fill="none" xmlns="http://www.w3.org/2000/svg">
<circle cx="23" cy="23" r="18" fill="url(#paint0_linear)"/>
<path fill-rule="evenodd" clip-rule="evenodd" d="M10.9797 3.38755C14.4789 1.2387 18.5979 0 23 0C27.4021 0 31.5211 1.23869 35.0203 3.38755C35.9616 3.96556 36.2561 5.19718 35.6781 6.13844C35.1 7.0797 33.8684 7.37417 32.9272 6.79615C30.0396 5.02292 26.6423 4 23 4C19.3577 4 15.9604 5.02292 13.0728 6.79615C12.1316 7.37417 10.9 7.0797 10.3219 6.13844C9.74393 5.19718 10.0384 3.96557 10.9797 3.38755ZM39.8616 10.3219C40.8028 9.74393 42.0344 10.0384 42.6124 10.9797C44.7613 14.4789 46 18.5979 46 23C46 27.4021 44.7613 31.5211 42.6125 35.0203C42.0344 35.9616 40.8028 36.2561 39.8616 35.6781C38.9203 35.1 38.6258 33.8684 39.2038 32.9272C40.9771 30.0396 42 26.6423 42 23C42 19.3577 40.9771 15.9604 39.2038 13.0728C38.6258 12.1316 38.9203 10.9 39.8616 10.3219ZM6.13844 10.3219C7.0797 10.9 7.37417 12.1316 6.79615 13.0728C5.02292 15.9604 4 19.3577 4 23C4 26.6423 5.02292 30.0396 6.79615 32.9272C7.37417 33.8684 7.0797 35.1 6.13844 35.6781C5.19718 36.2561 3.96557 35.9616 3.38755 35.0203C1.2387 31.5211 0 27.4021 0 23C0 18.5979 1.23869 14.4789 3.38755 10.9797C3.96556 10.0384 5.19718 9.74393 6.13844 10.3219ZM10.3219 39.8616C10.9 38.9203 12.1316 38.6258 13.0728 39.2038C15.9604 40.9771 19.3577 42 23 42C26.6423 42 30.0396 40.9771 32.9272 39.2038C33.8684 38.6258 35.1 38.9203 35.6781 39.8616C36.2561 40.8028 35.9616 42.0344 35.0203 42.6124C31.5211 44.7613 27.4021 46 23 46C18.5979 46 14.4789 44.7613 10.9797 42.6125C10.0384 42.0344 9.74393 40.8028 10.3219 39.8616Z" fill="url(#paint1_linear)"/>
<circle cx="23" cy="23" r="14" transform="rotate(45 23 23)" fill="url(#paint2_linear)"/>
<path d="M23.4477 13.888C26.0077 13.888 28.0557 14.664 29.5917 16.216L26.3757 19.384C25.5357 18.56 24.4677 18.148 23.1717 18.148C21.9877 18.148 21.0157 18.564 20.2557 19.396C19.4957 20.22 19.1157 21.288 19.1157 22.6C19.1157 23.344 19.2277 24.012 19.4517 24.604C19.6837 25.196 19.9917 25.676 20.3757 26.044C20.7597 26.412 21.1957 26.696 21.6837 26.896C22.1797 27.088 22.6997 27.184 23.2437 27.184C25.2997 27.184 26.5677 26.36 27.0477 24.712H23.1117V21.376H31.4637C31.5277 21.776 31.5597 22.28 31.5597 22.888C31.5597 23.976 31.4037 24.984 31.0917 25.912C30.7877 26.84 30.3717 27.628 29.8437 28.276C29.3157 28.924 28.7037 29.48 28.0077 29.944C27.3117 30.408 26.5757 30.752 25.7997 30.976C25.0317 31.192 24.2477 31.3 23.4477 31.3C22.1437 31.3 20.9317 31.084 19.8117 30.652C18.6997 30.22 17.7477 29.624 16.9557 28.864C16.1717 28.104 15.5557 27.184 15.1077 26.104C14.6677 25.024 14.4477 23.856 14.4477 22.6C14.4477 21.336 14.6677 20.164 15.1077 19.084C15.5557 18.004 16.1717 17.084 16.9557 16.324C17.7477 15.564 18.6997 14.968 19.8117 14.536C20.9317 14.104 22.1437 13.888 23.4477 13.888Z" fill="white"/>
<defs>
<linearGradient id="paint0_linear" x1="8.57029" y1="11.9978" x2="36.133" y2="35.9902" gradientUnits="userSpaceOnUse">
<stop stop-color="#FEFA74"/>
<stop offset="1" stop-color="#F5B909"/>
</linearGradient>
<linearGradient id="paint1_linear" x1="50.7111" y1="18.3549" x2="6.29698" y2="2.60511" gradientUnits="userSpaceOnUse">
<stop stop-color="white"/>
<stop offset="0.494792" stop-color="#9BA7BD"/>
<stop offset="1" stop-color="white"/>
</linearGradient>
<linearGradient id="paint2_linear" x1="11.7769" y1="14.4428" x2="33.2145" y2="33.1035" gradientUnits="userSpaceOnUse">
<stop stop-color="#FEFA74"/>
<stop offset="1" stop-color="#F5B909"/>
</linearGradient>
</defs>
</svg>
