<svg width="40" height="39" viewBox="0 0 40 39" fill="none" xmlns="http://www.w3.org/2000/svg">
<path d="M38.5662 13.5517L26.6646 11.822L21.3443 1.03605C21.199 0.74074 20.9599 0.501678 20.6646 0.356365C19.924 -0.00926 19.024 0.295428 18.6537 1.03605L13.3334 11.822L1.4318 13.5517C1.10368 13.5986 0.803677 13.7532 0.573989 13.9876C0.29631 14.273 0.143296 14.657 0.148569 15.0552C0.153843 15.4533 0.316973 15.8331 0.602114 16.1111L9.21305 24.5064L7.17868 36.3611C7.13097 36.6368 7.16149 36.9204 7.26676 37.1797C7.37204 37.439 7.54787 37.6637 7.77431 37.8281C8.00075 37.9926 8.26874 38.0903 8.54789 38.1102C8.82705 38.1301 9.10619 38.0714 9.35368 37.9407L19.999 32.3439L30.6443 37.9407C30.9349 38.0954 31.2724 38.147 31.5959 38.0907C32.4115 37.9501 32.9599 37.1767 32.8193 36.3611L30.7849 24.5064L39.3959 16.1111C39.6302 15.8814 39.7849 15.5814 39.8318 15.2532C39.9584 14.4329 39.3865 13.6736 38.5662 13.5517Z" fill="url(#starSvg)"/>
<defs>
<linearGradient id="starSvg" x1="0.148437" y1="0.20166" x2="40.806" y2="1.25692" gradientUnits="userSpaceOnUse">
<stop stop-color="#F9C151"/>
<stop offset="1" stop-color="#F77924"/>
</linearGradient>
</defs>
</svg>
