<svg width="260" height="355" viewBox="0 0 260 355" fill="none" xmlns="http://www.w3.org/2000/svg">
<path d="M130 355C201.797 355 260 349.479 260 342.67C260 335.86 201.797 330.34 130 330.34C58.203 330.34 0 335.86 0 342.67C0 349.479 58.203 355 130 355Z" fill="#E6E6E6"/>
<path d="M216.838 81.3933H214.955V29.8385C214.955 25.9201 214.184 22.04 212.684 18.4198C211.184 14.7996 208.986 11.5102 206.214 8.73948C203.443 5.96871 200.153 3.77082 196.533 2.2713C192.912 0.771777 189.031 -1.14692e-05 185.112 1.27837e-10H75.868C71.9489 -1.14692e-05 68.0681 0.771777 64.4473 2.2713C60.8266 3.77082 57.5366 5.96871 54.7654 8.73948C51.9942 11.5102 49.7959 14.7996 48.2961 18.4198C46.7963 22.04 46.0244 25.9201 46.0244 29.8385V312.672C46.0244 316.59 46.7963 320.471 48.2961 324.091C49.7959 327.711 51.9942 331 54.7654 333.771C57.5366 336.542 60.8266 338.74 64.4473 340.239C68.0681 341.739 71.9489 342.511 75.868 342.511H185.112C189.031 342.511 192.912 341.739 196.533 340.239C200.153 338.74 203.443 336.542 206.214 333.771C208.986 331 211.184 327.711 212.684 324.091C214.184 320.471 214.955 316.59 214.955 312.672V118.091H216.838V81.3933Z" fill="#3F3D56"/>
<path d="M208.604 30.0468V312.464C208.604 318.374 206.256 324.042 202.076 328.221C197.896 332.4 192.227 334.748 186.316 334.748H76.5481C70.637 334.748 64.9681 332.4 60.7883 328.221C56.6086 324.042 54.2604 318.374 54.2603 312.464V30.0468C54.2604 24.1367 56.6086 18.4687 60.7883 14.2897C64.9681 10.1106 70.637 7.76281 76.5481 7.7627H89.8643C89.2099 9.37033 88.9608 11.1141 89.1387 12.8406C89.3166 14.5672 89.9161 16.2235 90.8845 17.664C91.8529 19.1045 93.1605 20.285 94.6922 21.1016C96.224 21.9183 97.9331 22.3461 99.669 22.3474H162.254C163.99 22.3461 165.699 21.9183 167.231 21.1016C168.762 20.285 170.07 19.1045 171.038 17.664C172.007 16.2235 172.606 14.5671 172.784 12.8406C172.962 11.1141 172.713 9.37034 172.059 7.7627H186.316C192.227 7.7628 197.896 10.1106 202.076 14.2897C206.256 18.4687 208.604 24.1367 208.604 30.0468Z" fill="white"/>
<path d="M104.969 243.873H102.661L103.43 198.788H104.2L104.969 243.873Z" fill="#E6E6E6"/>
<path d="M106.892 170.404L110.619 164.646C109.514 161.594 108.237 158.606 106.796 155.698L104.386 157.644L106.294 154.696C104.476 151.117 103.045 148.863 103.045 148.863C103.045 148.863 95.572 160.637 93.0752 173.104L97.8569 180.493L92.5634 176.218C92.3748 177.67 92.2778 179.133 92.2729 180.597C92.2729 195.361 97.0958 207.331 103.045 207.331C108.994 207.331 113.817 195.361 113.817 180.597C113.817 176.02 112.782 171.231 111.353 166.801L106.892 170.404Z" fill="#E6E6E6"/>
<path d="M165.066 243.873H162.758L163.528 198.788H164.297L165.066 243.873Z" fill="#E6E6E6"/>
<path d="M166.99 170.404L170.716 164.646C169.611 161.594 168.335 158.606 166.893 155.698L164.484 157.644L166.392 154.696C164.573 151.117 163.143 148.863 163.143 148.863C163.143 148.863 155.67 160.637 153.173 173.104L157.955 180.493L152.661 176.218C152.472 177.67 152.375 179.133 152.371 180.597C152.371 195.361 157.193 207.331 163.143 207.331C169.092 207.331 173.915 195.361 173.915 180.597C173.915 176.02 172.879 171.231 171.451 166.801L166.99 170.404Z" fill="#E6E6E6"/>
<path d="M103.212 94.4254C114.927 94.4254 124.423 84.9305 124.423 73.2181C124.423 61.5056 114.927 52.0107 103.212 52.0107C91.4979 52.0107 82.0015 61.5056 82.0015 73.2181C82.0015 84.9305 91.4979 94.4254 103.212 94.4254Z" fill="#E6E6E6"/>
<path d="M132.591 237.308H127.832L129.418 144.348H131.004L132.591 237.308Z" fill="#E6E6E6"/>
<path d="M136.557 85.8221L144.24 73.9501C141.962 67.6571 139.33 61.4976 136.358 55.501L131.39 59.5131L135.324 53.4346C131.575 46.0561 128.625 41.4072 128.625 41.4072C128.625 41.4072 113.216 65.6852 108.068 91.39L117.927 106.625L107.012 97.8103C106.624 100.805 106.424 103.82 106.414 106.84C106.414 137.283 116.358 161.962 128.625 161.962C140.892 161.962 150.836 137.283 150.836 106.84C150.836 97.4023 148.7 87.5284 145.755 78.3948L136.557 85.8221Z" fill="#E6E6E6"/>
<path d="M211.806 250.708V313.903C211.806 320.059 209.36 325.962 205.007 330.314C200.654 334.667 194.75 337.112 188.593 337.112H74.2707C68.1144 337.112 62.2102 334.667 57.857 330.314C53.5039 325.962 51.0582 320.059 51.0581 313.903V256.869C60.862 245.363 72.9467 236.014 86.5483 229.415C100.15 222.817 114.973 219.11 130.08 218.531C145.187 217.952 160.251 220.513 174.318 226.051C188.385 231.59 201.15 239.986 211.806 250.708Z" fill="#3F3D56"/>
<path opacity="0.2" d="M131.552 313.046C149.489 313.046 164.03 298.508 164.03 280.573C164.03 262.639 149.489 248.1 131.552 248.1C113.614 248.1 99.0732 262.639 99.0732 280.573C99.0732 298.508 113.614 313.046 131.552 313.046Z" fill="#F8A441"/>
<path d="M131.551 306.721C145.995 306.721 157.703 295.014 157.703 280.573C157.703 266.133 145.995 254.426 131.551 254.426C117.108 254.426 105.4 266.133 105.4 280.573C105.4 295.014 117.108 306.721 131.551 306.721Z" fill="#F8A441"/>
<path d="M128.502 291.752L119.285 279.905L124.645 275.737L129.008 281.346L143.75 265.788L148.68 270.457L128.502 291.752Z" fill="white"/>
</svg>
