<svg width="89" height="82" viewBox="0 0 89 82" fill="none" xmlns="http://www.w3.org/2000/svg">
<ellipse cx="68.578" cy="61.4913" rx="16.1845" ry="16.1291" fill="url(#paint0_linear)"/>
<circle r="11.3098" transform="matrix(0.708318 -0.705893 0.708318 0.705893 68.4154 61.4914)" fill="url(#paint1_linear)"/>
<path d="M68.5311 53.9362C70.973 53.9062 72.9296 54.6705 74.401 56.2292L72.217 58.4232C71.265 57.3568 70.0191 56.8331 68.4792 56.852C67.064 56.8695 65.904 57.3568 64.9991 58.314C64.1014 59.2637 63.6619 60.4866 63.6804 61.9825C63.6994 63.515 64.173 64.7449 65.1012 65.6723C66.0294 66.5996 67.1792 67.0548 68.5504 67.0379C69.797 67.0226 70.7833 66.7208 71.5094 66.1325C72.2355 65.5442 72.6944 64.6951 72.886 63.5854L68.9703 63.6335L68.9385 61.0707L76.022 60.9836C76.0546 61.2472 76.0728 61.5367 76.0767 61.852C76.0957 63.3845 75.7901 64.7634 75.1599 65.9886C74.5296 67.2064 73.6467 68.1597 72.5111 68.8484C71.3755 69.5297 70.089 69.8792 68.6518 69.8969C67.8012 69.9074 66.9749 69.8039 66.1728 69.5864C65.3706 69.3616 64.6294 69.026 63.9491 68.5797C63.2761 68.1259 62.6827 67.5868 62.169 66.9624C61.6552 66.338 61.2501 65.6023 60.9535 64.7552C60.6643 63.9007 60.5136 62.9895 60.5017 62.0216C60.4875 60.8776 60.6759 59.8082 61.067 58.8134C61.4653 57.8111 62.0157 56.9572 62.7184 56.2519C63.421 55.5465 64.2722 54.9896 65.2719 54.5813C66.2788 54.1656 67.3652 53.9505 68.5311 53.9362Z" fill="url(#paint2_linear)"/>
<ellipse cx="68.5786" cy="61.4911" rx="19.4214" ry="19.3549" stroke="url(#paint3_linear)" stroke-width="2" stroke-linecap="round" stroke-dasharray="100 30"/>
<circle r="12.9254" transform="matrix(0.708318 0.705893 -0.708318 0.705893 68.5786 61.9973)" stroke="url(#paint4_linear)" stroke-width="2" stroke-linecap="round" stroke-dasharray="70 30"/>
<ellipse cx="20.4208" cy="61.6453" rx="16.1845" ry="16.1291" fill="url(#paint5_linear)"/>
<circle r="11.3098" transform="matrix(0.708318 -0.705893 0.708318 0.705893 20.2581 61.6454)" fill="url(#paint6_linear)"/>
<path d="M20.4601 54.2211C22.3079 54.1984 23.7459 54.5364 24.774 55.2351C25.8093 55.9264 26.3358 56.987 26.3535 58.4169C26.3628 59.1722 26.1622 59.8494 25.7516 60.4485C25.341 61.0476 24.8108 61.4685 24.1611 61.7112C24.8975 61.9514 25.5115 62.3803 26.0032 62.9976C26.5022 63.6148 26.7567 64.3268 26.7667 65.1334C26.7848 66.5926 26.2997 67.6986 25.3117 68.4515C24.3236 69.2044 22.8946 69.5923 21.0247 69.6153L14.3593 69.6973L14.1685 54.2985L20.4601 54.2211ZM17.3487 63.2581L17.3945 66.9538L20.8374 66.9224C21.754 66.9111 22.4416 66.767 22.9002 66.49C23.3587 66.2057 23.5836 65.7152 23.575 65.0186C23.5665 64.3293 23.3296 63.8555 22.8644 63.5972C22.399 63.3316 21.7081 63.2044 20.7915 63.2157L17.3487 63.2581ZM17.2708 56.9665L17.3154 60.5633L20.4611 60.5246C21.3264 60.5139 21.9921 60.3774 22.4582 60.115C22.9316 59.8451 23.164 59.3656 23.1554 58.6763C23.1512 58.3317 23.0779 58.0392 22.9356 57.7989C22.8006 57.5586 22.6003 57.3777 22.3348 57.2563C22.0765 57.1274 21.7931 57.0393 21.4845 56.9917C21.1758 56.9442 20.8162 56.9229 20.4056 56.928L17.2708 56.9665Z" fill="url(#paint7_linear)"/>
<ellipse cx="20.4214" cy="61.6451" rx="19.4214" ry="19.3549" stroke="url(#paint8_linear)" stroke-width="2" stroke-linecap="round" stroke-dasharray="100 30"/>
<circle r="12.9254" transform="matrix(0.708318 0.705893 -0.708318 0.705893 20.4209 62.1513)" stroke="url(#paint9_linear)" stroke-width="2" stroke-linecap="round" stroke-dasharray="70 30"/>
<ellipse cx="45.0224" cy="20.355" rx="16.1845" ry="16.1291" fill="url(#paint10_linear)"/>
<circle r="11.3098" transform="matrix(0.708318 -0.705893 0.708318 0.705893 44.8597 20.3551)" fill="url(#paint11_linear)"/>
<path d="M51.124 27.8905L39.9158 28.0284L39.7251 12.6296L42.7939 12.5918L42.949 25.1199L51.0884 25.0197L51.124 27.8905Z" fill="url(#paint12_linear)"/>
<ellipse cx="45.0215" cy="20.3549" rx="19.4214" ry="19.3549" stroke="url(#paint13_linear)" stroke-width="2" stroke-linecap="round" stroke-dasharray="100 30"/>
<circle r="12.9254" transform="matrix(0.708318 0.705893 -0.708318 0.705893 45.0225 20.8606)" stroke="url(#paint14_linear)" stroke-width="2" stroke-linecap="round" stroke-dasharray="70 30"/>
<defs>
<linearGradient id="paint0_linear" x1="55.6037" y1="51.6327" x2="80.3131" y2="73.2152" gradientUnits="userSpaceOnUse">
<stop stop-color="#FEFA74"/>
<stop offset="1" stop-color="#F5B909"/>
</linearGradient>
<linearGradient id="paint1_linear" x1="2.24329" y1="4.39684" x2="19.5615" y2="19.4717" gradientUnits="userSpaceOnUse">
<stop stop-color="#FEFA74"/>
<stop offset="1" stop-color="#F5B909"/>
</linearGradient>
<linearGradient id="paint2_linear" x1="75.6405" y1="62.8963" x2="62.9038" y2="60.4336" gradientUnits="userSpaceOnUse">
<stop stop-color="white"/>
<stop offset="0.494792" stop-color="#9BA7BD"/>
<stop offset="1" stop-color="white"/>
</linearGradient>
<linearGradient id="paint3_linear" x1="91.9781" y1="57.5822" x2="54.5033" y2="44.2475" gradientUnits="userSpaceOnUse">
<stop stop-color="white"/>
<stop offset="0.494792" stop-color="#9BA7BD"/>
<stop offset="1" stop-color="white"/>
</linearGradient>
<linearGradient id="paint4_linear" x1="28.4984" y1="10.315" x2="3.53875" y2="1.46401" gradientUnits="userSpaceOnUse">
<stop stop-color="white"/>
<stop offset="0.494792" stop-color="#9BA7BD"/>
<stop offset="1" stop-color="white"/>
</linearGradient>
<linearGradient id="paint5_linear" x1="7.44651" y1="51.7866" x2="32.1558" y2="73.3692" gradientUnits="userSpaceOnUse">
<stop stop-color="#FEFA74"/>
<stop offset="1" stop-color="#F5B909"/>
</linearGradient>
<linearGradient id="paint6_linear" x1="2.24329" y1="4.39684" x2="19.5615" y2="19.4717" gradientUnits="userSpaceOnUse">
<stop stop-color="#FEFA74"/>
<stop offset="1" stop-color="#F5B909"/>
</linearGradient>
<linearGradient id="paint7_linear" x1="27.4843" y1="62.8963" x2="14.7476" y2="60.4335" gradientUnits="userSpaceOnUse">
<stop stop-color="white"/>
<stop offset="0.494792" stop-color="#9BA7BD"/>
<stop offset="1" stop-color="white"/>
</linearGradient>
<linearGradient id="paint8_linear" x1="43.8209" y1="57.7362" x2="6.34603" y2="44.4015" gradientUnits="userSpaceOnUse">
<stop stop-color="white"/>
<stop offset="0.494792" stop-color="#9BA7BD"/>
<stop offset="1" stop-color="white"/>
</linearGradient>
<linearGradient id="paint9_linear" x1="28.4984" y1="10.315" x2="3.53875" y2="1.46401" gradientUnits="userSpaceOnUse">
<stop stop-color="white"/>
<stop offset="0.494792" stop-color="#9BA7BD"/>
<stop offset="1" stop-color="white"/>
</linearGradient>
<linearGradient id="paint10_linear" x1="32.0481" y1="10.4964" x2="56.7574" y2="32.0789" gradientUnits="userSpaceOnUse">
<stop stop-color="#FEFA74"/>
<stop offset="1" stop-color="#F5B909"/>
</linearGradient>
<linearGradient id="paint11_linear" x1="2.24329" y1="4.39684" x2="19.5615" y2="19.4717" gradientUnits="userSpaceOnUse">
<stop stop-color="#FEFA74"/>
<stop offset="1" stop-color="#F5B909"/>
</linearGradient>
<linearGradient id="paint12_linear" x1="52.0848" y1="21.2391" x2="39.3481" y2="18.7764" gradientUnits="userSpaceOnUse">
<stop stop-color="white"/>
<stop offset="0.494792" stop-color="#9BA7BD"/>
<stop offset="1" stop-color="white"/>
</linearGradient>
<linearGradient id="paint13_linear" x1="68.421" y1="16.4459" x2="30.9461" y2="3.11126" gradientUnits="userSpaceOnUse">
<stop stop-color="white"/>
<stop offset="0.494792" stop-color="#9BA7BD"/>
<stop offset="1" stop-color="white"/>
</linearGradient>
<linearGradient id="paint14_linear" x1="28.4984" y1="10.315" x2="3.53875" y2="1.46401" gradientUnits="userSpaceOnUse">
<stop stop-color="white"/>
<stop offset="0.494792" stop-color="#9BA7BD"/>
<stop offset="1" stop-color="white"/>
</linearGradient>
</defs>
</svg>
