<svg width="500" height="297" viewBox="0 0 500 297" fill="none" xmlns="http://www.w3.org/2000/svg">
<g opacity="0.38" clip-path="url(#clip0)">
<path d="M240.756 297C370.614 297 475.884 288.378 475.884 277.742C475.884 267.107 370.614 258.485 240.756 258.485C110.898 258.485 5.62695 267.107 5.62695 277.742C5.62695 288.378 110.898 297 240.756 297Z" fill="#3F3D56"/>
<path d="M393.487 62.604H86.7988V277.595H393.487V62.604Z" fill="#F2F2F2"/>
<path d="M189.621 144.633H112.615V278.78H189.621V144.633Z" fill="#3F3D56"/>
<path d="M147.603 152.681H126.859V171.977H147.603V152.681Z" fill="#F2F2F2"/>
<path d="M175.378 152.681H154.635V171.977H175.378V152.681Z" fill="#F2F2F2"/>
<path d="M147.603 178.994H126.859V198.993H147.603V178.994Z" fill="#F2F2F2"/>
<path d="M175.378 178.994H154.635V198.993H175.378V178.994Z" fill="#F2F2F2"/>
<path d="M179.83 225.624C182.534 225.624 184.726 223.436 184.726 220.738C184.726 218.039 182.534 215.852 179.83 215.852C177.126 215.852 174.934 218.039 174.934 220.738C174.934 223.436 177.126 225.624 179.83 225.624Z" fill="#F8A441"/>
<path d="M367.671 131.898H215.439V259.383H367.671V131.898Z" fill="#3F3D56"/>
<path d="M425.536 103.079H54.75L79.4721 51.4987L85.0047 39.9497L92.2429 24.8469L97.7755 13.2979L104.189 -0.0810547H396.322L400.11 13.2979L403.382 24.8469L407.66 39.9497L410.931 51.4987L425.536 103.079Z" fill="#3F3D56"/>
<path d="M226.121 184.758H220.779V217.628H226.121V184.758Z" fill="#F8A441"/>
<path d="M226.121 189.644H220.779V193.642H226.121V189.644Z" fill="#F2F2F2"/>
<path d="M226.121 208.745H220.779V212.742H226.121V208.745Z" fill="#F2F2F2"/>
<path d="M241.701 184.758H228.793V217.628H241.701V184.758Z" fill="#F8A441"/>
<path d="M241.701 189.644H228.793V193.642H241.701V189.644Z" fill="#F2F2F2"/>
<path d="M241.701 208.745H228.793V212.742H241.701V208.745Z" fill="#F2F2F2"/>
<path d="M250.158 184.758H244.816V217.628H250.158V184.758Z" fill="#F8A441"/>
<path d="M250.158 189.644H244.816V193.642H250.158V189.644Z" fill="#F2F2F2"/>
<path d="M250.158 208.745H244.816V212.742H250.158V208.745Z" fill="#F2F2F2"/>
<path d="M258.17 184.758H252.828V217.628H258.17V184.758Z" fill="#F8A441"/>
<path d="M258.17 189.644H252.828V193.642H258.17V189.644Z" fill="#F2F2F2"/>
<path d="M258.17 208.745H252.828V212.742H258.17V208.745Z" fill="#F2F2F2"/>
<path d="M263.317 184.874L258.318 186.754L269.937 217.512L274.935 215.632L263.317 184.874Z" fill="#F8A441"/>
<path d="M265.045 189.447L260.047 191.327L261.46 195.067L266.458 193.187L265.045 189.447Z" fill="#F2F2F2"/>
<path d="M271.795 207.319L266.797 209.199L268.21 212.94L273.208 211.06L271.795 207.319Z" fill="#F2F2F2"/>
<path d="M362.774 184.758H349.865V217.628H362.774V184.758Z" fill="#F8A441"/>
<path d="M362.774 189.644H349.865V193.642H362.774V189.644Z" fill="#F2F2F2"/>
<path d="M362.774 208.745H349.865V212.742H362.774V208.745Z" fill="#F2F2F2"/>
<path d="M346.75 184.758H341.408V217.628H346.75V184.758Z" fill="#F8A441"/>
<path d="M346.75 189.644H341.408V193.642H346.75V189.644Z" fill="#F2F2F2"/>
<path d="M346.75 208.745H341.408V212.742H346.75V208.745Z" fill="#F2F2F2"/>
<path d="M338.738 184.758H333.396V217.628H338.738V184.758Z" fill="#F8A441"/>
<path d="M338.738 189.644H333.396V193.642H338.738V189.644Z" fill="#F2F2F2"/>
<path d="M338.738 208.745H333.396V212.742H338.738V208.745Z" fill="#F2F2F2"/>
<path d="M328.247 184.874L316.629 215.632L321.627 217.512L333.245 186.754L328.247 184.874Z" fill="#F8A441"/>
<path d="M326.52 189.446L325.107 193.187L330.106 195.067L331.519 191.326L326.52 189.446Z" fill="#F2F2F2"/>
<path d="M319.77 207.319L318.357 211.06L323.356 212.94L324.769 209.199L319.77 207.319Z" fill="#F2F2F2"/>
<path d="M367.671 217.628H215.439V220.738H367.671V217.628Z" fill="#F2F2F2"/>
<path d="M309.804 184.758H281.762V217.628H309.804V184.758Z" fill="#F8A441"/>
<path d="M302.904 191.865H288.66V198.084H302.904V191.865Z" fill="#F2F2F2"/>
<path d="M292.89 131.898H290.219V160.327H292.89V131.898Z" fill="#F2F2F2"/>
<path d="M291.555 164.769C294.013 164.769 296.006 162.78 296.006 160.327C296.006 157.874 294.013 155.885 291.555 155.885C289.096 155.885 287.104 157.874 287.104 160.327C287.104 162.78 289.096 164.769 291.555 164.769Z" fill="#F2F2F2"/>
<path d="M403.381 24.8468H92.2422L97.7748 13.2979H400.11L403.381 24.8468Z" fill="#F8A441"/>
<path d="M410.932 51.4987H79.4727L85.0053 39.9497H407.66L410.932 51.4987Z" fill="#F8A441"/>
<path d="M59.3824 183.222C92.1784 183.222 118.765 156.691 118.765 123.963C118.765 91.2353 92.1784 64.7041 59.3824 64.7041C26.5864 64.7041 0 91.2353 0 123.963C0 156.691 26.5864 183.222 59.3824 183.222Z" fill="#F8A441"/>
<path opacity="0.1" d="M59.3833 174.926C87.5879 174.926 110.452 152.109 110.452 123.963C110.452 95.8173 87.5879 73.0005 59.3833 73.0005C31.1788 73.0005 8.31445 95.8173 8.31445 123.963C8.31445 152.109 31.1788 174.926 59.3833 174.926Z" fill="black"/>
<path d="M56.935 154.036V146.619C53.1777 146.545 49.2907 145.223 47.0234 143.387L48.5781 138.467C51.2724 140.482 54.5399 141.588 57.9067 141.624C62.5063 141.624 65.6159 138.613 65.6159 134.427C65.6159 130.388 63.0893 127.891 58.2954 125.688C51.6876 122.75 47.6064 119.372 47.6064 112.983C47.6064 106.887 51.4286 102.26 57.3886 101.159V93.7412H61.405V100.865C64.4 100.906 67.3213 101.797 69.8268 103.435L68.207 108.283C65.804 106.641 62.9566 105.77 60.0446 105.785C55.0565 105.785 53.1777 109.164 53.1777 112.101C53.1777 115.92 55.5746 117.83 61.2108 120.474C67.8831 123.558 71.252 127.377 71.252 133.913C71.252 139.715 67.6889 145.15 61.0162 146.398V154.036H56.935Z" fill="#F2F2F2"/>
</g>
<path d="M372.517 31.4039L367.596 26.4829C364.726 23.6125 360.833 22 356.774 22C352.714 22 348.821 23.6125 345.951 26.4829L250.5 121.934L155.049 26.4829C152.179 23.6125 148.286 22 144.226 22C140.167 22 136.274 23.6125 133.404 26.4829L128.483 31.4039C127.062 32.8251 125.934 34.5124 125.165 36.3693C124.396 38.2262 124 40.2165 124 42.2264C124 44.2364 124.396 46.2267 125.165 48.0836C125.934 49.9405 127.062 51.6278 128.483 53.049L223.934 148.5L128.483 243.951C127.062 245.372 125.934 247.059 125.165 248.916C124.396 250.773 124 252.764 124 254.774C124 256.783 124.396 258.774 125.165 260.631C125.934 262.488 127.062 264.175 128.483 265.596L133.404 270.517C136.274 273.387 140.167 275 144.226 275C148.286 275 152.179 273.387 155.049 270.517L250.5 175.066L345.951 270.517C348.821 273.387 352.714 275 356.774 275C360.833 275 364.726 273.387 367.596 270.517L372.517 265.596C375.387 262.726 377 258.833 377 254.774C377 250.714 375.387 246.821 372.517 243.951L277.066 148.5L372.517 53.049C375.387 50.1787 377 46.2857 377 42.2264C377 38.1672 375.387 34.2742 372.517 31.4039Z" fill="#FF6584"/>
<defs>
<clipPath id="clip0">
<rect width="500" height="297" fill="white"/>
</clipPath>
</defs>
</svg>
