<svg width="476" height="298" viewBox="0 0 476 298" fill="none" xmlns="http://www.w3.org/2000/svg">
<path d="M240.756 298C370.614 298 475.884 289.378 475.884 278.742C475.884 268.107 370.614 259.485 240.756 259.485C110.898 259.485 5.62695 268.107 5.62695 278.742C5.62695 289.378 110.898 298 240.756 298Z" fill="#3F3D56"/>
<path d="M386.403 10.3706C386.403 10.3706 387.946 31.1652 387.946 31.9354C387.946 32.7056 377.141 85.8475 377.141 85.8475C377.141 85.8475 361.706 115.114 377.141 114.344C392.577 113.574 387.946 86.6177 387.946 86.6177L404.154 41.9477L397.208 10.3706L386.403 10.3706Z" fill="#A0616A"/>
<path d="M393.487 63.604H86.7988V278.595H393.487V63.604Z" fill="#F2F2F2"/>
<path d="M189.621 145.633H112.615V279.78H189.621V145.633Z" fill="#3F3D56"/>
<path d="M147.603 153.681H126.859V172.977H147.603V153.681Z" fill="#F2F2F2"/>
<path d="M175.378 153.681H154.635V172.977H175.378V153.681Z" fill="#F2F2F2"/>
<path d="M147.603 179.994H126.859V199.993H147.603V179.994Z" fill="#F2F2F2"/>
<path d="M175.378 179.994H154.635V199.993H175.378V179.994Z" fill="#F2F2F2"/>
<path d="M179.83 226.624C182.534 226.624 184.726 224.436 184.726 221.738C184.726 219.039 182.534 216.852 179.83 216.852C177.126 216.852 174.934 219.039 174.934 221.738C174.934 224.436 177.126 226.624 179.83 226.624Z" fill="#F8A441"/>
<path d="M367.671 132.898H215.439V260.383H367.671V132.898Z" fill="#3F3D56"/>
<path d="M425.536 104.079H54.75L79.4721 52.4987L85.0047 40.9497L92.2429 25.8469L97.7755 14.2979L104.189 0.918945H396.322L400.11 14.2979L403.382 25.8469L407.66 40.9497L410.931 52.4987L425.536 104.079Z" fill="#3F3D56"/>
<path d="M226.121 185.758H220.779V218.628H226.121V185.758Z" fill="#F8A441"/>
<path d="M226.121 190.644H220.779V194.642H226.121V190.644Z" fill="#F2F2F2"/>
<path d="M226.121 209.745H220.779V213.742H226.121V209.745Z" fill="#F2F2F2"/>
<path d="M241.701 185.758H228.793V218.628H241.701V185.758Z" fill="#F8A441"/>
<path d="M241.701 190.644H228.793V194.642H241.701V190.644Z" fill="#F2F2F2"/>
<path d="M241.701 209.745H228.793V213.742H241.701V209.745Z" fill="#F2F2F2"/>
<path d="M250.158 185.758H244.816V218.628H250.158V185.758Z" fill="#F8A441"/>
<path d="M250.158 190.644H244.816V194.642H250.158V190.644Z" fill="#F2F2F2"/>
<path d="M250.158 209.745H244.816V213.742H250.158V209.745Z" fill="#F2F2F2"/>
<path d="M258.17 185.758H252.828V218.628H258.17V185.758Z" fill="#F8A441"/>
<path d="M258.17 190.644H252.828V194.642H258.17V190.644Z" fill="#F2F2F2"/>
<path d="M258.17 209.745H252.828V213.742H258.17V209.745Z" fill="#F2F2F2"/>
<path d="M263.317 185.874L258.318 187.754L269.937 218.512L274.935 216.632L263.317 185.874Z" fill="#F8A441"/>
<path d="M265.045 190.447L260.047 192.327L261.46 196.067L266.458 194.187L265.045 190.447Z" fill="#F2F2F2"/>
<path d="M271.795 208.319L266.797 210.199L268.21 213.94L273.208 212.06L271.795 208.319Z" fill="#F2F2F2"/>
<path d="M362.774 185.758H349.865V218.628H362.774V185.758Z" fill="#F8A441"/>
<path d="M362.774 190.644H349.865V194.642H362.774V190.644Z" fill="#F2F2F2"/>
<path d="M362.774 209.745H349.865V213.742H362.774V209.745Z" fill="#F2F2F2"/>
<path d="M346.75 185.758H341.408V218.628H346.75V185.758Z" fill="#F8A441"/>
<path d="M346.75 190.644H341.408V194.642H346.75V190.644Z" fill="#F2F2F2"/>
<path d="M346.75 209.745H341.408V213.742H346.75V209.745Z" fill="#F2F2F2"/>
<path d="M338.738 185.758H333.396V218.628H338.738V185.758Z" fill="#F8A441"/>
<path d="M338.738 190.644H333.396V194.642H338.738V190.644Z" fill="#F2F2F2"/>
<path d="M338.738 209.745H333.396V213.742H338.738V209.745Z" fill="#F2F2F2"/>
<path d="M328.247 185.874L316.629 216.632L321.627 218.512L333.245 187.754L328.247 185.874Z" fill="#F8A441"/>
<path d="M326.52 190.446L325.107 194.187L330.106 196.067L331.519 192.326L326.52 190.446Z" fill="#F2F2F2"/>
<path d="M319.77 208.319L318.357 212.06L323.356 213.94L324.769 210.199L319.77 208.319Z" fill="#F2F2F2"/>
<path d="M367.671 218.628H215.439V221.738H367.671V218.628Z" fill="#F2F2F2"/>
<path d="M309.804 185.758H281.762V218.628H309.804V185.758Z" fill="#F8A441"/>
<path d="M302.904 192.865H288.66V199.084H302.904V192.865Z" fill="#F2F2F2"/>
<path d="M292.89 132.898H290.219V161.327H292.89V132.898Z" fill="#F2F2F2"/>
<path d="M291.555 165.769C294.013 165.769 296.006 163.78 296.006 161.327C296.006 158.874 294.013 156.885 291.555 156.885C289.096 156.885 287.104 158.874 287.104 161.327C287.104 163.78 289.096 165.769 291.555 165.769Z" fill="#F2F2F2"/>
<path d="M403.381 25.8468H92.2422L97.7748 14.2979H400.11L403.381 25.8468Z" fill="#F8A441"/>
<path d="M410.932 52.4987H79.4727L85.0053 40.9497H407.66L410.932 52.4987Z" fill="#F8A441"/>
<path d="M59.3824 184.222C92.1784 184.222 118.765 157.691 118.765 124.963C118.765 92.2353 92.1784 65.7041 59.3824 65.7041C26.5864 65.7041 0 92.2353 0 124.963C0 157.691 26.5864 184.222 59.3824 184.222Z" fill="#F8A441"/>
<path opacity="0.1" d="M59.3833 175.926C87.5879 175.926 110.452 153.109 110.452 124.963C110.452 96.8173 87.5879 74.0005 59.3833 74.0005C31.1788 74.0005 8.31445 96.8173 8.31445 124.963C8.31445 153.109 31.1788 175.926 59.3833 175.926Z" fill="black"/>
<path d="M56.935 155.036V147.619C53.1777 147.545 49.2907 146.223 47.0234 144.387L48.5781 139.467C51.2724 141.482 54.5399 142.588 57.9067 142.624C62.5063 142.624 65.6159 139.613 65.6159 135.427C65.6159 131.388 63.0893 128.891 58.2954 126.688C51.6876 123.75 47.6064 120.372 47.6064 113.983C47.6064 107.887 51.4286 103.26 57.3886 102.159V94.7412H61.405V101.865C64.4 101.906 67.3213 102.797 69.8268 104.435L68.207 109.283C65.804 107.641 62.9566 106.77 60.0446 106.785C55.0565 106.785 53.1777 110.164 53.1777 113.101C53.1777 116.92 55.5746 118.83 61.2108 121.474C67.8831 124.558 71.252 128.377 71.252 134.913C71.252 140.715 67.6889 146.15 61.0162 147.398V155.036H56.935Z" fill="#F2F2F2"/>
</svg>
