<svg width="500" height="304" viewBox="0 0 500 304" fill="none" xmlns="http://www.w3.org/2000/svg">
<path d="M298.597 281.258C266.21 281.258 234.824 270.011 209.788 249.432C184.752 228.854 167.614 200.217 161.296 168.402C154.977 136.587 159.868 103.562 175.135 74.9541C190.403 46.346 215.102 23.925 245.024 11.5113C274.946 -0.902416 308.241 -2.54069 339.234 6.87561C370.227 16.2919 397.001 36.1801 414.995 63.1516C432.988 90.1231 441.088 122.509 437.914 154.791C434.739 187.073 420.487 217.254 397.585 240.192C384.616 253.252 369.19 263.607 352.198 270.656C335.207 277.705 316.989 281.308 298.597 281.258ZM298.597 2.2925C222.206 2.2925 160.058 64.5384 160.058 141.049C160.058 217.559 222.206 279.805 298.597 279.805C374.988 279.805 437.137 217.559 437.137 141.049C437.137 64.5384 374.988 2.2925 298.597 2.2925Z" fill="#3F3D56"/>
<path d="M250 304C388.071 304 500 295.543 500 285.112C500 274.68 388.071 266.223 250 266.223C111.929 266.223 0 274.68 0 285.112C0 295.543 111.929 304 250 304Z" fill="#3F3D56"/>
<path opacity="0.1" d="M180.126 297.22C273.464 297.22 349.13 291.582 349.13 284.627C349.13 277.673 273.464 272.035 180.126 272.035C86.7877 272.035 11.1221 277.673 11.1221 284.627C11.1221 291.582 86.7877 297.22 180.126 297.22Z" fill="black"/>
<path d="M452.206 259.473C450.595 273.61 459.273 286.212 459.273 286.212C459.273 286.212 470.563 275.893 472.173 261.755C473.784 247.618 465.107 235.016 465.107 235.016C465.107 235.016 453.817 245.336 452.206 259.473Z" fill="#2F2E41"/>
<path d="M458.36 258.744C464.166 271.73 459.702 286.371 459.702 286.371C459.702 286.371 445.825 279.956 440.018 266.97C434.212 253.983 438.676 239.343 438.676 239.343C438.676 239.343 452.554 245.757 458.36 258.744Z" fill="#F8A441"/>
<path d="M302.494 284.366C332.42 284.366 356.68 260.069 356.68 230.096C356.68 200.123 332.42 175.826 302.494 175.826C272.568 175.826 248.309 200.123 248.309 230.096C248.309 260.069 272.568 284.366 302.494 284.366Z" fill="#F2F2F2"/>
<path d="M302.494 146.429L289.146 179.852L240.878 180.24L225.153 180.367L187.837 180.668L172.119 180.795L134.804 181.095L119.086 181.222L81.7699 181.53L66.052 181.657L40.8634 181.857L35.9912 171.871L29.6706 158.936L26.18 151.776L24.1777 146.429L36.158 108.426C37.3293 104.713 39.6514 101.47 42.7873 99.1683C45.9233 96.8665 49.7099 95.6253 53.5979 95.6249H271.566C275.341 95.627 279.023 96.7986 282.107 98.9791C285.191 101.16 287.526 104.242 288.792 107.804L290.18 111.722L302.494 146.429Z" fill="#F8A441"/>
<path d="M302.494 146.429H24.1777V216.619H302.494V146.429Z" fill="#F8A441"/>
<path opacity="0.1" d="M302.494 146.429H24.1777V216.619H302.494V146.429Z" fill="black"/>
<path d="M306.6 50.0173H298.39V58.2401H306.6V50.0173Z" fill="#3F3D56"/>
<path d="M328.767 225.985H320.557V234.207H328.767V225.985Z" fill="#3F3D56"/>
<path d="M252.104 55.851H73.9014V280.457H252.104V55.851Z" fill="#F2F2F2"/>
<path d="M163.337 71.8943H111.277V79.2475H163.337V71.8943Z" fill="#3F3D56"/>
<path d="M240.757 101.975H83.9121V105.318H240.757V101.975Z" fill="#E6E6E6"/>
<path d="M240.757 112.671H83.9121V116.013H240.757V112.671Z" fill="#E6E6E6"/>
<path d="M240.757 123.366H83.9121V126.709H240.757V123.366Z" fill="#E6E6E6"/>
<path d="M240.757 134.062H83.9121V137.404H240.757V134.062Z" fill="#E6E6E6"/>
<path d="M240.757 144.757H83.9121V148.1H240.757V144.757Z" fill="#E6E6E6"/>
<path d="M240.757 155.453H83.9121V158.795H240.757V155.453Z" fill="#E6E6E6"/>
<path d="M90.5874 85.2636C88.3434 85.2636 86.1497 84.5971 84.2838 83.3484C82.4179 82.0997 80.9637 80.3249 80.1049 78.2484C79.2461 76.1719 79.0214 73.887 79.4592 71.6826C79.897 69.4782 80.9777 67.4534 82.5645 65.8641C84.1513 64.2748 86.173 63.1925 88.3739 62.754C90.5749 62.3155 92.8562 62.5406 94.9295 63.4007C97.0027 64.2608 98.7747 65.7174 100.021 67.5861C101.268 69.4549 101.934 71.652 101.934 73.8996C101.93 76.9125 100.734 79.801 98.6067 81.9314C96.4796 84.0619 93.5956 85.2602 90.5874 85.2636ZM90.5874 63.8726C88.6074 63.8726 86.6718 64.4607 85.0254 65.5624C83.3791 66.6642 82.0959 68.2302 81.3381 70.0624C80.5804 71.8946 80.3821 73.9107 80.7684 75.8558C81.1547 77.8008 82.1082 79.5875 83.5083 80.9898C84.9084 82.3921 86.6923 83.3471 88.6343 83.734C90.5763 84.1209 92.5893 83.9223 94.4186 83.1634C96.248 82.4045 97.8115 81.1193 98.9116 79.4703C100.012 77.8214 100.599 75.8828 100.599 73.8996C100.596 71.2412 99.5401 68.6925 97.6633 66.8127C95.7864 64.933 93.2417 63.8756 90.5874 63.8726Z" fill="#F8A441"/>
<path d="M302.494 286.139H24.1777V146.429L60.2188 174.505L267.788 173.167L302.494 146.429V286.139Z" fill="#3F3D56"/>
<path d="M90.5865 253.718H38.5273V261.071H90.5865V253.718Z" fill="#F2F2F2"/>
<path d="M65.8476 239.91C64.7 239.91 63.5781 239.57 62.6238 238.931C61.6696 238.292 60.9258 237.385 60.4866 236.323C60.0474 235.261 59.9325 234.092 60.1564 232.965C60.3803 231.837 60.933 230.802 61.7445 229.989C62.556 229.176 63.59 228.623 64.7156 228.399C65.8412 228.174 67.0079 228.289 68.0682 228.729C69.1285 229.169 70.0348 229.914 70.6724 230.87C71.31 231.826 71.6503 232.949 71.6503 234.099C71.6486 235.639 71.0367 237.117 69.9488 238.206C68.861 239.296 67.3861 239.909 65.8476 239.91ZM65.8476 229.255C64.8912 229.255 63.9563 229.54 63.1611 230.072C62.3659 230.604 61.7461 231.36 61.3801 232.245C61.0141 233.13 60.9184 234.104 61.105 235.044C61.2915 235.983 61.7521 236.846 62.4284 237.523C63.1046 238.201 63.9662 238.662 64.9043 238.849C65.8423 239.036 66.8145 238.94 67.6981 238.573C68.5817 238.207 69.3369 237.586 69.8683 236.789C70.3996 235.993 70.6832 235.057 70.6832 234.099C70.6818 232.815 70.1719 231.584 69.2653 230.676C68.3588 229.768 67.1297 229.257 65.8476 229.255Z" fill="white"/>
<path d="M353.822 146.708C362.49 146.708 373.215 143.832 383.666 133.437C409.251 107.987 433.558 105.434 433.8 105.412L433.71 104.447C433.464 104.47 408.813 107.058 382.984 132.749C369.712 145.951 356.013 146.76 346.859 145.113C340.812 144.013 335.053 141.688 329.935 138.281L329.363 139.063C334.59 142.548 340.472 144.929 346.65 146.059C349.016 146.489 351.416 146.706 353.822 146.708Z" fill="#2F2E41"/>
<path d="M420.77 125.73C423.975 125.73 426.573 123.128 426.573 119.918C426.573 116.709 423.975 114.107 420.77 114.107C417.566 114.107 414.968 116.709 414.968 119.918C414.968 123.128 417.566 125.73 420.77 125.73Z" fill="#2F2E41"/>
<path d="M379.668 152.852C382.873 152.852 385.471 150.25 385.471 147.04C385.471 143.83 382.873 141.228 379.668 141.228C376.463 141.228 373.865 143.83 373.865 147.04C373.865 150.25 376.463 152.852 379.668 152.852Z" fill="#2F2E41"/>
</svg>
