<svg width="12" height="13" viewBox="0 0 12 13" fill="none" xmlns="http://www.w3.org/2000/svg">
<path d="M6.47876 0.399999C8.12876 0.399999 9.35576 0.714999 10.1598 1.345C10.9638 1.975 11.3658 2.866 11.3658 4.018C11.3658 4.612 11.2128 5.137 10.9068 5.593C10.6068 6.049 10.2018 6.409 9.69176 6.673C10.2498 6.877 10.7088 7.231 11.0688 7.735C11.4348 8.233 11.6178 8.782 11.6178 9.382C11.6178 10.534 11.2218 11.425 10.4298 12.055C9.63776 12.685 8.42876 13 6.80276 13H0.826758V0.399999H6.47876ZM4.24676 8.059V10.219L6.61376 10.228C7.60376 10.228 8.09876 9.865 8.09876 9.139C8.09876 8.419 7.60376 8.059 6.61376 8.059H4.24676ZM4.24676 3.19V5.287H6.39776C7.34576 5.287 7.81976 4.936 7.81976 4.234C7.81976 3.538 7.34876 3.19 6.40676 3.19H4.24676Z" fill="white"/>
</svg>
