<svg width="12" height="12" viewBox="0 0 12 12" fill="none" xmlns="http://www.w3.org/2000/svg">
<path d="M11.625 12H0.375C0.273438 12 0.185547 11.9629 0.111328 11.8887C0.0371094 11.8145 0 11.7266 0 11.625C0 11.5234 0.0371094 11.4355 0.111328 11.3613C0.185547 11.2871 0.273438 11.25 0.375 11.25H0.75V6.75C0.75 6.33594 0.896484 5.98242 1.18945 5.68945C1.48242 5.39648 1.83594 5.25 2.25 5.25H9.75C10.1641 5.25 10.5176 5.39648 10.8105 5.68945C11.1035 5.98242 11.25 6.33594 11.25 6.75V11.25H11.625C11.7266 11.25 11.8145 11.2871 11.8887 11.3613C11.9629 11.4355 12 11.5234 12 11.625C12 11.7266 11.9629 11.8145 11.8887 11.8887C11.8145 11.9629 11.7266 12 11.625 12ZM9.375 2.25C9.47656 2.25 9.56445 2.28711 9.63867 2.36133C9.71289 2.43555 9.75 2.52344 9.75 2.625V4.5H8.25V2.625C8.25 2.52344 8.28711 2.43555 8.36133 2.36133C8.43555 2.28711 8.52344 2.25 8.625 2.25H9.375ZM9.12891 1.875C9.29297 1.72656 9.375 1.57031 9.375 1.40625C9.375 1.35156 9.3457 1.27539 9.28711 1.17773C9.22852 1.08008 9.17188 0.996094 9.11719 0.925781L9.03516 0.820312C8.98047 1.10938 8.86328 1.30469 8.68359 1.40625C8.62891 1.45312 8.61133 1.52148 8.63086 1.61133C8.65039 1.70117 8.69141 1.78906 8.75391 1.875C8.68359 1.875 8.56641 1.80469 8.40234 1.66406C8.30078 1.57031 8.25 1.46484 8.25 1.34766C8.25 1.17578 8.33594 1.01953 8.50781 0.878906C8.58594 0.808594 8.63672 0.701172 8.66016 0.556641C8.68359 0.412109 8.68359 0.28125 8.66016 0.164062L8.625 0C9.03125 0.15625 9.33203 0.367188 9.52734 0.632812C9.68359 0.851562 9.75781 1.07031 9.75 1.28906C9.74219 1.53125 9.72266 1.66797 9.69141 1.69922C9.63672 1.74609 9.54883 1.78711 9.42773 1.82227C9.30664 1.85742 9.20703 1.875 9.12891 1.875ZM6.375 2.25C6.47656 2.25 6.56445 2.28711 6.63867 2.36133C6.71289 2.43555 6.75 2.52344 6.75 2.625V4.5H5.25V2.625C5.25 2.52344 5.28711 2.43555 5.36133 2.36133C5.43555 2.28711 5.52344 2.25 5.625 2.25H6.375ZM6.12891 1.875C6.29297 1.72656 6.375 1.57031 6.375 1.40625C6.375 1.35156 6.3457 1.27539 6.28711 1.17773C6.22852 1.08008 6.17188 0.996094 6.11719 0.925781L6.03516 0.820312C5.98047 1.10938 5.86328 1.30469 5.68359 1.40625C5.62891 1.45312 5.61133 1.52148 5.63086 1.61133C5.65039 1.70117 5.69141 1.78906 5.75391 1.875C5.68359 1.875 5.56641 1.80469 5.40234 1.66406C5.30078 1.57031 5.25 1.46484 5.25 1.34766C5.25 1.17578 5.33594 1.01953 5.50781 0.878906C5.58594 0.808594 5.63672 0.701172 5.66016 0.556641C5.68359 0.412109 5.68359 0.28125 5.66016 0.164062L5.625 0C6.03125 0.15625 6.33203 0.367188 6.52734 0.632812C6.68359 0.851562 6.75781 1.07031 6.75 1.28906C6.74219 1.53125 6.72266 1.66797 6.69141 1.69922C6.63672 1.74609 6.54883 1.78711 6.42773 1.82227C6.30664 1.85742 6.20703 1.875 6.12891 1.875ZM3.375 2.25C3.47656 2.25 3.56445 2.28711 3.63867 2.36133C3.71289 2.43555 3.75 2.52344 3.75 2.625V4.5H2.25V2.625C2.25 2.52344 2.28711 2.43555 2.36133 2.36133C2.43555 2.28711 2.52344 2.25 2.625 2.25H3.375ZM3.12891 1.875C3.29297 1.72656 3.375 1.57031 3.375 1.40625C3.375 1.35156 3.3457 1.27539 3.28711 1.17773C3.22852 1.08008 3.17188 0.996094 3.11719 0.925781L3.03516 0.820312C2.98047 1.10938 2.86328 1.30469 2.68359 1.40625C2.62891 1.45312 2.61133 1.52148 2.63086 1.61133C2.65039 1.70117 2.69141 1.78906 2.75391 1.875C2.68359 1.875 2.56641 1.80469 2.40234 1.66406C2.30078 1.57031 2.25 1.46484 2.25 1.34766C2.25 1.17578 2.33594 1.01953 2.50781 0.878906C2.58594 0.808594 2.63477 0.701172 2.6543 0.556641C2.67383 0.412109 2.67578 0.28125 2.66016 0.164062L2.625 0C3.03125 0.15625 3.33203 0.367188 3.52734 0.632812C3.68359 0.851562 3.75781 1.07031 3.75 1.28906C3.74219 1.53125 3.72266 1.66797 3.69141 1.69922C3.63672 1.74609 3.54883 1.78711 3.42773 1.82227C3.30664 1.85742 3.20703 1.875 3.12891 1.875Z" fill="white"/>
</svg>
