<svg width="22" height="20" viewBox="0 0 22 20"  xmlns="http://www.w3.org/2000/svg">
<path d="M21.079 0.400025H0.920195C0.521795 0.400025 0.200195 0.720425 0.200195 1.12003V4.00003H21.8002V1.12003C21.8002 1.02537 21.7815 0.931648 21.7453 0.844216C21.709 0.756783 21.6559 0.677358 21.5889 0.610484C21.5219 0.54361 21.4424 0.4906 21.3549 0.454487C21.2674 0.418375 21.1736 0.399868 21.079 0.400025ZM1.4002 17.92C1.4002 18.844 2.155 19.6 3.07899 19.6H18.919C19.843 19.6 20.599 18.8428 20.599 17.92V5.20003H1.4002V17.92ZM7.4002 7.60003H14.6002V10H7.4002V7.60003Z" />
</svg>
