<svg width="16" height="18" viewBox="0 0 16 18" fill="none" xmlns="http://www.w3.org/2000/svg">
<path d="M3.83203 8.1665H5.4987V9.83317H3.83203V8.1665ZM3.83203 11.4998H5.4987V13.1665H3.83203V11.4998ZM7.16536 8.1665H8.83203V9.83317H7.16536V8.1665ZM7.16536 11.4998H8.83203V13.1665H7.16536V11.4998ZM10.4987 8.1665H12.1654V9.83317H10.4987V8.1665ZM10.4987 11.4998H12.1654V13.1665H10.4987V11.4998Z" fill="white"/>
<path d="M2.16667 17.3332H13.8333C14.7525 17.3332 15.5 16.5857 15.5 15.6665V3.99984C15.5 3.08067 14.7525 2.33317 13.8333 2.33317H12.1667V0.666504H10.5V2.33317H5.5V0.666504H3.83333V2.33317H2.16667C1.2475 2.33317 0.5 3.08067 0.5 3.99984V15.6665C0.5 16.5857 1.2475 17.3332 2.16667 17.3332ZM13.8333 5.6665L13.8342 15.6665H2.16667V5.6665H13.8333Z" fill="white"/>
</svg>
