<svg width="20" height="20" viewBox="0 0 20 20" xmlns="http://www.w3.org/2000/svg">
<path fill-rule="evenodd" clip-rule="evenodd" d="M16.763 2.30699H18.7999C19.2417 2.30699 19.5999 2.6652 19.5999 3.10699V18.8C19.5999 19.2418 19.2417 19.6 18.7999 19.6H1.1999C0.758105 19.6 0.399902 19.2418 0.399902 18.8V3.10699C0.399902 2.6652 0.758105 2.30699 1.1999 2.30699H3.23682V1.19996C3.23682 0.758166 3.59502 0.399963 4.03682 0.399963C4.47861 0.399963 4.83682 0.758166 4.83682 1.19996V2.30699H9.1999V1.19996C9.1999 0.758166 9.5581 0.399963 9.9999 0.399963C10.4417 0.399963 10.7999 0.758166 10.7999 1.19996V2.30699H15.163V1.19996C15.163 0.758166 15.5212 0.399963 15.963 0.399963C16.4048 0.399963 16.763 0.758166 16.763 1.19996V2.30699ZM8.6674 12.4619C8.48281 12.6972 8.14983 13.0356 7.66843 13.4772C7.18701 13.9188 6.88205 14.212 6.75359 14.3568C6.6251 14.5016 6.52102 14.6427 6.44138 14.7802H9.47097V16.1973H4.12305C4.18098 15.6616 4.35469 15.154 4.64426 14.6744C4.93386 14.1948 5.50574 13.5586 6.35994 12.766C7.04765 12.1253 7.46933 11.691 7.62497 11.4629C7.83489 11.148 7.93989 10.8368 7.93989 10.5291C7.93989 10.1888 7.84851 9.92732 7.6657 9.74453C7.48291 9.56177 7.23047 9.47036 6.9083 9.47036C6.58977 9.47036 6.33642 9.56628 6.14822 9.75813C5.95998 9.94998 5.85137 10.2685 5.82246 10.7137L4.30222 10.5616C4.3927 9.72192 4.67686 9.11924 5.15461 8.75369C5.63242 8.38813 6.22966 8.20532 6.94629 8.20532C7.73178 8.20532 8.3489 8.41709 8.79773 8.84058C9.24653 9.26404 9.47097 9.7907 9.47097 10.4205C9.47097 10.7789 9.40669 11.12 9.27822 11.4439C9.14973 11.7679 8.94614 12.1072 8.6674 12.4619ZM12.408 11.1262C12.7482 10.9561 13.0957 10.871 13.4504 10.871C14.1273 10.871 14.701 11.1172 15.1715 11.6094C15.642 12.1017 15.8773 12.7406 15.8773 13.526C15.8773 14.1811 15.6873 14.7657 15.3072 15.2797C14.7896 15.9819 14.0711 16.333 13.1518 16.333C12.417 16.333 11.818 16.1357 11.3547 15.7412C10.8914 15.3466 10.6145 14.8164 10.524 14.1504L12.0442 13.9929C12.0876 14.3368 12.2162 14.6092 12.4297 14.81C12.6432 15.0109 12.8894 15.1114 13.1681 15.1114C13.4866 15.1114 13.7563 14.982 13.977 14.7232C14.1978 14.4644 14.3082 14.0744 14.3082 13.5532C14.3082 13.0645 14.1988 12.698 13.9798 12.4537C13.7608 12.2094 13.4758 12.0872 13.1246 12.0872C12.6867 12.0872 12.294 12.2809 11.9465 12.6682L10.7086 12.489L11.4904 8.3464H15.5244V9.77433H12.6469L12.408 11.1262Z" />
</svg>
