<svg width="24" height="20" viewBox="0 0 24 20" xmlns="http://www.w3.org/2000/svg">
<path d="M22.2241 6.23201H20.7361L19.7761 3.232C19.2721 1.696 17.8561 0.664001 16.2481 0.664001H7.7521C6.1441 0.664001 4.7041 1.696 4.2241 3.232L3.2641 6.23201H1.7761C1.1281 6.23201 0.600098 6.76001 0.600098 7.40801V8.08001C0.600098 8.72801 1.1281 9.25601 1.7761 9.25601H2.1841C1.9441 10.336 1.8241 11.44 1.8241 12.544V18.184C1.8241 18.832 2.3521 19.36 3.0001 19.36H4.9681C5.6161 19.36 6.1441 18.832 6.1441 18.184V16.384H17.9041V18.184C17.9041 18.832 18.4321 19.36 19.0801 19.36H21.0481C21.6961 19.36 22.2241 18.832 22.2241 18.184V12.52C22.2241 11.416 22.1041 10.312 21.8641 9.23201H22.2721C22.9201 9.23201 23.4481 8.70401 23.4481 8.05601V7.38401C23.4001 6.76001 22.8721 6.23201 22.2241 6.23201ZM5.3281 7.43201L6.4561 3.928C6.6481 3.352 7.1761 2.968 7.7521 2.968H16.2481C16.8481 2.968 17.3761 3.352 17.5441 3.928L18.6721 7.43201C18.7201 7.60001 18.6001 7.74401 18.4321 7.74401H5.5681C5.4001 7.76801 5.2801 7.60001 5.3281 7.43201ZM7.7761 13.168H5.4001C4.9921 13.168 4.6801 12.856 4.6801 12.448V11.32C4.6801 10.888 5.0881 10.528 5.5201 10.6L7.7281 10.96C8.0161 11.008 8.2561 11.224 8.3281 11.512L8.4961 12.28C8.5921 12.736 8.2561 13.168 7.7761 13.168ZM19.2961 12.448C19.2961 12.856 18.9841 13.168 18.5761 13.168H16.2001C15.7441 13.168 15.4081 12.736 15.5041 12.304L15.6721 11.536C15.7441 11.248 15.9601 11.032 16.2721 10.984L18.4801 10.624C18.9121 10.552 19.3201 10.888 19.3201 11.344V12.448H19.2961Z"/>
</svg>
