<svg width="24" height="24" viewBox="0 0 24 24" xmlns="http://www.w3.org/2000/svg">
<path d="M23.988 8.0707L22.9815 13.8446C22.8574 14.4824 22.3492 14.8703 21.7632 14.8775H7.09L6.79868 16.5197H20.7832C21.5196 16.5756 22.0191 17.0973 22.028 17.7645C21.9745 18.4993 21.4529 19.0002 20.7832 19.0093H5.31546C4.47892 18.9341 3.9801 18.2672 4.07062 17.5261L4.73276 13.924L3.7263 3.80642L0.865838 2.90596C0.166818 2.62842 -0.118482 1.99606 0.0447779 1.3433C0.316238 0.663003 0.966698 0.352183 1.60744 0.522243L5.26248 1.68762C5.75488 1.8722 6.03814 2.27526 6.11002 2.74706L6.3219 4.75998L22.902 6.61398C23.6638 6.779 24.0774 7.38242 23.988 8.0707ZM9.10544 21.6231C9.10544 22.6726 8.25464 23.5234 7.20508 23.5234C6.15554 23.5234 5.30474 22.6726 5.30474 21.6231C5.30474 20.5735 6.15556 19.7227 7.20508 19.7227C8.25462 19.7227 9.10544 20.5736 9.10544 21.6231ZM20.4505 21.6231C20.4505 22.6726 19.5997 23.5234 18.5501 23.5234C17.5006 23.5234 16.6498 22.6726 16.6498 21.6231C16.6498 20.5735 17.5006 19.7227 18.5501 19.7227C19.5997 19.7227 20.4505 20.5736 20.4505 21.6231Z" />
</svg>
