<svg width="20" height="20" viewBox="0 0 20 20" xmlns="http://www.w3.org/2000/svg">
<path d="M2.40107 15.5488L3.94268 15.5488L3.94268 18.8C3.94268 19.1232 4.13721 19.4148 4.43584 19.5388C4.53506 19.58 4.63916 19.6 4.74248 19.6C4.95029 19.6 5.15439 19.5191 5.30732 19.3668L9.13897 15.5488L17.5987 15.5488C18.7022 15.5488 19.5999 14.6531 19.5999 13.5521L19.5999 2.39664C19.5999 1.29567 18.7022 0.399963 17.5987 0.399963L2.40107 0.399963C1.29756 0.399963 0.399902 1.29567 0.399902 2.39664L0.399902 13.5521C0.399902 14.6531 1.29756 15.5488 2.40107 15.5488Z"/>
</svg>
