<svg width="22" height="24" viewBox="0 0 22 24" fill="none" xmlns="http://www.w3.org/2000/svg">
<path fill-rule="evenodd" clip-rule="evenodd" d="M6.78008 1.5375C8.34458 1.1235 10.0051 0.75 10.9996 0.75C11.9926 0.75 13.6546 1.1235 15.2191 1.5375C16.6145 1.91216 18.0009 2.31978 19.3771 2.76C20.1691 3.012 20.7661 3.6945 20.8816 4.536C21.7411 10.8315 19.7476 15.4965 17.3311 18.5835C16.3013 19.9083 15.0787 21.0712 13.7041 22.0335C13.2261 22.3683 12.7208 22.6623 12.1936 22.9125C11.7886 23.0985 11.3566 23.25 10.9996 23.25C10.6426 23.25 10.2106 23.0985 9.80558 22.9125C9.27823 22.6626 8.77293 22.3685 8.29508 22.0335C6.92099 21.0711 5.69892 19.9082 4.66958 18.5835C2.25008 15.4965 0.258081 10.8315 1.11758 4.536C1.17505 4.12811 1.34685 3.74483 1.61311 3.43052C1.87936 3.11622 2.22918 2.88374 2.62208 2.76C3.99825 2.31979 5.38464 1.91217 6.78008 1.5375ZM11.7721 11.8635C12.2667 11.6825 12.6821 11.3338 12.946 10.8781C13.2099 10.4223 13.3056 9.88844 13.2164 9.36941C13.1272 8.85037 12.8588 8.37907 12.4578 8.03759C12.0569 7.69612 11.5489 7.5061 11.0223 7.50063C10.4957 7.49517 9.98381 7.6746 9.57587 8.00769C9.16794 8.34077 8.88977 8.8064 8.78982 9.32347C8.68986 9.84054 8.77446 10.3763 9.02886 10.8374C9.28327 11.2985 9.69137 11.6558 10.1821 11.847C10.1504 11.9115 10.1282 11.9802 10.1161 12.051L9.61658 15.051C9.59873 15.1584 9.60447 15.2684 9.6334 15.3733C9.66234 15.4783 9.71378 15.5757 9.78415 15.6588C9.85452 15.7418 9.94213 15.8086 10.0409 15.8544C10.1397 15.9002 10.2472 15.924 10.3561 15.924H11.6086C11.7179 15.9241 11.8259 15.9002 11.925 15.8542C12.0242 15.8081 12.1121 15.7409 12.1825 15.6573C12.253 15.5737 12.3043 15.4757 12.3329 15.3702C12.3615 15.2647 12.3667 15.1542 12.3481 15.0465L11.8276 12.0465C11.817 11.9834 11.7983 11.9219 11.7721 11.8635Z" fill="white"/>
</svg>
