<svg width="42" height="43" viewBox="0 0 42 43" fill="none" xmlns="http://www.w3.org/2000/svg">
<path d="M29.6146 25.0381C30.2094 24.5632 30.742 24.0154 31.2001 23.4076C32.025 22.3104 32.588 21.0391 32.8459 19.6908C33.1037 18.3425 33.0497 16.9531 32.6878 15.629C32.326 14.3048 31.6659 13.081 30.7582 12.0513C29.8505 11.0216 28.7192 10.2132 27.4509 9.68804C26.1826 9.1629 24.811 8.93495 23.441 9.02161C22.071 9.10828 20.7391 9.50728 19.5471 10.1881C18.3551 10.8688 17.3347 11.8133 16.5639 12.9493C15.7932 14.0852 15.2927 15.3824 15.1006 16.7416C13.121 17.1353 11.2825 18.0504 9.77494 19.3924C8.26738 20.7344 7.14545 22.4545 6.52507 24.3751C4.44041 24.9713 2.64146 26.3009 1.45976 28.1188C0.278053 29.9367 -0.206776 32.1205 0.0946164 34.2677C0.396009 36.4149 1.46331 38.3808 3.09984 39.8031C4.73637 41.2255 6.83183 42.0084 9.00008 42.0076H25.5001C27.5174 42.0133 29.4779 41.3393 31.0653 40.0944C32.6527 38.8494 33.7746 37.1061 34.2499 35.1456C34.7253 33.185 34.5265 31.1215 33.6855 29.2878C32.8445 27.4541 31.4105 25.957 29.6146 25.0381ZM24.0001 12.0076C25.5909 12.0092 27.1161 12.6418 28.241 13.7667C29.3658 14.8916 29.9985 16.4168 30.0001 18.0076C30.0043 19.3065 29.5828 20.571 28.8001 21.6076C28.4056 22.1265 27.9294 22.5779 27.3901 22.9441C26.5391 21.1775 25.2436 19.6624 23.6306 18.5474C22.0175 17.4325 20.1424 16.7559 18.1891 16.5841C18.5067 15.2815 19.2516 14.1228 20.305 13.2933C21.3583 12.4637 22.6593 12.011 24.0001 12.0076ZM25.5001 39.0076H9.00008C7.49752 39.0101 6.04892 38.4478 4.9416 37.4321C3.83427 36.4165 3.14913 35.0218 3.02207 33.5246C2.89501 32.0274 3.33531 30.5372 4.25564 29.3495C5.17597 28.1618 6.50909 27.3634 7.99058 27.1126L8.98507 26.9446L9.20407 25.9606C9.61177 24.1305 10.6311 22.494 12.094 21.3212C13.5569 20.1483 15.3758 19.5092 17.2508 19.5092C19.1258 19.5092 20.9448 20.1483 22.4076 21.3212C23.8705 22.494 24.8899 24.1305 25.2976 25.9606L25.5166 26.9446L26.5096 27.1126C27.9911 27.3634 29.3242 28.1618 30.2445 29.3495C31.1648 30.5372 31.6051 32.0274 31.4781 33.5246C31.351 35.0218 30.6659 36.4165 29.5586 37.4321C28.4512 38.4478 27.0026 39.0101 25.5001 39.0076Z" fill="white"/>
<path d="M36 16.5073H42V19.5073H36V16.5073Z" fill="white"/>
<path d="M31.4253 8.46148L35.6673 4.21948L37.7883 6.34048L33.5463 10.5825L31.4253 8.46148Z" fill="white"/>
<path d="M22.5 0.00732422H25.5V6.00732H22.5V0.00732422Z" fill="white"/>
<path d="M10.2114 6.34048L12.3324 4.21948L16.5744 8.45998L14.4534 10.581L10.2114 6.34048Z" fill="white"/>
</svg>
