<svg width="23" height="24" viewBox="0 0 23 24" fill="none" xmlns="http://www.w3.org/2000/svg">
<path d="M18.0202 11.919C20.7281 11.919 22.9233 10.594 22.9233 8.9595C22.9233 7.32501 20.7281 6 18.0202 6C15.3124 6 13.1172 7.32501 13.1172 8.9595C13.1172 10.594 15.3124 11.919 18.0202 11.919Z" fill="white"/>
<path fill-rule="evenodd" clip-rule="evenodd" d="M18.0906 13.6213C14.5837 13.6213 13.1875 12.0598 13.1875 11.1553V15.0298C13.1875 16.6648 15.3828 17.9878 18.0906 17.9878C20.8011 17.9878 22.9964 16.6648 22.9964 15.0298V11.2483C22.9964 12.1543 21.5988 13.6213 18.0906 13.6213Z" fill="white"/>
<path fill-rule="evenodd" clip-rule="evenodd" d="M18.0906 19.6078C14.9536 19.6078 13.1875 18.1063 13.1875 17.2018V21.0403C13.1875 22.6753 15.3828 23.9998 18.0906 23.9998C20.8011 23.9998 22.9964 22.6753 22.9964 21.0403V17.1553C22.9964 18.0598 21.2289 19.6078 18.0906 19.6078Z" fill="white"/>
<path d="M5.96827 5.919C9.03794 5.919 11.5264 4.59399 11.5264 2.9595C11.5264 1.32501 9.03794 0 5.96827 0C2.89861 0 0.410156 1.32501 0.410156 2.9595C0.410156 4.59399 2.89861 5.919 5.96827 5.919Z" fill="white"/>
<path fill-rule="evenodd" clip-rule="evenodd" d="M6.14406 7.62127C2.16994 7.62127 0.585938 6.05977 0.585938 5.15527V9.02977C0.585938 10.6648 3.07488 11.9878 6.14406 11.9878C9.21606 11.9878 11.7036 10.6648 11.7036 9.02977V5.24827C11.7036 6.15427 10.1182 7.62127 6.14406 7.62127Z" fill="white"/>
<path fill-rule="evenodd" clip-rule="evenodd" d="M6.14406 13.6078C2.58782 13.6078 0.585938 12.1063 0.585938 11.2018V15.0403C0.585938 16.6753 3.07488 17.9998 6.14406 17.9998C9.21606 17.9998 11.7036 16.6753 11.7036 15.0403V11.1553C11.7036 12.0598 9.69888 13.6078 6.14406 13.6078Z" fill="white"/>
<path fill-rule="evenodd" clip-rule="evenodd" d="M6.14406 19.6078C2.58782 19.6078 0.585938 18.1063 0.585938 17.2018V21.0403C0.585937 22.6753 3.07488 23.9998 6.14406 23.9998C9.21606 23.9998 11.7036 22.6753 11.7036 21.0403V17.1553C11.7036 18.0598 9.69888 19.6078 6.14406 19.6078Z" fill="white"/>
</svg>
