<svg width="20" height="20" viewBox="0 0 20 20" fill="none" xmlns="http://www.w3.org/2000/svg">
<path d="M19 3.71783e-09L4 7.82701e-10C3.46957 6.78908e-10 2.96086 0.210714 2.58579 0.585786C2.21071 0.960859 2 1.46957 2 2L2 5L-9.78376e-10 5L-1.36973e-09 7L2 7L2 9L-1.76108e-09 9L-2.15243e-09 11L2 11L2 13L-2.54378e-09 13L-2.93513e-09 15L2 15L2 18C2 18.5304 2.21071 19.0391 2.58579 19.4142C2.96086 19.7893 3.46957 20 4 20L19 20C19.2652 20 19.5196 19.8946 19.7071 19.7071C19.8946 19.5196 20 19.2652 20 19L20 1C20 0.734784 19.8946 0.48043 19.7071 0.292893C19.5196 0.105357 19.2652 3.76972e-09 19 3.71783e-09ZM11 2.999C12.648 2.999 14 4.35 14 5.999C13.9971 6.79385 13.6801 7.55533 13.1182 8.11747C12.5562 8.67962 11.7948 8.99684 11 9C9.353 9 8 7.647 8 5.999C8 4.35 9.353 2.999 11 2.999ZM17 16L5 16L5 15.25C5 13.031 7.705 10.75 11 10.75C14.295 10.75 17 13.031 17 15.25L17 16Z" fill="white" fill-opacity="0.54"/>
</svg>
