<svg width="20" height="19" viewBox="0 0 20 19" fill="none" xmlns="http://www.w3.org/2000/svg">
<path d="M1 1.00008C0.734784 1.00008 0.48043 1.10544 0.292893 1.29297C0.105357 1.48051 0 1.73486 0 2.00008V7.50008C0 9.19008 1.03 10.6301 2.5 11.2201V17.5001C2.5 17.8979 2.65804 18.2794 2.93934 18.5607C3.22064 18.842 3.60218 19.0001 4 19.0001C4.39782 19.0001 4.77936 18.842 5.06066 18.5607C5.34196 18.2794 5.5 17.8979 5.5 17.5001V11.2201C6.97 10.6301 8 9.19008 8 7.50008V2.00008C8 1.73486 7.89464 1.48051 7.70711 1.29297C7.51957 1.10544 7.26522 1.00008 7 1.00008C6.73478 1.00008 6.48043 1.10544 6.29289 1.29297C6.10536 1.48051 6 1.73486 6 2.00008V6.00008C6 6.13269 5.94732 6.25987 5.85355 6.35364C5.75979 6.4474 5.63261 6.50008 5.5 6.50008C5.36739 6.50008 5.24021 6.4474 5.14645 6.35364C5.05268 6.25987 5 6.13269 5 6.00008V2.00008C5 1.73486 4.89464 1.48051 4.70711 1.29297C4.51957 1.10544 4.26522 1.00008 4 1.00008C3.73478 1.00008 3.48043 1.10544 3.29289 1.29297C3.10536 1.48051 3 1.73486 3 2.00008V6.00008C3 6.13269 2.94732 6.25987 2.85355 6.35364C2.75979 6.4474 2.63261 6.50008 2.5 6.50008C2.36739 6.50008 2.24021 6.4474 2.14645 6.35364C2.05268 6.25987 2 6.13269 2 6.00008V2.00008C2 1.73486 1.89464 1.48051 1.70711 1.29297C1.51957 1.10544 1.26522 1.00008 1 1.00008ZM17.88 1.00008C17.75 1.00008 17.62 1.09008 17.5 1.16008L14 3.25008V7.00008H10V9.00008H11L12 19.0001H18L19 9.00008H20V7.00008H16V4.34008L18.5 2.84008C19 2.56008 19.13 2.00008 18.84 1.50008C18.63 1.14008 18.26 0.950081 17.88 1.00008Z" fill="white" fill-opacity="0.54"/>
</svg>
