<svg width="20" height="19" viewBox="0 0 20 19" fill="none" xmlns="http://www.w3.org/2000/svg">
<path d="M5 5C5.26522 5 5.51957 4.93415 5.70711 4.81694C5.89464 4.69973 6 4.54076 6 4.375V0.625C6 0.45924 5.89464 0.300268 5.70711 0.183058C5.51957 0.065848 5.26522 0 5 0C4.73478 0 4.48043 0.065848 4.29289 0.183058C4.10536 0.300268 4 0.45924 4 0.625V4.375C4 4.54076 4.10536 4.69973 4.29289 4.81694C4.48043 4.93415 4.73478 5 5 5Z" fill="#7F61D9"/>
<path d="M15 5C15.2652 5 15.5196 4.93415 15.7071 4.81694C15.8946 4.69973 16 4.54076 16 4.375V0.625C16 0.45924 15.8946 0.300268 15.7071 0.183058C15.5196 0.065848 15.2652 0 15 0C14.7348 0 14.4804 0.065848 14.2929 0.183058C14.1054 0.300268 14 0.45924 14 0.625V4.375C14 4.54076 14.1054 4.69973 14.2929 4.81694C14.4804 4.93415 14.7348 5 15 5Z" fill="#7F61D9"/>
<path d="M18.9061 2.00008H16.4061V3.96161C16.4061 4.34311 16.2613 4.70898 16.0034 4.97875C15.7456 5.24851 15.3958 5.40006 15.0312 5.40006C14.6665 5.40006 14.3168 5.24851 14.0589 4.97875C13.8011 4.70898 13.6562 4.34311 13.6562 3.96161V2.00008H6.37506V3.96161C6.37506 4.34311 6.23019 4.70898 5.97234 4.97875C5.71448 5.24851 5.36475 5.40006 5.00008 5.40006C4.63541 5.40006 4.28568 5.24851 4.02782 4.97875C3.76997 4.70898 3.6251 4.34311 3.6251 3.96161V2.00008H1.12514C0.976409 1.9983 0.828847 2.02775 0.691183 2.08668C0.553519 2.14561 0.428549 2.23283 0.323664 2.34316C0.218779 2.4535 0.136109 2.58472 0.0805428 2.72907C0.024977 2.87341 -0.00235587 3.02794 0.000160654 3.18353V17.8165C-0.00232244 17.9694 0.0240003 18.1212 0.0776255 18.2634C0.131251 18.4056 0.211128 18.5354 0.312694 18.6453C0.414261 18.7552 0.535527 18.8431 0.669566 18.9039C0.803606 18.9648 0.947794 18.9974 1.09389 19H18.9061C19.0522 18.9974 19.1964 18.9648 19.3304 18.9039C19.4645 18.8431 19.5857 18.7552 19.6873 18.6453C19.7889 18.5354 19.8687 18.4056 19.9224 18.2634C19.976 18.1212 20.0023 17.9694 19.9998 17.8165V3.18353C20.0023 3.03069 19.976 2.87883 19.9224 2.73663C19.8687 2.59443 19.7889 2.46468 19.6873 2.35478C19.5857 2.24488 19.4645 2.15699 19.3304 2.09613C19.1964 2.03527 19.0522 2.00263 18.9061 2.00008ZM14.9624 8.91774L8.91877 15.2404L5.62507 11.7685C5.47915 11.6006 5.40011 11.3807 5.40413 11.1538C5.40815 10.9269 5.49494 10.7102 5.64671 10.5481C5.79848 10.386 6.00376 10.2907 6.2205 10.2818C6.43725 10.2728 6.64906 10.3509 6.81255 10.5L8.92502 12.71L13.7499 7.66236C13.8291 7.5795 13.9232 7.51377 14.0267 7.46893C14.1301 7.42409 14.241 7.40101 14.3531 7.40101C14.4651 7.40101 14.576 7.42409 14.6795 7.46893C14.7829 7.51377 14.877 7.5795 14.9562 7.66236C15.0354 7.74522 15.0982 7.84358 15.1411 7.95184C15.1839 8.0601 15.206 8.17614 15.206 8.29332C15.206 8.4105 15.1839 8.52653 15.1411 8.63479C15.0982 8.74305 15.0354 8.84142 14.9562 8.92428L14.9624 8.91774Z" fill="#7F61D9"/>
</svg>
