<svg width="24" height="18" viewBox="0 0 24 18" fill="none" xmlns="http://www.w3.org/2000/svg">
<path d="M1.49999 7.23563C1.17448 7.23596 0.85772 7.13028 0.597604 6.93459C0.337489 6.73889 0.148169 6.46382 0.0582753 6.15097C-0.0316185 5.83812 -0.0171972 5.50451 0.0993582 5.20058C0.215914 4.89665 0.428264 4.63894 0.704296 4.46643L4.73223 0.43849C5.01341 0.157511 5.39469 -0.000262491 5.79219 -0.000121977C6.1897 1.85382e-05 6.57087 0.158062 6.85184 0.439239C7.13282 0.720416 7.2906 1.1017 7.29046 1.4992C7.29032 1.8967 7.13227 2.27787 6.8511 2.55885L5.17129 4.23716H16.4849C16.8823 4.23716 17.2634 4.39503 17.5445 4.67605C17.8255 4.95707 17.9834 5.33822 17.9834 5.73565C17.9834 6.13307 17.8255 6.51422 17.5445 6.79524C17.2634 7.07626 16.8823 7.23413 16.4849 7.23413H1.49999V7.23563Z" fill="white"/>
<path d="M22.5 10.1847C22.8255 10.1844 23.1422 10.29 23.4024 10.4857C23.6625 10.6814 23.8518 10.9565 23.9417 11.2694C24.0316 11.5822 24.0172 11.9158 23.9006 12.2197C23.7841 12.5237 23.5717 12.7814 23.2957 12.9539L19.2677 16.9818C19.1285 17.121 18.9632 17.2313 18.7814 17.3066C18.5995 17.3818 18.4046 17.4205 18.2078 17.4204C18.0109 17.4204 17.8161 17.3815 17.6342 17.3062C17.4524 17.2308 17.2872 17.1203 17.1481 16.9811C17.009 16.8419 16.8987 16.6766 16.8234 16.4947C16.7481 16.3129 16.7094 16.1179 16.7095 15.9211C16.7096 15.7243 16.7484 15.5294 16.8238 15.3476C16.8992 15.1658 17.0096 15.0006 17.1489 14.8615L18.8287 13.1832H7.51509C7.11767 13.1832 6.73652 13.0253 6.4555 12.7443C6.17448 12.4632 6.0166 12.0821 6.0166 11.6847C6.0166 11.2873 6.17448 10.9061 6.4555 10.6251C6.73652 10.3441 7.11767 10.1862 7.51509 10.1862H22.5V10.1847Z" fill="white"/>
</svg>
