<svg width="22" height="22" viewBox="0 0 22 22" xmlns="http://www.w3.org/2000/svg">
<path d="M21.1833 10.836L11.5294 1.18913C11.4599 1.11948 11.3773 1.06423 11.2864 1.02653C11.1955 0.988827 11.0981 0.969421 10.9997 0.969421C10.9013 0.969421 10.8039 0.988827 10.713 1.02653C10.6221 1.06423 10.5395 1.11948 10.47 1.18913L0.816113 10.836C0.534863 11.1173 0.375488 11.4993 0.375488 11.8977C0.375488 12.7251 1.04814 13.3977 1.87549 13.3977H2.89268V20.2813C2.89268 20.6962 3.22783 21.0313 3.64268 21.0313H9.49971V15.7813H12.1247V21.0313H18.3567C18.7716 21.0313 19.1067 20.6962 19.1067 20.2813V13.3977H20.1239C20.5224 13.3977 20.9044 13.2407 21.1856 12.9571C21.7692 12.3712 21.7692 11.4219 21.1833 10.836Z"/>
</svg>
