<svg width="24" height="22" viewBox="0 0 24 22" fill="none" xmlns="http://www.w3.org/2000/svg">
<path d="M23.04 11.801L16.8 5.9915C16.104 5.35356 15.1941 4.99977 14.25 5H4.5C4.30109 5 4.11032 5.07902 3.96967 5.21967C3.82902 5.36032 3.75 5.55109 3.75 5.75C3.75 5.94891 3.82902 6.13968 3.96967 6.28033C4.11032 6.42098 4.30109 6.5 4.5 6.5H5.25C5.44891 6.5 5.63968 6.57902 5.78033 6.71967C5.92098 6.86032 6 7.05109 6 7.25C6 7.44891 5.92098 7.63968 5.78033 7.78033C5.63968 7.92098 5.44891 8 5.25 8H4.5C4.30109 8 4.11032 8.07902 3.96967 8.21967C3.82902 8.36032 3.75 8.55109 3.75 8.75V10.25C3.75 10.4489 3.82902 10.6397 3.96967 10.7803C4.11032 10.921 4.30109 11 4.5 11H5.25C5.44891 11 5.63968 11.079 5.78033 11.2197C5.92098 11.3603 6 11.5511 6 11.75C6 11.9489 5.92098 12.1397 5.78033 12.2803C5.63968 12.421 5.44891 12.5 5.25 12.5H4.5C4.30109 12.5 4.11032 12.579 3.96967 12.7197C3.82902 12.8603 3.75 13.0511 3.75 13.25C3.75 13.4489 3.82902 13.6397 3.96967 13.7803C4.11032 13.921 4.30109 14 4.5 14H7.5C7.69891 14 7.88968 14.079 8.03033 14.2197C8.17098 14.3603 8.25 14.5511 8.25 14.75C8.25 14.9489 8.17098 15.1397 8.03033 15.2803C7.88968 15.421 7.69891 15.5 7.5 15.5H4.5C4.30109 15.5 4.11032 15.579 3.96967 15.7197C3.82902 15.8603 3.75 16.0511 3.75 16.25C3.75 16.4489 3.82902 16.6397 3.96967 16.7803C4.11032 16.921 4.30109 17 4.5 17H21C21.7957 17 22.5587 16.6839 23.1213 16.1213C23.6839 15.5587 24 14.7956 24 14C24.0025 13.5867 23.9183 13.1775 23.753 12.7988C23.5876 12.42 23.3448 12.0801 23.04 11.801ZM18 11C17.55 11 17.1135 10.985 16.701 10.9595C16.623 10.9595 16.551 10.9475 16.473 10.9415C16.122 10.916 15.78 10.8845 15.462 10.841L15.3645 10.8275C10.9335 10.2065 9.561 8.021 9.15 6.5H14.25C14.8141 6.49994 15.358 6.71012 15.7755 7.0895L19.9785 11H18Z" fill="white"/>
<path d="M5.25 20C3.4755 20 1.5 16.304 1.5 11C1.5 5.696 3.4755 2 5.25 2C5.9265 2 6.6315 2.54 7.2465 3.5H8.955C8.0115 1.637 6.705 0.5 5.25 0.5C2.307 0.5 0 5.1125 0 11C0 16.8875 2.307 21.5 5.25 21.5C6.711 21.5 8.013 20.363 8.955 18.5H7.2465C6.6315 19.46 5.9265 20 5.25 20Z" fill="white"/>
</svg>
