<svg width="20" height="20" viewBox="0 0 20 20" xmlns="http://www.w3.org/2000/svg">
<path d="M18.7999 0.400024H15.28H11.7601H8.24014H4.72022H1.1999C0.758106 0.400024 0.399902 0.758228 0.399902 1.20002V4.10862C0.399902 4.80056 0.676953 5.42817 1.12451 5.88941V18.8C1.12451 19.2418 1.48272 19.6 1.92451 19.6H7.25381H12.7464H18.0753C18.5171 19.6 18.8753 19.2418 18.8753 18.8V5.88945C19.3229 5.42822 19.5999 4.80059 19.5999 4.10862V1.20002C19.5999 0.758228 19.2417 0.400024 18.7999 0.400024ZM17.9999 4.10862C17.9999 4.63792 17.5694 5.06878 17.0401 5.06878C16.5108 5.06878 16.08 4.63792 16.08 4.10862V2.00002H17.9999V4.10862ZM14.48 4.10862C14.48 4.63792 14.0495 5.06878 13.5202 5.06878C12.9909 5.06878 12.5601 4.63792 12.5601 4.10862V2.00002H14.48V4.10862ZM10.9601 4.10862C10.9601 4.63792 10.5292 5.06878 9.9999 5.06878C9.47061 5.06878 9.04014 4.63792 9.04014 4.10862V2.00002H10.9601V4.10862ZM7.44014 4.10862C7.44014 4.63792 7.00928 5.06878 6.47998 5.06878C5.95068 5.06878 5.52022 4.63792 5.52022 4.10862V2.00002H7.44014V4.10862ZM1.9999 2.00002H3.92022V4.10862C3.92022 4.63792 3.48936 5.06878 2.96006 5.06878C2.43076 5.06878 1.9999 4.63792 1.9999 4.10862V2.00002ZM8.05381 18V11.3094H11.9464V18H8.05381Z" />
</svg>
