<svg width="21" height="21" viewBox="0 0 21 21" xmlns="http://www.w3.org/2000/svg">
<path fill-rule="evenodd" clip-rule="evenodd" d="M20.7948 13.795C18.8964 14.5316 16.8247 14.7002 14.8322 14.2804C12.8396 13.8606 11.0121 12.8705 9.57223 11.4306C8.13235 9.99069 7.14221 8.16319 6.72241 6.17063C6.30261 4.17807 6.47125 2.10643 7.2078 0.208008C4.92746 1.09668 3.02898 2.75369 1.84016 4.89293C0.651334 7.03218 0.246779 9.51939 0.696343 11.9251C1.14591 14.3309 2.42137 16.5041 4.30252 18.0697C6.18367 19.6352 8.55242 20.4948 10.9998 20.5C13.1182 20.5006 15.1873 19.8605 16.9353 18.6639C18.6834 17.4673 20.0288 15.7701 20.7948 13.795Z"/>
</svg>
