<svg width="30" height="36" viewBox="0 0 30 36" fill="none" xmlns="http://www.w3.org/2000/svg">
<path fill-rule="evenodd" clip-rule="evenodd" d="M25.6531 21.6292C26.0505 20.4605 26.2527 19.2344 26.2516 18V15.75C26.2516 15.4516 26.1331 15.1654 25.9221 14.9545C25.7111 14.7435 25.4249 14.625 25.1266 14.625C24.8282 14.625 24.5421 14.7435 24.3311 14.9545C24.1201 15.1654 24.0016 15.4516 24.0016 15.75V18C24.0016 18.6165 23.9408 19.215 23.8216 19.7977L25.6531 21.6292ZM19.9786 25.4992C18.6226 26.3992 17.0479 26.9147 15.4222 26.9907C13.7965 27.0668 12.1806 26.7006 10.7465 25.9312C9.31238 25.1617 8.11376 24.0178 7.27821 22.6211C6.44267 21.2245 6.00147 19.6274 6.00158 18V15.75C6.00158 15.4516 5.88305 15.1654 5.67207 14.9545C5.4611 14.7435 5.17495 14.625 4.87658 14.625C4.57821 14.625 4.29206 14.7435 4.08108 14.9545C3.87011 15.1654 3.75158 15.4516 3.75158 15.75V18C3.75154 20.7889 4.78744 23.4784 6.65831 25.5468C8.52917 27.6151 11.1016 28.9148 13.8766 29.1937V33.75H7.12658C6.82821 33.75 6.54206 33.8685 6.33108 34.0795C6.12011 34.2904 6.00158 34.5766 6.00158 34.875C6.00158 35.1733 6.12011 35.4595 6.33108 35.6705C6.54206 35.8814 6.82821 36 7.12658 36H22.8766C23.1749 36 23.4611 35.8814 23.6721 35.6705C23.8831 35.4595 24.0016 35.1733 24.0016 34.875C24.0016 34.5766 23.8831 34.2904 23.6721 34.0795C23.4611 33.8685 23.1749 33.75 22.8766 33.75H16.1266V29.1937C18.101 28.9984 19.9879 28.2817 21.5941 27.117L19.9786 25.4992ZM21.7516 17.73V6.74996C21.7528 5.1492 21.185 3.6001 20.1497 2.37922C19.1144 1.15833 17.6789 0.345125 16.0994 0.0847673C14.52 -0.175591 12.8994 0.133848 11.527 0.957842C10.1546 1.78184 9.11972 3.06675 8.60708 4.58321L10.5083 6.48446C10.5724 5.31228 11.092 4.21154 11.9562 3.41709C12.8205 2.62263 13.961 2.19736 15.1344 2.232C16.3078 2.26664 17.4213 2.75845 18.2371 3.60251C19.053 4.44657 19.5068 5.57605 19.5016 6.74996V15.4777L21.7516 17.7277V17.73ZM16.6621 22.185L18.3451 23.868C17.3181 24.4535 16.1554 24.7591 14.9733 24.7542C13.7911 24.7492 12.631 24.4339 11.609 23.8397C10.587 23.2456 9.739 22.3934 9.14978 21.3686C8.56057 20.3437 8.25083 19.1821 8.25158 18V13.7722L10.5016 16.0222V18C10.5012 18.7346 10.6806 19.4581 11.0242 20.1074C11.3679 20.7568 11.8652 21.3121 12.4729 21.7249C13.0806 22.1377 13.7801 22.3954 14.5103 22.4756C15.2405 22.5558 15.9793 22.456 16.6621 22.185ZM27.7051 30.0465L0.705078 3.04646L2.29808 1.45346L29.2981 28.4535L27.7051 30.0442V30.0465Z" fill="white"/>
</svg>
