<svg width="24" height="19" viewBox="0 0 24 19" fill="none" xmlns="http://www.w3.org/2000/svg">
<path d="M24.0039 12.6667V17.4167C24.0039 17.8455 23.8555 18.2166 23.5586 18.5299C23.2617 18.8433 22.9102 19 22.5039 19H9.00391V18.2083C9.00391 17.9939 8.92969 17.8084 8.78125 17.6517C8.63281 17.495 8.45703 17.4167 8.25391 17.4167C8.05078 17.4167 7.875 17.495 7.72656 17.6517C7.57813 17.8084 7.50391 17.9939 7.50391 18.2083V19H1.50391C1.09766 19 0.746094 18.8433 0.449219 18.5299C0.152344 18.2166 0.00390625 17.8455 0.00390625 17.4167V12.6667C0.832031 12.6667 1.53906 12.3574 2.125 11.7389C2.71094 11.1204 3.00391 10.3741 3.00391 9.5C3.00391 8.62587 2.71094 7.87956 2.125 7.26107C1.53906 6.64258 0.832031 6.33333 0.00390625 6.33333V1.58333C0.00390625 1.15451 0.152344 0.78342 0.449219 0.470052C0.746094 0.156684 1.09766 0 1.50391 0H7.50391V0.791667C7.50391 1.00608 7.57813 1.19162 7.72656 1.34831C7.875 1.50499 8.05078 1.58333 8.25391 1.58333C8.45703 1.58333 8.63281 1.50499 8.78125 1.34831C8.92969 1.19162 9.00391 1.00608 9.00391 0.791667V0H22.5039C22.9102 0 23.2617 0.156684 23.5586 0.470052C23.8555 0.78342 24.0039 1.15451 24.0039 1.58333V6.33333C23.1758 6.33333 22.4688 6.64258 21.8828 7.26107C21.2969 7.87956 21.0039 8.62587 21.0039 9.5C21.0039 10.3741 21.2969 11.1204 21.8828 11.7389C22.4688 12.3574 23.1758 12.6667 24.0039 12.6667ZM9.00391 3.95833C9.00391 3.74392 8.92969 3.55838 8.78125 3.40169C8.63281 3.24501 8.45703 3.16667 8.25391 3.16667C8.05078 3.16667 7.875 3.24501 7.72656 3.40169C7.57813 3.55838 7.50391 3.74392 7.50391 3.95833V5.54167C7.50391 5.75608 7.57813 5.94162 7.72656 6.09831C7.875 6.25499 8.05078 6.33333 8.25391 6.33333C8.45703 6.33333 8.63281 6.25499 8.78125 6.09831C8.92969 5.94162 9.00391 5.75608 9.00391 5.54167V3.95833ZM9.00391 8.70833C9.00391 8.49392 8.92969 8.30838 8.78125 8.15169C8.63281 7.99501 8.45703 7.91667 8.25391 7.91667C8.05078 7.91667 7.875 7.99501 7.72656 8.15169C7.57813 8.30838 7.50391 8.49392 7.50391 8.70833V10.2917C7.50391 10.5061 7.57813 10.6916 7.72656 10.8483C7.875 11.005 8.05078 11.0833 8.25391 11.0833C8.45703 11.0833 8.63281 11.005 8.78125 10.8483C8.92969 10.6916 9.00391 10.5061 9.00391 10.2917V8.70833ZM9.00391 13.4583C9.00391 13.2439 8.92969 13.0584 8.78125 12.9017C8.63281 12.745 8.45703 12.6667 8.25391 12.6667C8.05078 12.6667 7.875 12.745 7.72656 12.9017C7.57813 13.0584 7.50391 13.2439 7.50391 13.4583V15.0417C7.50391 15.2561 7.57813 15.4416 7.72656 15.5983C7.875 15.755 8.05078 15.8333 8.25391 15.8333C8.45703 15.8333 8.63281 15.755 8.78125 15.5983C8.92969 15.4416 9.00391 15.2561 9.00391 15.0417V13.4583Z" fill="white"/>
</svg>
