<svg width="14" height="14" viewBox="0 0 14 14" fill="none" xmlns="http://www.w3.org/2000/svg">
<path d="M12.1497 9.91222L9.32106 8.75115C9.1678 8.68826 9.06872 8.54321 9.06872 8.38175L9.06872 7.72069C9.06872 7.63345 9.0971 7.54998 9.14866 7.48579C9.87458 6.58214 10.3079 5.31548 10.3079 4.09738C10.3079 2.00545 8.97861 0.599853 7.0001 0.599853C5.02171 0.599853 3.69242 2.00545 3.69242 4.09738C3.69242 5.31535 4.12575 6.58214 4.85166 7.48592C4.90322 7.55011 4.93161 7.63358 4.93161 7.72069L4.93161 8.38175C4.93161 8.54321 4.83252 8.68826 4.67926 8.75115L1.85049 9.91222C1.09085 10.2242 0.600098 10.9518 0.600098 11.766L0.600098 12.8665C0.600098 13.161 0.8389 13.3999 1.13343 13.3999L12.8668 13.3999C13.1613 13.3999 13.4001 13.161 13.4001 12.8665L13.4001 11.766C13.4001 10.9518 12.9093 10.2241 12.1497 9.91222ZM12.3334 12.3332L1.66676 12.3332L1.66676 11.766C1.66676 11.3862 1.89788 11.0458 2.25557 10.8989L5.08421 9.73787C5.63955 9.51001 5.99827 8.97772 5.99827 8.38175L5.99827 7.72069C5.99827 7.39139 5.88643 7.07082 5.6833 6.81795C5.11325 6.10819 4.75908 5.06574 4.75908 4.09738C4.75908 2.30506 5.91676 1.66652 7.0001 1.66652C8.08356 1.66652 9.24124 2.30506 9.24124 4.09738C9.24124 5.06574 8.88708 6.10819 8.31702 6.81795C8.1139 7.07095 8.00205 7.39152 8.00205 7.72069L8.00205 8.38175C8.00205 8.97772 8.36077 9.51001 8.91611 9.73787L11.7446 10.8989C12.1023 11.0458 12.3334 11.3862 12.3334 11.766L12.3334 12.3332Z" fill="white"/>
<path d="M12.3334 12.3332L1.66676 12.3332L1.66676 11.766C1.66676 11.3862 1.89788 11.0458 2.25557 10.8989L5.08421 9.73787C5.63955 9.51001 5.99827 8.97772 5.99827 8.38175L5.99827 7.72069C5.99827 7.39139 5.88643 7.07082 5.6833 6.81795C5.11325 6.10819 4.75908 5.06574 4.75908 4.09738C4.75908 2.30506 5.91676 1.66652 7.0001 1.66652C8.08356 1.66652 9.24124 2.30506 9.24124 4.09738C9.24124 5.06574 8.88708 6.10819 8.31702 6.81795C8.1139 7.07095 8.00205 7.39152 8.00205 7.72069L8.00205 8.38175C8.00205 8.97772 8.36077 9.51001 8.91611 9.73787L11.7446 10.8989C12.1023 11.0458 12.3334 11.3862 12.3334 11.766L12.3334 12.3332Z" fill="white"/>
</svg>
