<svg width="32" height="36" viewBox="0 0 32 36" fill="none" xmlns="http://www.w3.org/2000/svg">
<path d="M7.91165 3.17722C9.46042 1.95828 11.6792 0.464245 13.0014 0.711486C15.1882 1.11953 19.768 9.05211 16.8413 10.7419C15.3682 11.5924 13.648 10.8448 12.908 12.9426C12.1809 15.0044 13.4333 17.2275 14.85 19.6858C16.2667 22.144 17.5666 24.3371 19.7187 24.7392C21.9055 25.1472 22.1182 23.2837 23.5913 22.4332C26.5161 20.7446 31.096 28.6771 30.3579 30.7738C29.9109 32.0426 27.5077 33.217 25.6776 33.9488C24.4414 34.4131 22.9522 34.6416 20.5228 34.0203C17.0849 32.9707 13.3628 30.5288 9.07017 23.1838L8.92842 22.9383C4.71182 15.5495 4.46011 11.104 5.27003 7.60181C5.94778 5.18921 6.88918 4.01176 7.9094 3.17333L7.91165 3.17722Z" fill="white"/>
</svg>
