<svg width="36" height="16" viewBox="0 0 36 16" fill="none" xmlns="http://www.w3.org/2000/svg">
<path d="M35.7671 9.25C36.0484 11.2008 36.2329 13.8693 35.3576 14.8907C33.9109 16.5805 24.7511 16.5805 24.7511 13.201C24.7511 11.5 26.2586 10.384 24.8119 8.69425C23.3899 7.03375 20.8384 7.00675 18.0011 7.0045C15.1639 7.00225 12.6146 7.0315 11.1904 8.69425C9.74361 10.384 11.2511 11.5 11.2511 13.201C11.2511 16.5782 2.09136 16.5783 0.644613 14.8907C-0.230637 13.8693 -0.0461374 11.2008 0.235113 9.25C0.451113 7.94725 0.997863 6.54325 2.75061 4.75C5.37861 2.2975 9.35436 0.295 17.8616 0.25H18.1451C26.6524 0.29275 30.6281 2.2975 33.2561 4.75C35.0066 6.54325 35.5556 7.94725 35.7716 9.25H35.7671Z" fill="white"/>
</svg>
