<svg width="20" height="16" viewBox="0 0 20 16" fill="none" xmlns="http://www.w3.org/2000/svg">
<path d="M17.999 0H1.99902C0.896023 0 -0.000976562 0.897 -0.000976562 2V14C-0.000976562 15.103 0.896023 16 1.99902 16H17.999C19.102 16 19.999 15.103 19.999 14V2C19.999 0.897 19.102 0 17.999 0ZM4.49902 3C4.89685 3 5.27838 3.15804 5.55968 3.43934C5.84099 3.72064 5.99902 4.10218 5.99902 4.5C5.99902 4.89782 5.84099 5.27936 5.55968 5.56066C5.27838 5.84196 4.89685 6 4.49902 6C4.1012 6 3.71967 5.84196 3.43836 5.56066C3.15706 5.27936 2.99902 4.89782 2.99902 4.5C2.99902 4.10218 3.15706 3.72064 3.43836 3.43934C3.71967 3.15804 4.1012 3 4.49902 3ZM9.99902 13H2.99902L6.99902 8L8.49902 10L11.499 6L16.999 13H9.99902Z" fill="white"/>
</svg>
