<svg width="20" height="21" viewBox="0 0 20 21" fill="none" xmlns="http://www.w3.org/2000/svg">
<path d="M15.9125 5.54542L10.7635 0.418149C10.5598 0.212765 10.2828 0.0966963 9.99354 0.0954688C9.70427 0.0942414 9.42636 0.207955 9.22091 0.411604L9.21437 0.418149L4.0871 5.54542H1.27255C0.983223 5.54542 0.705746 5.66036 0.50116 5.86494C0.296575 6.06953 0.181641 6.347 0.181641 6.63633V19.7272C0.181641 20.0166 0.296575 20.294 0.50116 20.4986C0.705746 20.7032 0.983223 20.8182 1.27255 20.8182H18.7271C19.0164 20.8182 19.2939 20.7032 19.4985 20.4986C19.7031 20.294 19.818 20.0166 19.818 19.7272V6.63633C19.818 6.347 19.7031 6.06953 19.4985 5.86494C19.2939 5.66036 19.0164 5.54542 18.7271 5.54542H15.9125ZM9.99982 2.73088L12.8144 5.54542H7.18528L9.99982 2.73088ZM17.6362 18.6363H2.36346V7.72724H17.6362V18.6363ZM7.818 11C7.818 11.2893 7.70307 11.5668 7.49848 11.7714C7.2939 11.9759 7.01642 12.0909 6.7271 12.0909C6.43777 12.0909 6.16029 11.9759 5.95571 11.7714C5.75112 11.5668 5.63619 11.2893 5.63619 11C5.63619 10.7106 5.75112 10.4332 5.95571 10.2286C6.16029 10.024 6.43777 9.90906 6.7271 9.90906C7.01642 9.90906 7.2939 10.024 7.49848 10.2286C7.70307 10.4332 7.818 10.7106 7.818 11ZM15.4544 16.4545H6.7271L8.36346 13.1818L9.45437 15.3636L12.1816 9.90906L15.4544 16.4545Z" fill="white" fill-opacity="0.54"/>
</svg>
