<svg width="22" height="22" viewBox="0 0 22 22" fill="none" xmlns="http://www.w3.org/2000/svg">
<path d="M11 0.5C8.9233 0.5 6.89323 1.11581 5.16652 2.26957C3.4398 3.42332 2.09399 5.0632 1.29927 6.98182C0.504549 8.90045 0.296614 11.0116 0.701759 13.0484C1.1069 15.0852 2.10693 16.9562 3.57538 18.4246C5.04383 19.8931 6.91476 20.8931 8.95156 21.2982C10.9884 21.7034 13.0996 21.4955 15.0182 20.7007C16.9368 19.906 18.5767 18.5602 19.7304 16.8335C20.8842 15.1068 21.5 13.0767 21.5 11C21.4968 8.2162 20.3896 5.54733 18.4211 3.57889C16.4527 1.61044 13.7838 0.503176 11 0.5ZM2 11C2.0012 9.57365 2.34193 8.16808 2.99401 6.89952C3.6461 5.63095 4.5908 4.53584 5.75 3.70475V5.75C5.75 5.94891 5.82902 6.13968 5.96967 6.28033C6.11033 6.42098 6.30109 6.5 6.5 6.5H9.0365C9.17575 6.49993 9.31223 6.46109 9.43065 6.38784C9.54907 6.31458 9.64476 6.20981 9.707 6.08525L10.25 5H13.25V9.5H8.927C8.81066 9.49989 8.69588 9.52685 8.59175 9.57875L6.16475 10.793C6.04019 10.8552 5.93542 10.9509 5.86217 11.0694C5.78892 11.1878 5.75008 11.3243 5.75 11.4635V14.2423C5.74995 14.3922 5.79487 14.5388 5.87897 14.663C5.96306 14.7872 6.08246 14.8834 6.22175 14.939L9.5 16.25L10.118 19.955C7.89576 19.7336 5.83489 18.695 4.33497 17.0404C2.83505 15.3858 2.00295 13.2332 2 11ZM15.5 18.782V16.25L16.8163 14.276C16.8741 14.189 16.9132 14.091 16.9311 13.988C16.9489 13.8851 16.945 13.7796 16.9198 13.6782L16.25 11V8.75H19.7038C20.2064 10.6517 20.0667 12.6662 19.3065 14.4803C18.5463 16.2945 17.2082 17.8067 15.5 18.782Z" fill="white"/>
</svg>
