<svg width="20" height="20" viewBox="0 0 20 20" fill="none" xmlns="http://www.w3.org/2000/svg">
<path d="M8.99018 0.400391H11.0112C11.1909 0.400391 11.2807 0.471502 11.2807 0.613724V19.3871C11.2807 19.5293 11.1909 19.6004 11.0112 19.6004H8.99018C8.81053 19.6004 8.7207 19.5293 8.7207 19.3871V0.613724C8.7207 0.471502 8.81053 0.400391 8.99018 0.400391Z" fill="#172331"/>
<path d="M0.623646 8.7207H19.3771C19.526 8.7207 19.6004 8.81053 19.6004 8.99018V11.0112C19.6004 11.1909 19.526 11.2807 19.3771 11.2807H0.623646C0.474809 11.2807 0.400391 11.1909 0.400391 11.0112V8.99018C0.400391 8.81053 0.474809 8.7207 0.623646 8.7207Z" fill="#1F2D3F"/>
</svg>
