<svg width="20" height="20" viewBox="0 0 20 20" fill="none" xmlns="http://www.w3.org/2000/svg">
<path d="M1.73317 0.666748C1.45027 0.666748 1.17896 0.779129 0.978923 0.979168C0.778885 1.17921 0.666504 1.45052 0.666504 1.73341V6.00008H5.99984V0.666748H1.73317ZM4.6665 4.66675H1.99984V2.00008H4.6665V4.66675Z" fill="white"/>
<path d="M0.666504 18.2667C0.666504 18.5496 0.778885 18.8209 0.978923 19.0209C1.17896 19.221 1.45027 19.3333 1.73317 19.3333H5.99984V14H0.666504V18.2667ZM1.99984 15.3333H4.6665V18H1.99984V15.3333Z" fill="white"/>
<path d="M14 19.3333H18.2667C18.5496 19.3333 18.8209 19.221 19.0209 19.0209C19.221 18.8209 19.3333 18.5496 19.3333 18.2667V14H14V19.3333ZM15.3333 15.3333H18V18H15.3333V15.3333Z" fill="white"/>
<path d="M18.2667 0.666748H14V6.00008H19.3333V1.73341C19.3333 1.45052 19.221 1.17921 19.0209 0.979168C18.8209 0.779129 18.5496 0.666748 18.2667 0.666748ZM18 4.66675H15.3333V2.00008H18V4.66675Z" fill="white"/>
<path d="M11.3332 4.66659V3.33325H8.6665V5.99992H9.99984V4.66659H11.3332Z" fill="white"/>
<path d="M6 6H7.33333V7.33333H6V6Z" fill="white"/>
<path d="M7.3335 7.33325H10.0002V8.66658H7.3335V7.33325Z" fill="white"/>
<path d="M11.3335 2.00008V3.33342H12.6668V0.666748H7.3335V3.33342H8.66683V2.00008H11.3335Z" fill="white"/>
<path d="M0.666504 7.33325H1.99984V9.99992H0.666504V7.33325Z" fill="white"/>
<path d="M5.99984 8.66658V9.99992H4.6665V7.33325H3.33317V9.99992H1.99984V11.3333H0.666504V12.6666H3.33317V11.3333H4.6665V12.6666H5.99984V11.3333H7.33317V8.66658H5.99984Z" fill="white"/>
<path d="M11.3333 8.66675H12.6667V10.0001H14V8.66675H15.3333V7.33342H12.6667V4.66675H11.3333V6.00008H10V7.33342H11.3333V8.66675Z" fill="white"/>
<path d="M10.0002 18.0001H7.3335V19.3334H12.6668V18.0001H11.3335V16.6667H10.0002V18.0001Z" fill="white"/>
<path d="M12.6665 11.3334V10.0001H11.3332V8.66675H9.99984V10.0001H8.6665V11.3334H9.99984V12.6667H11.3332V11.3334H12.6665Z" fill="white"/>
<path d="M18 11.3333H19.3333V12.6666H18V11.3333Z" fill="white"/>
<path d="M12.6665 11.3333H16.6665V12.6666H12.6665V11.3333Z" fill="white"/>
<path d="M18.0002 7.33325H16.6668V8.66658H15.3335V9.99992H16.6668V11.3333H18.0002V9.99992H19.3335V8.66658H18.0002V7.33325Z" fill="white"/>
<path d="M11.3335 12.6667H12.6668V16.6667H11.3335V12.6667Z" fill="white"/>
<path d="M7.3335 16.6666H8.66683V15.3333H10.0002V13.9999H8.66683V11.3333H7.3335V16.6666Z" fill="white"/>
</svg>
