<svg width="11" height="12" viewBox="0 0 11 12" fill="none" xmlns="http://www.w3.org/2000/svg">
<path d="M3.48952 1.09091C3.84732 1.09091 4.17759 1.20545 4.45282 1.39636V1.09091C4.45282 0.801582 4.56881 0.524105 4.77527 0.31952C4.98173 0.114935 5.26176 0 5.55374 0C5.84572 0 6.12574 0.114935 6.3322 0.31952C6.53866 0.524105 6.65465 0.801582 6.65465 1.09091V1.40182C6.92988 1.21091 7.26016 1.09091 7.61796 1.09091C8.05593 1.09091 8.47596 1.26331 8.78566 1.57019C9.09535 1.87707 9.26933 2.29328 9.26933 2.72727C9.26933 3.58909 8.60328 4.29273 7.75557 4.36364H6.65465V4.90909H7.33722L7.60144 4.98L10.128 6.22909C10.5794 6.39818 10.7996 6.73091 10.7996 7.22727L10.7831 7.30364V7.38L10.2326 11.0618C10.1996 11.3182 10.0785 11.5418 9.86933 11.7273C9.66566 11.9127 9.43447 12 9.17575 12H5.00328C4.70053 12 4.45282 11.8964 4.22163 11.6782L0.599609 8.09455L1.17759 7.51091C1.33172 7.36364 1.52988 7.27636 1.77209 7.27636H1.94823L4.45282 7.81636V4.36364H3.3519C2.9392 4.3268 2.55523 4.13862 2.27523 3.83593C1.99522 3.53325 1.83935 3.13788 1.83814 2.72727C1.83814 2.29328 2.01213 1.87707 2.32182 1.57019C2.63151 1.26331 3.05154 1.09091 3.48952 1.09091ZM4.45282 2.72727C4.45282 2.47411 4.35133 2.23132 4.17068 2.05231C3.99002 1.8733 3.745 1.77273 3.48952 1.77273C3.23403 1.77273 2.98901 1.8733 2.80836 2.05231C2.62771 2.23132 2.52621 2.47411 2.52621 2.72727C2.52621 3.20727 2.88401 3.60545 3.3519 3.67091V3.68182H4.45282V2.72727ZM7.75557 3.68182V3.67636C8.22346 3.61091 8.58126 3.21273 8.58126 2.72727C8.58126 2.20364 8.1519 1.77818 7.61796 1.77818C7.08401 1.77818 6.65465 2.20364 6.65465 2.72727V3.68182H7.75557Z" fill="white"/>
</svg>
