<svg width="60" height="60" viewBox="0 0 60 60" fill="none" xmlns="http://www.w3.org/2000/svg">
<path d="M59.9414 20.0195C59.9023 20.6049 59.7168 21.1707 59.3848 21.7171C59.0527 22.2634 58.6328 22.5366 58.125 22.5366H38.7891C37.8516 22.5756 37.4023 21.9122 37.4414 20.5463L44.8242 13.1707C40.5664 9.42436 35.625 7.55118 30 7.55118C25.9375 7.55118 22.1777 8.55606 18.7207 10.5658C15.2637 12.5756 12.5293 15.3073 10.5176 18.761C8.50586 22.2146 7.5 25.9805 7.5 30.0585C7.5 34.1366 8.50586 37.8927 10.5176 41.3268C12.5293 44.761 15.2637 47.4829 18.7207 49.4927C22.1777 51.5024 25.9375 52.5073 30 52.5073C33.4375 52.5073 36.6699 51.7756 39.6973 50.3122C42.7246 48.8488 45.293 46.8293 47.4023 44.2537L53.3203 48.8781C50.5078 52.3512 47.0703 55.0732 43.0078 57.0439C38.9453 59.0146 34.6094 60 30 60C25.9375 60 22.0508 59.2098 18.3398 57.6293C14.6289 56.0488 11.4355 53.922 8.75977 51.2488C6.08398 48.5756 3.95508 45.3854 2.37305 41.678C0.791016 37.9707 0 34.0878 0 30.0293C0 25.9707 0.791016 22.0975 2.37305 18.4097C3.95508 14.7219 6.08398 11.5414 8.75977 8.86826C11.4355 6.19508 14.6289 4.06825 18.3398 2.48776C22.0508 0.907275 25.9375 0.11703 30 0.11703C33.7891 0.11703 37.4121 0.799958 40.8691 2.16581C44.3262 3.53167 47.4219 5.44386 50.1562 7.9024L58.0078 0.0584938C59.375 0.0194694 60.0391 0.46825 60 1.40484L59.9414 20.0195Z" fill="white"/>
</svg>
