<svg width="20" height="22" viewBox="0 0 20 22" fill="none" xmlns="http://www.w3.org/2000/svg">
<path d="M13.5 15.5V20H1.5V2H9V0.5H1.5C1.10218 0.5 0.720644 0.658035 0.43934 0.93934C0.158035 1.22064 0 1.60218 0 2V20C0 20.3978 0.158035 20.7794 0.43934 21.0607C0.720644 21.342 1.10218 21.5 1.5 21.5H13.5C13.8978 21.5 14.2794 21.342 14.5607 21.0607C14.842 20.7794 15 20.3978 15 20V15.5H13.5Z" fill="white"/>
<path d="M19.155 3.32013L16.68 0.845134C16.4557 0.625262 16.1541 0.502106 15.84 0.502106C15.5259 0.502106 15.2243 0.625262 15 0.845134L4.5 11.3451V15.5001H8.6475L19.1475 5.00013C19.3674 4.77582 19.4905 4.47424 19.4905 4.16013C19.4905 3.84603 19.3674 3.54445 19.1475 3.32013H19.155ZM8.025 14.0001H6V11.9751L13.08 4.88763L15.1125 6.92013L8.025 14.0001ZM16.17 5.86263L14.1375 3.83013L15.84 2.12763L17.8725 4.16013L16.17 5.86263Z" fill="white"/>
</svg>
