<svg width="21" height="20" viewBox="0 0 21 20" xmlns="http://www.w3.org/2000/svg">
<path d="M20.7133 8.47998L18.48 7.81331C18.3256 7.27419 18.1132 6.75337 17.8466 6.25998L18.94 4.21331C18.981 4.13606 18.996 4.04764 18.9828 3.96117C18.9696 3.8747 18.9289 3.79479 18.8666 3.73331L17.2733 2.13331C17.2118 2.07109 17.1319 2.03035 17.0455 2.01714C16.959 2.00393 16.8706 2.01896 16.7933 2.05998L14.76 3.14665C14.2617 2.86709 13.7341 2.6435 13.1866 2.47998L12.52 0.273313C12.4918 0.191991 12.4385 0.121713 12.3678 0.0725946C12.2971 0.0234765 12.2127 -0.00194823 12.1266 -1.99578e-05H9.87331C9.78674 0.000383091 9.70256 0.0284031 9.63301 0.0799622C9.56347 0.131521 9.51219 0.203929 9.48665 0.286647L8.81998 2.48665C8.26799 2.6493 7.73582 2.8729 7.23331 3.15331L5.23331 2.07331C5.15606 2.03229 5.06764 2.01727 4.98117 2.03048C4.8947 2.04369 4.81479 2.08443 4.75331 2.14665L3.13331 3.72665C3.07109 3.78813 3.03035 3.86803 3.01714 3.9545C3.00393 4.04097 3.01896 4.12939 3.05998 4.20665L4.13998 6.20665C3.86002 6.70704 3.63643 7.23695 3.47331 7.78665L1.26665 8.45331C1.18393 8.47886 1.11152 8.53014 1.05996 8.59968C1.0084 8.66922 0.980384 8.75341 0.97998 8.83998V11.0933C0.980384 11.1799 1.0084 11.2641 1.05996 11.3336C1.11152 11.4032 1.18393 11.4544 1.26665 11.48L3.48665 12.1466C3.65154 12.6872 3.8751 13.2081 4.15331 13.7L3.05998 15.7933C3.01896 15.8706 3.00393 15.959 3.01714 16.0455C3.03035 16.1319 3.07109 16.2118 3.13331 16.2733L4.72665 17.8666C4.78813 17.9289 4.86803 17.9696 4.9545 17.9828C5.04097 17.996 5.12939 17.981 5.20665 17.94L7.26665 16.84C7.75396 17.1029 8.26799 17.313 8.79998 17.4666L9.46665 19.7133C9.49219 19.796 9.54347 19.8684 9.61301 19.92C9.68256 19.9716 9.76674 19.9996 9.85331 20H12.1066C12.1932 19.9996 12.2774 19.9716 12.3469 19.92C12.4165 19.8684 12.4678 19.796 12.4933 19.7133L13.16 17.46C13.6874 17.3056 14.197 17.0955 14.68 16.8333L16.7533 17.94C16.8306 17.981 16.919 17.996 17.0055 17.9828C17.0919 17.9696 17.1718 17.9289 17.2333 17.8666L18.8266 16.2733C18.8889 16.2118 18.9296 16.1319 18.9428 16.0455C18.956 15.959 18.941 15.8706 18.9 15.7933L17.7933 13.7266C18.0582 13.2418 18.2705 12.73 18.4266 12.2L20.6733 11.5333C20.756 11.5078 20.8284 11.4565 20.88 11.3869C20.9316 11.3174 20.9596 11.2332 20.96 11.1466V8.87331C20.9639 8.79041 20.9424 8.7083 20.8983 8.63799C20.8542 8.56768 20.7897 8.51254 20.7133 8.47998ZM11 13.6666C10.2748 13.6666 9.56587 13.4516 8.96289 13.0487C8.35991 12.6458 7.88994 12.0731 7.61242 11.4032C7.3349 10.7332 7.26229 9.99591 7.40377 9.28465C7.54525 8.57339 7.89446 7.92005 8.40726 7.40726C8.92005 6.89446 9.57339 6.54525 10.2846 6.40377C10.9959 6.26229 11.7332 6.3349 12.4032 6.61242C13.0731 6.88994 13.6458 7.35991 14.0487 7.96289C14.4516 8.56587 14.6666 9.27478 14.6666 9.99998C14.6666 10.9724 14.2803 11.9051 13.5927 12.5927C12.9051 13.2803 11.9724 13.6666 11 13.6666Z"/>
</svg>
