<svg width="20" height="20" viewBox="0 0 20 20" fill="none" xmlns="http://www.w3.org/2000/svg">
<path d="M18.6719 4.37734V1.375C18.6719 0.960156 18.3367 0.625 17.9219 0.625H2.07814C1.6633 0.625 1.32814 0.960156 1.32814 1.375V4.37734C0.936733 4.40078 0.625015 4.72656 0.625015 5.125V8.21172C0.623514 8.77901 0.73838 9.34058 0.962515 9.86172C1.0633 10.1008 1.18751 10.3258 1.32814 10.5391V18.625C1.32814 19.0375 1.6633 19.375 2.07814 19.375H8.50001V15.25H11.5V19.375H17.9219C18.3367 19.375 18.6719 19.0398 18.6719 18.625V10.5391C18.8147 10.3252 18.9371 10.0985 19.0375 9.86172C19.2602 9.33906 19.375 8.78359 19.375 8.21172V5.125C19.375 4.72656 19.0633 4.40078 18.6719 4.37734ZM16.9844 17.6898H13V14.5C13 14.0852 12.6649 13.75 12.25 13.75H7.75001C7.33517 13.75 7.00001 14.0852 7.00001 14.5V17.6898H3.01564V12.0133C3.08361 12.0461 3.15392 12.0789 3.22658 12.107C3.74923 12.3273 4.3047 12.4375 4.87658 12.4375C5.44845 12.4375 6.00158 12.3273 6.52658 12.107C6.85001 11.9711 7.1547 11.7977 7.43361 11.5891C7.4383 11.5867 7.44298 11.5867 7.44767 11.5891C7.72744 11.7985 8.03211 11.9725 8.3547 12.107C8.87736 12.3273 9.43283 12.4375 10.0047 12.4375C10.5766 12.4375 11.1297 12.3273 11.6547 12.107C11.9781 11.9711 12.2828 11.7977 12.5617 11.5891C12.5664 11.5867 12.5711 11.5867 12.5758 11.5891C12.8556 11.7985 13.1602 11.9725 13.4828 12.107C14.0055 12.3273 14.561 12.4375 15.1328 12.4375C15.7047 12.4375 16.2578 12.3273 16.7828 12.107C16.8531 12.0766 16.9235 12.0461 16.9938 12.0133V17.6898H16.9844ZM16.9844 4.375H3.01564V2.3125H16.9844V4.375Z" fill="white"/>
</svg>
