<svg width="40" height="40" viewBox="0 0 40 40" fill="none" xmlns="http://www.w3.org/2000/svg">
<path d="M20 28C24.4183 28 28 24.4183 28 20C28 15.5817 24.4183 12 20 12C15.5817 12 12 15.5817 12 20C12 24.4183 15.5817 28 20 28Z" fill="white" fill-opacity="0.38"/>
<path d="M22 4.138V0H18V4.138C14.4806 4.58736 11.2099 6.19234 8.70114 8.70114C6.19234 11.2099 4.58736 14.4806 4.138 18H0V22H4.138C4.58671 25.5197 6.19147 28.7907 8.70039 31.2996C11.2093 33.8085 14.4803 35.4133 18 35.862V40H22V35.862C25.5198 35.4136 28.791 33.809 31.3 31.3C33.809 28.791 35.4136 25.5198 35.862 22H40V18H35.862C35.4133 14.4803 33.8085 11.2093 31.2996 8.70039C28.7907 6.19147 25.5197 4.58671 22 4.138ZM20 32C13.382 32 8 26.618 8 20C8 13.382 13.382 8 20 8C26.618 8 32 13.382 32 20C32 26.618 26.618 32 20 32Z" fill="white" fill-opacity="0.38"/>
</svg>
