<svg width="22" height="24" viewBox="0 0 22 24" fill="none" xmlns="http://www.w3.org/2000/svg">
<path fill-rule="evenodd" clip-rule="evenodd" d="M15.224 5.98349C15.3046 5.9031 15.3685 5.80759 15.4122 5.70244C15.4558 5.5973 15.4782 5.48458 15.4782 5.37074C15.4782 5.2569 15.4558 5.14419 15.4122 5.03904C15.3685 4.93389 15.3046 4.83839 15.224 4.75799L11.6495 0.253492C11.569 0.172852 11.4733 0.108879 11.3681 0.0652302C11.2628 0.0215817 11.15 -0.00088501 11.036 -0.00088501C10.922 -0.00088501 10.8092 0.0215817 10.7039 0.0652302C10.5987 0.108879 10.503 0.172852 10.4225 0.253492L6.848 4.75799C6.76741 4.83839 6.70346 4.93389 6.65984 5.03904C6.61621 5.14419 6.59375 5.2569 6.59375 5.37074C6.59375 5.48458 6.61621 5.5973 6.65984 5.70244C6.70346 5.80759 6.76741 5.9031 6.848 5.98349H9.5645V23.952H12.4685V5.98349H15.224Z" fill="white" fill-opacity="0.54"/>
<path fill-rule="evenodd" clip-rule="evenodd" d="M20.7732 7.51196L16.2942 8.03696C16.1121 8.03894 15.9382 8.11297 15.8106 8.24285C15.6829 8.37273 15.612 8.54788 15.6132 8.72996L16.8252 9.96146L14.0352 12.7965V24.0015H16.9692V14.0385L18.9042 12.0795L20.2587 13.4595C20.4409 13.4575 20.6149 13.3835 20.7428 13.2537C20.8706 13.1238 20.942 12.9487 20.9412 12.7665L21.4542 8.20346C21.4554 8.02152 21.3843 7.84652 21.2567 7.71689C21.129 7.58725 20.9551 7.51355 20.7732 7.51196Z" fill="white" fill-opacity="0.54"/>
<path fill-rule="evenodd" clip-rule="evenodd" d="M6.50219 13.263C6.50179 13.0793 6.42865 12.9033 6.29878 12.7734C6.1689 12.6435 5.99286 12.5704 5.80919 12.57L1.24919 12.0465C1.15818 12.0463 1.06803 12.064 0.983873 12.0987C0.899719 12.1333 0.823213 12.1842 0.758723 12.2484C0.694232 12.3126 0.643021 12.3889 0.608013 12.4729C0.573004 12.5569 0.554884 12.647 0.554688 12.738L1.07969 17.298C1.07969 17.682 1.39019 17.9925 1.77269 17.9925L3.09869 16.668L5.06969 19.101V23.8965L7.91969 23.9745V17.937L5.19269 14.571L6.50219 13.263Z" fill="white" fill-opacity="0.54"/>
</svg>
