<svg width="364" height="241" viewBox="0 0 364 241" fill="none" xmlns="http://www.w3.org/2000/svg">
<g clip-path="url(#clip0)">
<path opacity="0.1" d="M337.55 197.151C336.414 198.149 335.253 199.119 334.066 200.06C333.866 200.221 333.66 200.376 333.458 200.541C329.224 203.821 324.78 206.821 320.154 209.52L319.289 210.023C319.08 210.149 318.874 210.267 318.655 210.384C313.821 213.172 308.807 215.739 303.732 218.17L303.679 218.198L303.295 218.378C299.203 220.339 295.049 222.214 290.834 224.006L290.733 224.044C288.832 224.843 286.931 225.622 285.031 226.38C284.255 226.696 283.475 226.99 282.696 227.291C281.23 227.851 279.76 228.402 278.277 228.93L278.094 229L277.777 229.111L277.381 229.256C273.514 230.636 269.596 231.911 265.626 233.08L265.556 233.099C262.788 233.905 260.001 234.651 257.197 235.336L256.813 235.431C252.695 236.425 248.511 237.28 244.301 237.963L243.332 238.118C240.253 238.602 237.153 238.996 234.032 239.302C216.486 240.995 198.732 239.619 181.294 237.258C146.082 232.485 111.336 223.537 79.6473 209.513C73.5654 206.823 67.6018 203.943 61.7565 200.873C61.709 200.848 61.6678 200.822 61.6203 200.8C58.1211 198.962 54.6694 197.048 51.2653 195.056C50.2674 194.48 49.276 193.891 48.2908 193.299C47.0787 192.569 45.8718 191.831 44.6702 191.084C43.0864 190.096 41.5026 189.083 39.9188 188.048L39.1775 187.555L38.8925 187.362C38.4902 187.093 38.0942 186.824 37.6951 186.551C22.8072 176.424 9.5316 164.15 3.25967 148.79C-3.98789 131.066 0.649535 108.595 18.6005 98.1189C24.7711 94.5108 31.9426 92.5517 39.1902 90.9344L39.9314 90.7698C41.1573 90.5008 42.3832 90.2413 43.6027 89.9817C47.8759 89.0766 52.1712 88.1777 56.4253 87.1744C58.6427 86.6522 60.8379 86.1047 63.0204 85.5128L63.9136 85.2659C69.1771 83.855 74.3248 82.0436 79.3115 79.8475H79.3432C79.8785 79.6101 80.4075 79.3633 80.927 79.1101C81.2628 78.9518 81.5986 78.7936 81.9343 78.6195C87.3193 75.9419 93.0211 72.2294 97.4083 67.8048C97.7599 67.4503 98.102 67.0895 98.4346 66.7287C98.6912 66.447 98.9446 66.1621 99.1885 65.8773C102.264 62.2945 104.393 58.3162 104.798 54.0941C104.935 52.6753 104.871 51.2445 104.608 49.8435C104.111 47.1881 103.63 44.5897 103.275 42.0545C102.613 37.2912 102.388 32.7368 103.306 28.347C104.241 23.8717 106.36 19.5642 110.405 15.3865C111.015 14.7535 111.673 14.1205 112.379 13.4875C115.65 10.6199 119.351 8.2831 123.348 6.5625C123.842 6.3515 124.34 6.1405 124.84 5.92951C135.952 1.43524 149.304 0.498411 161.778 1.11875C173.432 1.718 185.012 3.32763 196.388 5.92951C197.29 6.13206 198.193 6.34412 199.09 6.5625C208.766 8.90461 218.287 11.8463 227.598 15.3706C251.793 24.4636 274.628 37.0887 295.962 51.0209C296.171 51.157 296.38 51.2931 296.596 51.4324C297.487 52.0126 298.373 52.5949 299.253 53.1794C300.958 54.3083 302.647 55.4445 304.322 56.5881L305.453 57.3572C306.01 57.737 306.564 58.1178 307.116 58.4997L308.813 59.6739C308.893 59.722 308.97 59.7759 309.041 59.8354L310.486 60.8355C311.322 61.4178 312.152 62.0034 312.985 62.592L314.772 63.858C315.142 64.1239 315.516 64.3866 315.887 64.6556L317.787 66.0419L318.212 66.3584C318.3 66.4217 318.389 66.485 318.475 66.5546L318.529 66.5894C323.679 70.3652 328.706 74.2803 333.416 78.4296L334.025 78.9676L334.088 79.0246C334.601 79.4804 335.114 79.9424 335.618 80.4077C341.77 86.0034 347.281 92.0168 351.786 98.6633C372.477 129.364 366.335 171.872 337.55 197.151Z" fill="#F8A441"/>
<path opacity="0.1" d="M285.034 226.38C284.258 226.696 283.479 226.99 282.7 227.291C280.257 226.579 277.977 225.74 277.977 225.74C280.339 225.825 282.695 226.038 285.034 226.38Z" fill="black"/>
<g opacity="0.1">
<path opacity="0.1" d="M294.768 56.6385C295.132 55.7048 294.179 54.7902 294.052 53.79C293.927 54.0723 293.872 54.3809 293.894 54.6889C293.957 55.4453 294.527 56.1479 294.663 56.8474C294.704 56.7811 294.739 56.7112 294.768 56.6385Z" fill="black"/>
<path opacity="0.1" d="M311.281 67.3553C310.923 65.7728 311.027 64.1239 310.666 62.5572C310.305 60.9906 309.18 59.3416 307.654 59.3163C306.995 59.3163 306.228 59.5568 305.753 59.0663C305.465 58.7688 305.408 58.3003 305.192 57.9395C304.103 56.1766 300.783 57.0692 299.424 57.9743C297.387 59.3258 294.59 62.1553 291.977 61.516C291.854 61.8166 291.736 62.1205 291.638 62.4338C294.305 63.2662 297.188 60.3291 299.275 58.9523C300.634 58.0503 303.951 57.1546 305.044 58.9207C305.259 59.2815 305.316 59.7499 305.604 60.0474C306.079 60.538 306.846 60.2848 307.505 60.2974C309.032 60.3228 310.147 61.9401 310.517 63.5352C310.888 65.1304 310.767 66.8268 311.151 68.4188C311.123 68.0592 311.167 67.6976 311.281 67.3553Z" fill="black"/>
<path opacity="0.1" d="M318.769 65.4876C318.496 66.2788 317.787 67.0036 317.02 66.8422C316.254 66.6808 315.88 65.8104 315.306 65.2597C314.953 64.9254 314.504 64.7098 314.022 64.6428C313.54 64.5759 313.049 64.661 312.617 64.8862C312.202 65.1334 311.86 65.4871 311.628 65.9106C311.396 66.3341 311.281 66.8121 311.296 67.2948C311.496 66.6869 311.913 66.1742 312.468 65.8547C312.899 65.6292 313.39 65.5442 313.872 65.6118C314.354 65.6794 314.802 65.896 315.154 66.2313C315.728 66.7757 316.105 67.6492 316.871 67.8138C317.638 67.9784 318.347 67.2505 318.62 66.4592C318.76 65.9932 318.852 65.5137 318.892 65.0286C318.859 65.1837 318.818 65.3369 318.769 65.4876Z" fill="black"/>
<path opacity="0.1" d="M321.11 58.7118C320.549 60.1866 319.526 61.459 319.209 63.0098C319.14 63.3263 319.101 63.6428 319.063 63.9593C319.402 62.4148 320.413 61.1456 320.964 59.6739C321.214 59.0112 321.368 58.3164 321.423 57.6104C321.348 57.9852 321.243 58.3535 321.11 58.7118Z" fill="black"/>
</g>
<path d="M249.144 94.7386C249.212 94.7386 249.267 94.6833 249.267 94.6151C249.267 94.547 249.212 94.4917 249.144 94.4917C249.076 94.4917 249.021 94.547 249.021 94.6151C249.021 94.6833 249.076 94.7386 249.144 94.7386Z" fill="#E6E8EC"/>
<path d="M149.595 164.061C149.595 164.061 153.08 161.564 156.7 163.111C156.7 163.111 155.687 165.257 151.189 165.229L149.595 164.061Z" fill="#F8A441"/>
<path d="M149.161 164.207C149.161 164.207 148.23 168.394 151.062 171.109C151.062 171.109 152.646 169.337 150.85 165.213L149.161 164.207Z" fill="#F8A441"/>
<path d="M144.542 160.396C144.542 160.396 144.672 156.861 152.683 157.725C152.683 157.725 152.81 160.001 150.054 161.184C147.298 162.368 145.984 161.51 144.542 160.396Z" fill="#F8A441"/>
<path d="M144.052 160.38C144.052 160.38 140.726 161.589 144.014 168.942C144.014 168.942 146.231 168.359 146.497 165.375C146.763 162.39 145.553 161.418 144.052 160.38Z" fill="#F8A441"/>
<path d="M139.351 155.563C139.351 155.563 138.673 149.781 146.839 150.062C146.839 150.062 147.618 155.291 140.843 156.902L139.351 155.563Z" fill="#F8A441"/>
<path d="M133.719 149.221C133.719 149.221 134.584 142.603 142.797 144.252C142.797 144.252 143.044 149.949 135.106 150.737L133.719 149.221Z" fill="#F8A441"/>
<path d="M129.528 142.599C129.528 142.599 131.15 136.111 139.287 137.735C139.287 137.735 137.59 143.565 130.101 143.748L129.528 142.599Z" fill="#F8A441"/>
<path d="M125.54 136.13C125.54 136.13 127.124 129.414 134.97 131.114C134.97 131.114 132.613 137.526 126.101 137.244L125.54 136.13Z" fill="#F8A441"/>
<path d="M122.889 129.943C122.889 129.943 123.982 121.768 131.318 123.281C131.318 123.281 129.493 130.756 123.475 131.104L122.889 129.943Z" fill="#F8A441"/>
<path d="M120.342 122.439C120.342 122.439 121.713 114.181 129.141 116.283C129.141 116.283 126.56 124.135 120.906 123.562L120.342 122.439Z" fill="#F8A441"/>
<path d="M118.672 115.438C118.672 115.438 121.035 107.142 126.725 107.146C126.725 107.146 124.317 115.903 119.211 117.061L118.672 115.438Z" fill="#F8A441"/>
<path d="M117.522 108.573C117.522 108.573 120.057 98.5999 124.707 99.1823C124.707 99.1823 122.98 106.797 117.738 110.101L117.522 108.573Z" fill="#F8A441"/>
<path d="M116.702 100.36C116.702 100.36 119.116 92.0357 123.671 91.5356C123.671 91.5356 122.122 99.6918 116.889 102.49L116.702 100.36Z" fill="#F8A441"/>
<path d="M115.856 92.7163C115.856 92.7163 118.945 84.3607 121.954 84.0601C121.954 84.0601 120.785 92.2162 116.208 94.0551L115.856 92.7163Z" fill="#F8A441"/>
<path d="M115.204 85.5952C115.204 85.5952 116.956 76.5782 119.937 75.7236C119.937 75.7236 119.807 83.0474 115.534 86.2504L115.204 85.5952Z" fill="#F8A441"/>
<path d="M113.712 76.2995C113.712 76.2995 115.641 69.0929 118.039 67.9155C118.039 67.9155 117.877 76.328 114.345 78.0181L113.712 76.2995Z" fill="#F8A441"/>
<path d="M112.537 70.2005L111.612 57.6577C111.612 57.6577 116.525 66.9627 112.945 72.3938L112.537 70.2005Z" fill="#F8A441"/>
<path d="M108.536 57.854C108.536 57.854 104.906 48.8116 104.102 48.3306C104.102 48.3306 110.754 54.0275 110.437 61.7089L108.536 57.854Z" fill="#F8A441"/>
<path d="M139.126 155.528C139.126 155.528 133.323 154.996 133.808 163.143C133.808 163.143 139.059 163.776 140.504 156.984L139.126 155.528Z" fill="#F8A441"/>
<path d="M133.437 149.012C133.437 149.012 126.763 149.246 127.628 157.557C127.628 157.557 133.266 158.342 134.815 150.525L133.437 149.012Z" fill="#F8A441"/>
<path d="M129.484 143.144C129.484 143.144 123.316 140.536 119.721 148.008C119.721 148.008 125.407 150.161 130.064 144.305L129.484 143.144Z" fill="#F8A441"/>
<path d="M125.407 136.197C125.407 136.197 119.087 133.415 115.72 140.71C115.72 140.71 122.268 142.685 125.961 137.311L125.407 136.197Z" fill="#F8A441"/>
<path d="M122.974 130.117C122.974 130.117 116.788 124.648 112.245 130.591C112.245 130.591 118.523 135.045 123.297 131.373L122.974 130.117Z" fill="#F8A441"/>
<path d="M120.675 122.233C120.675 122.233 114.444 116.634 109.952 122.91C109.952 122.91 116.877 127.433 120.934 123.445L120.675 122.233Z" fill="#F8A441"/>
<path d="M119.281 115.175C119.281 115.175 114.374 108.079 108.992 109.908C108.992 109.908 114.086 117.428 119.293 116.871L119.281 115.175Z" fill="#F8A441"/>
<path d="M117.656 108.522C117.656 108.522 112.641 99.5336 108.295 101.293C108.295 101.293 111.926 108.209 117.836 110.057L117.656 108.522Z" fill="#F8A441"/>
<path d="M117.003 99.8786C117.003 99.8786 111.935 92.8492 107.481 93.9031C107.481 93.9031 111.675 101.065 117.548 101.948L117.003 99.8786Z" fill="#F8A441"/>
<path d="M116.357 92.5356C116.357 92.5356 112.334 84.5852 109.309 84.6232C109.309 84.6232 111.403 92.5926 116.158 93.8997L116.357 92.5356Z" fill="#F8A441"/>
<path d="M115.347 85.4117C115.347 85.4117 110.912 77.3726 107.801 77.4771C107.801 77.4771 110.183 84.4052 115.236 86.1396L115.347 85.4117Z" fill="#F8A441"/>
<path d="M114.393 76.7742C114.393 76.7742 111.045 70.1087 108.46 69.4409C108.46 69.4409 110.319 77.6477 114.124 78.5877L114.393 76.7742Z" fill="#F8A441"/>
<path d="M112.16 69.9758L104.855 59.7339C104.855 59.7339 107.022 70.0264 113.243 71.9349L112.16 69.9758Z" fill="#F8A441"/>
<path d="M106.987 58.759C106.987 58.759 98.7513 53.5337 98.4346 52.6538C98.4346 52.6538 102.825 60.2497 110.44 61.3227L106.987 58.759Z" fill="#F8A441"/>
<path d="M106.41 56.2903C106.41 56.2903 96.8631 47.7987 94.5127 47.8968C94.5127 47.8968 102.115 47.9538 106.613 55.8093L106.41 56.2903Z" fill="#F8A441"/>
<path d="M114.355 78.0908L114.019 78.1478C111.77 64.6808 108.951 56.7779 106.053 55.898L106.151 55.5815C109.214 56.5057 112.049 64.2947 114.355 78.0908Z" fill="#444053"/>
<path d="M118.137 110.355L117.634 110.418C117.478 109.152 117.349 107.867 117.241 106.582C116.329 95.397 115.185 85.1393 113.905 77.4643L114.184 77.0908C115.451 84.7785 116.835 95.3401 117.751 106.525C117.852 107.82 117.985 109.108 118.137 110.355Z" fill="#444053"/>
<path d="M159.301 170.144C159.209 170.106 150.133 166.47 140.507 157.326C134.871 151.976 130.118 145.767 126.427 138.931C121.811 130.386 118.79 119.777 117.516 109.408L118.055 109.636C120.905 132.905 132.163 148.458 140.954 156.813C150.485 165.875 159.459 169.473 159.548 169.514L159.301 170.144Z" fill="#444053"/>
<g opacity="0.7">
<path opacity="0.7" d="M165.607 159.82C165.607 159.82 169.681 158.475 172.671 161.02C172.671 161.02 171.065 162.77 166.779 161.403L165.607 159.82Z" fill="#F8A441"/>
<path opacity="0.7" d="M165.148 159.827C165.148 159.827 163.013 163.549 164.913 166.986C164.913 166.986 166.95 165.761 166.466 161.289L165.148 159.827Z" fill="#F8A441"/>
<path opacity="0.7" d="M161.873 154.82C161.873 154.82 163.051 151.481 170.425 154.69C170.425 154.69 169.868 156.905 166.884 157.222C163.9 157.538 162.918 156.31 161.873 154.82Z" fill="#F8A441"/>
<path opacity="0.7" d="M161.41 154.683C161.41 154.683 157.872 154.851 158.825 162.846C158.825 162.846 161.1 162.947 162.256 160.181C163.412 157.414 162.535 156.095 161.41 154.683Z" fill="#F8A441"/>
<path opacity="0.7" d="M158.354 148.67C158.354 148.67 159.431 142.948 167.141 145.644C167.141 145.644 166.327 150.866 159.38 150.392L158.354 148.67Z" fill="#F8A441"/>
<path opacity="0.7" d="M154.866 140.931C154.866 140.931 157.663 134.87 165.002 138.887C165.002 138.887 163.548 144.384 155.73 142.789L154.866 140.931Z" fill="#F8A441"/>
<path opacity="0.7" d="M152.835 133.364C152.835 133.364 156.32 127.651 163.605 131.62C163.605 131.62 160.248 136.684 153.045 134.646L152.835 133.364Z" fill="#F8A441"/>
<path opacity="0.7" d="M150.957 126.002C150.957 126.002 154.46 120.058 161.458 124.015C161.458 124.015 157.299 129.436 151.157 127.23L150.957 126.002Z" fill="#F8A441"/>
<path opacity="0.7" d="M150.27 119.305C150.27 119.305 153.754 111.82 160.292 115.45C160.292 115.45 156.323 122.043 150.472 120.587L150.27 119.305Z" fill="#F8A441"/>
<path opacity="0.7" d="M150.07 111.387C150.07 111.387 153.84 103.911 160.305 108.127C160.305 108.127 155.5 114.856 150.27 112.612L150.07 111.387Z" fill="#F8A441"/>
<path opacity="0.7" d="M150.564 104.199C150.564 104.199 155.29 96.9826 160.719 98.6758C160.719 98.6758 155.813 106.322 150.583 105.911L150.564 104.199Z" fill="#F8A441"/>
<path opacity="0.7" d="M151.508 97.3086C151.508 97.3086 156.893 88.5385 161.163 90.4818C161.163 90.4818 157.245 97.2358 151.264 98.8341L151.508 97.3086Z" fill="#F8A441"/>
<path opacity="0.7" d="M153.174 89.2223C153.174 89.2223 157.958 81.9966 162.449 82.8701C162.449 82.8701 158.544 90.1971 152.712 91.3143L153.174 89.2223Z" fill="#F8A441"/>
<path opacity="0.7" d="M154.638 81.6765C154.638 81.6765 160.077 74.6154 163.038 75.2231C163.038 75.2231 159.494 82.6608 154.578 83.0596L154.638 81.6765Z" fill="#F8A441"/>
<path opacity="0.7" d="M156.136 74.6824C156.136 74.6824 160.492 66.5959 163.596 66.6655C163.596 66.6655 161.29 73.6284 156.253 75.4071L156.136 74.6824Z" fill="#F8A441"/>
<path opacity="0.7" d="M157.482 65.3648C157.482 65.3648 161.467 59.0601 164.109 58.6455C164.109 58.6455 161.448 66.6307 157.574 67.1909L157.482 65.3648Z" fill="#F8A441"/>
<path opacity="0.7" d="M158.173 59.1896L161.024 46.9443C161.024 46.9443 162.946 57.2843 157.919 61.4178L158.173 59.1896Z" fill="#F8A441"/>
<path opacity="0.7" d="M158.03 46.2165C158.03 46.2165 157.257 36.5032 156.627 35.8037C156.627 35.8037 161.293 43.2287 158.686 50.4575L158.03 46.2165Z" fill="#F8A441"/>
<path opacity="0.7" d="M158.151 148.562C158.151 148.562 152.766 146.324 150.808 154.259C150.808 154.259 155.626 156.44 159.044 150.369L158.151 148.562Z" fill="#F8A441"/>
<path opacity="0.7" d="M154.66 140.646C154.66 140.646 148.22 138.887 146.567 147.09C146.567 147.09 151.714 149.518 155.525 142.514L154.66 140.646Z" fill="#F8A441"/>
<path opacity="0.7" d="M152.633 133.87C152.633 133.87 147.523 129.547 141.863 135.614C141.863 135.614 146.649 139.359 152.839 135.152L152.633 133.87Z" fill="#F8A441"/>
<path opacity="0.7" d="M150.807 126.027C150.807 126.027 145.605 121.492 140.217 127.464C140.217 127.464 145.878 131.294 151.006 127.259L150.807 126.027Z" fill="#F8A441"/>
<path opacity="0.7" d="M150.298 119.498C150.298 119.498 146.019 112.437 139.915 116.761C139.915 116.761 144.58 122.882 150.232 120.793L150.298 119.498Z" fill="#F8A441"/>
<path opacity="0.7" d="M150.45 111.285C150.45 111.285 146.167 104.091 139.997 108.753C139.997 108.753 145.261 115.13 150.323 112.529L150.45 111.285Z" fill="#F8A441"/>
<path opacity="0.7" d="M151.217 104.132C151.217 104.132 148.648 95.9033 142.962 96.0458C142.962 96.0458 145.588 104.743 150.723 105.772L151.217 104.132Z" fill="#F8A441"/>
<path opacity="0.7" d="M151.651 97.2991C151.651 97.2991 149.538 87.2282 144.866 87.6174C144.866 87.6174 146.272 95.2989 151.366 98.8183L151.651 97.2991Z" fill="#F8A441"/>
<path opacity="0.7" d="M153.602 88.8516C153.602 88.8516 150.856 80.6227 146.288 80.3062C146.288 80.3062 148.163 88.3959 153.504 90.9816L153.602 88.8516Z" fill="#F8A441"/>
<path opacity="0.7" d="M155.17 81.6515C155.17 81.6515 153.697 72.8655 150.795 72.0078C150.795 72.0078 150.422 80.2368 154.574 82.9017L155.17 81.6515Z" fill="#F8A441"/>
<path opacity="0.7" d="M156.342 74.5492C156.342 74.5492 154.495 65.5544 151.502 64.7378C151.502 64.7378 151.711 72.0584 156.022 75.217L156.342 74.5492Z" fill="#F8A441"/>
<path opacity="0.7" d="M157.989 66.0226C157.989 66.0226 156.776 58.664 154.505 57.2524C154.505 57.2524 153.836 65.6428 157.188 67.6715L157.989 66.0226Z" fill="#F8A441"/>
<path opacity="0.7" d="M157.881 58.8667L153.956 46.9189C153.956 46.9189 152.959 57.3919 158.331 61.0632L157.881 58.8667Z" fill="#F8A441"/>
<path opacity="0.7" d="M156.282 46.6216C156.282 46.6216 149.975 39.1839 149.946 38.2471C149.946 38.2471 151.875 46.7925 158.816 50.0904L156.282 46.6216Z" fill="#F8A441"/>
<path opacity="0.7" d="M156.466 44.0927C156.466 44.0927 149.88 33.145 147.596 32.5405C147.596 32.5405 154.844 34.8573 156.782 43.6939L156.466 44.0927Z" fill="#F8A441"/>
<path opacity="0.7" d="M157.558 67.2668L157.223 67.2193C159.085 53.6954 158.737 45.3082 156.241 43.6086L156.434 43.3301C159.079 45.1309 159.469 53.4042 157.558 67.2668Z" fill="#444053"/>
<path opacity="0.7" d="M151.565 99.1947L151.064 99.1029C151.293 97.8528 151.549 96.5709 151.834 95.3239C154.292 84.3763 156.269 74.2421 157.317 66.5227L157.694 66.2505C156.63 73.9699 154.793 84.4617 152.328 95.4221C152.05 96.688 151.79 97.9509 151.565 99.1947Z" fill="#444053"/>
<path opacity="0.7" d="M173.061 168.511C172.985 168.451 165.401 162.276 158.936 150.689C155.142 143.906 152.449 136.565 150.957 128.939C149.094 119.406 149.373 108.367 151.239 98.106L151.685 98.4826C147.488 121.549 153.586 139.741 159.5 150.331C165.902 161.814 173.397 167.922 173.473 167.982L173.061 168.511Z" fill="#444053"/>
</g>
<g opacity="0.1">
<path opacity="0.1" d="M58.0815 182.139L58.6105 182.193V182.453L55.6583 182.136C52.7029 181.839 48.1858 181.414 45.2051 181.291C47.2672 181.107 54.0935 181.737 58.0815 182.139Z" fill="black"/>
<path opacity="0.1" d="M23.3961 153.313L26.3198 150.401L28.2711 150.872L25.8352 153.313C25.8196 153.555 25.8196 153.798 25.8352 154.041C25.8985 155.747 26.5384 160.171 31.122 164.646C36.9694 170.343 34.4765 178.531 34.4765 178.531C34.4765 178.531 40.2416 180.794 43.5454 181.259C43.2279 181.258 42.9105 181.276 42.5952 181.313C42.4051 181.338 42.2134 181.348 42.0218 181.342C39.0157 181.266 32.0469 178.531 32.0469 178.531C32.0469 178.531 34.5398 170.343 28.6924 164.646C24.0866 160.171 23.4468 155.747 23.3834 154.05C23.3717 153.804 23.3759 153.558 23.3961 153.313Z" fill="black"/>
</g>
<g opacity="0.1">
<path opacity="0.1" d="M45.6646 111.282C45.6749 111.157 45.6972 111.033 45.7311 110.912C46.2411 111.716 46.8778 112.494 46.938 113.444C46.9525 113.661 46.9344 113.88 46.8841 114.092C46.3171 113.181 45.5854 112.33 45.6646 111.282Z" fill="black"/>
<path opacity="0.1" d="M52.0474 117.909C54.6671 116.859 56.8844 114.95 59.3108 113.478C61.1164 112.38 63.0486 111.51 64.7813 110.288C66.5742 109.022 68.1264 107.398 69.9794 106.24C71.8325 105.082 74.1607 104.427 76.1437 105.319C77.6356 105.993 78.6778 107.421 80.024 108.386C81.3703 109.351 83.4197 109.728 84.4429 108.402C84.9022 107.81 85.0352 107.025 85.1778 106.278C85.6339 103.885 86.4448 101.353 88.3834 100.005C90.4804 98.5428 94.9183 98.7074 95.7228 95.6215C95.8569 95.0741 95.8923 94.5071 95.8274 93.9473C96.3437 95.3177 96.6066 96.6976 96.2962 97.9003C95.4884 100.986 91.0506 100.822 88.9536 102.284C87.0277 103.632 86.2041 106.164 85.748 108.557C85.6054 109.304 85.4724 110.092 85.0162 110.68C83.9899 112.007 81.9309 111.63 80.5815 110.665C79.2321 109.699 78.1931 108.272 76.7012 107.598C74.7182 106.705 72.39 107.36 70.5369 108.519C68.6839 109.677 67.1317 111.304 65.3388 112.567C63.6061 113.792 61.6739 114.659 59.8683 115.757C57.4419 117.238 55.2246 119.144 52.6049 120.188C49.9853 121.233 46.7131 121.229 44.708 119.166C45.2261 118.885 45.718 118.559 46.1778 118.191C48.0087 118.859 50.1944 118.65 52.0474 117.909Z" fill="black"/>
</g>
<path d="M258.34 86.8386L245.353 73.7894C244.716 73.1389 243.957 72.6209 243.119 72.2652C242.281 71.9095 241.38 71.7231 240.47 71.717C239.559 71.7108 238.656 71.8849 237.813 72.2292C236.97 72.5735 236.204 73.0812 235.559 73.7229L154.005 154.518L119.522 119.795C118.241 118.498 116.497 117.762 114.674 117.748C112.85 117.735 111.096 118.447 109.797 119.726L96.6702 132.702C95.373 133.997 94.6386 135.75 94.6261 137.582C94.6137 139.413 95.3242 141.176 96.6037 142.488L148.971 195.223C150.266 196.52 152.021 197.254 153.854 197.267C155.687 197.28 157.452 196.571 158.766 195.293L258.268 96.6215C258.918 95.9858 259.437 95.2277 259.793 94.3907C260.15 93.5538 260.337 92.6547 260.343 91.7452C260.35 90.8358 260.177 89.934 259.833 89.0918C259.489 88.2497 258.982 87.4839 258.34 86.8386Z" fill="#3ACC6C"/>
<g opacity="0.5">
<path opacity="0.5" d="M238.77 191.476C238.77 191.476 229.084 190.894 230.218 197.676C230.16 198.02 230.212 198.373 230.366 198.686C230.521 198.999 230.771 199.254 231.079 199.417C231.079 199.417 231.079 198.914 232.071 199.085C232.419 199.144 232.773 199.161 233.126 199.135C233.601 199.104 234.052 198.919 234.412 198.607C234.412 198.607 237.133 197.483 238.194 193.033C238.194 193.033 238.976 192.065 238.945 191.815L237.31 192.514C237.31 192.514 237.871 193.691 237.431 194.669C237.431 194.669 237.377 192.555 237.063 192.606C237 192.606 236.214 193.014 236.214 193.014C236.214 193.014 237.164 195.065 236.449 196.559C236.449 196.559 236.724 194.027 235.913 193.163L234.763 193.834C234.763 193.834 235.885 195.954 235.125 197.682C235.125 197.682 235.321 195.03 234.519 193.998L233.477 194.809C233.477 194.809 234.532 196.897 233.889 198.334C233.889 198.334 233.807 195.245 233.256 195.011C233.256 195.011 232.343 195.815 232.204 196.147C232.204 196.147 232.926 197.663 232.48 198.464C232.48 198.464 232.204 196.404 231.979 196.397C231.979 196.397 231.07 197.758 230.975 198.692C231.019 197.828 231.289 196.991 231.757 196.265C231.233 196.365 230.75 196.616 230.367 196.986C230.367 196.986 230.506 196.037 231.982 195.935C231.982 195.935 232.733 194.904 232.932 194.84C232.932 194.84 231.466 194.717 230.576 195.112C230.576 195.112 231.358 194.201 233.199 194.616L234.228 193.777C234.228 193.777 232.299 193.511 231.479 193.802C231.479 193.802 232.429 192.998 234.507 193.584L235.628 192.916C235.628 192.916 233.981 192.561 232.999 192.688C232.999 192.688 234.035 192.131 235.958 192.736L236.759 192.375C236.759 192.375 235.552 192.137 235.197 192.103C234.843 192.068 234.827 191.966 234.827 191.966C235.591 191.84 236.375 191.928 237.092 192.22C237.092 192.22 238.799 191.583 238.77 191.476Z" fill="#F8A441"/>
</g>
<g opacity="0.5">
<path opacity="0.5" d="M221.39 144.109C221.39 144.109 216.47 152.468 223.04 154.531C223.32 154.739 223.659 154.854 224.008 154.859C224.358 154.863 224.699 154.757 224.985 154.557C224.985 154.557 224.545 154.313 225.137 153.522C225.347 153.238 225.524 152.931 225.663 152.607C225.848 152.169 225.887 151.683 225.774 151.221C225.774 151.221 226.005 148.287 222.521 145.324C222.521 145.324 222.011 144.185 221.776 144.1L221.656 145.872C221.656 145.872 222.958 145.91 223.632 146.746C223.632 146.746 221.732 145.834 221.624 146.135C221.605 146.198 221.602 147.084 221.602 147.084C221.602 147.084 223.87 147.16 224.871 148.483C224.871 148.483 222.742 147.091 221.599 147.42L221.675 148.749C221.675 148.749 224.076 148.711 225.273 150.173C225.273 150.173 222.996 148.793 221.713 149.037L221.963 150.335C221.963 150.335 224.307 150.335 225.292 151.566C225.292 151.566 222.502 150.24 222.042 150.616C222.042 150.616 222.359 151.794 222.574 152.069C222.574 152.069 224.257 152.113 224.766 152.876C224.766 152.876 222.806 152.186 222.695 152.382C222.695 152.382 223.499 153.81 224.279 154.319C223.529 153.887 222.905 153.266 222.47 152.518C222.313 153.034 222.313 153.585 222.47 154.101C222.47 154.101 221.675 153.538 222.27 152.202C222.27 152.202 221.688 151.066 221.722 150.857C221.722 150.857 220.949 152.107 220.896 153.072C220.896 153.072 220.439 151.961 221.643 150.509L221.364 149.211C221.364 149.211 220.253 150.813 220.139 151.673C220.139 151.673 219.85 150.468 221.32 148.879L221.231 147.578C221.231 147.578 220.167 148.882 219.838 149.812C219.838 149.812 219.809 148.638 221.219 147.201L221.263 146.325C221.263 146.325 220.503 147.293 220.313 147.591C220.123 147.888 220.025 147.86 220.025 147.86C220.257 147.123 220.69 146.465 221.276 145.961C221.276 145.961 221.497 144.131 221.39 144.109Z" fill="#F8A441"/>
</g>
<g opacity="0.5">
<path opacity="0.5" d="M190.622 77.4199C190.622 77.4199 185.706 85.7818 192.273 87.8422C192.553 88.0512 192.892 88.1662 193.241 88.1708C193.59 88.1753 193.932 88.0692 194.218 87.8675C194.218 87.8675 193.777 87.6238 194.373 86.8325C194.582 86.5491 194.758 86.2421 194.895 85.9179C195.082 85.48 195.121 84.9935 195.006 84.5316C195.006 84.5316 195.241 81.5977 191.753 78.6353C191.753 78.6353 191.243 77.499 191.009 77.4136L190.888 79.1828C190.888 79.1828 192.193 79.2208 192.865 80.0563C192.865 80.0563 190.964 79.1448 190.86 79.4455C190.838 79.5088 190.838 80.395 190.838 80.395C190.838 80.395 193.103 80.4709 194.103 81.7939C194.103 81.7939 191.975 80.4013 190.831 80.7305L190.911 82.0598C190.911 82.0598 193.308 82.0218 194.506 83.484C194.506 83.484 192.228 82.1072 190.945 82.3478L191.196 83.6454C191.196 83.6454 193.54 83.6454 194.528 84.8798C194.528 84.8798 191.734 83.5505 191.275 83.9303C191.275 83.9303 191.592 85.1045 191.81 85.3798C191.81 85.3798 193.489 85.4241 193.999 86.1869C193.999 86.1869 192.038 85.4969 191.931 85.6931C191.931 85.6931 192.732 87.1237 193.514 87.6301C192.764 87.1991 192.139 86.5794 191.702 85.8324C191.551 86.3426 191.551 86.8857 191.702 87.3959C191.702 87.3959 190.907 86.8325 191.503 85.4811C191.503 85.4811 190.92 84.3449 190.955 84.136C190.955 84.136 190.182 85.3862 190.128 86.3515C190.128 86.3515 189.672 85.2406 190.879 83.7878L190.597 82.4902C190.597 82.4902 189.485 84.0917 189.374 84.9525C189.374 84.9525 189.083 83.7467 190.553 82.1579L190.464 80.8571C190.464 80.8571 189.4 82.161 189.07 83.0915C189.07 83.0915 189.042 81.9173 190.451 80.4836L190.496 79.6037C190.496 79.6037 189.735 80.5722 189.545 80.8697C189.355 81.1672 189.257 81.1388 189.257 81.1388C189.495 80.4007 189.934 79.7432 190.524 79.2398C190.524 79.2398 190.73 77.4579 190.622 77.4199Z" fill="#F8A441"/>
</g>
<g opacity="0.5">
<path opacity="0.5" d="M84.709 14.0918C84.709 14.0918 66.4 27.3847 78.5194 37.9146C78.5194 37.9146 79.891 40.4086 82.6563 39.7787C82.6563 39.7787 81.9404 38.8482 83.9519 37.7088C84.6649 37.2995 85.3263 36.8065 85.9222 36.2403C86.7281 35.4819 87.2651 34.4821 87.4521 33.3918C87.4521 33.3918 90.6895 27.3341 85.9982 17.7568C85.9982 17.7568 85.9697 14.8482 85.5421 14.4463L83.6415 18.124C83.6415 18.124 86.3942 19.4184 87.0562 21.8333C87.0562 21.8333 83.822 18.1018 83.331 18.6684C83.2329 18.7791 82.4061 20.6623 82.4061 20.6623C82.4061 20.6623 87.1861 22.9347 88.092 26.6947C88.092 26.6947 84.8357 21.732 82.0735 21.3712L80.9997 24.2862C80.9997 24.2862 86.1661 26.4415 87.3635 30.6826C87.3635 30.6826 83.7777 25.6186 80.8064 24.9382L80.1349 27.9481C80.1349 27.9481 85.1334 30.1477 86.1059 33.683C86.1059 33.683 81.3544 28.2456 80.0272 28.6475C80.0272 28.6475 79.5774 31.4454 79.815 32.2461C79.815 32.2461 83.3691 33.9077 83.7492 36.0124C83.7492 36.0124 80.1982 32.7145 79.7801 33.031C79.7801 33.031 80.1666 36.829 81.3829 38.6552C81.3829 38.6552 79.3905 36.0947 79.1878 33.1228C79.1878 33.1228 77.8288 34.7053 77.7528 36.4808C77.7528 36.4808 76.5745 34.5344 79.1054 32.1986C79.1054 32.1986 78.9249 29.2235 79.1941 28.8121C79.1941 28.8121 76.3686 30.7649 75.3517 32.7905C75.3517 32.7905 75.4119 29.9926 79.343 28.0082L79.9512 24.973C79.9512 24.973 76.0835 27.3562 75.0413 29.0874C75.0413 29.0874 75.545 26.239 80.1666 24.2071L81.1929 21.3428C81.1929 21.3428 77.7085 23.1436 76.1247 24.8242C76.1247 24.8242 77.1605 22.2922 81.5097 20.5294L82.4188 18.6937C82.4188 18.6937 79.8846 20.0546 79.2036 20.5104C78.5226 20.9661 78.3325 20.8269 78.3325 20.8269C79.5191 19.4656 81.0611 18.4607 82.7862 17.9246C82.7862 17.9246 84.9212 14.2406 84.709 14.0918Z" fill="#F8A441"/>
</g>
<g opacity="0.5">
<path opacity="0.5" d="M66.9225 57.955C66.9225 57.955 43.238 48.0043 40.1337 65.9466C40.1337 65.9466 38.5151 68.7444 40.7673 71.0549C40.7673 71.0549 41.2519 69.8142 43.5421 71.096C44.359 71.5474 45.2267 71.9001 46.1269 72.1468C47.3427 72.4819 48.6345 72.413 49.8077 71.9506C49.8077 71.9506 57.5938 71.5296 64.1476 61.3479C64.1476 61.3479 66.9542 59.6135 67.0967 58.9615L62.3991 59.278C62.3991 59.278 62.7602 62.712 60.8153 64.7724C60.8153 64.7724 62.5416 59.4426 61.7117 59.2938C61.5438 59.2622 59.2315 59.566 59.2315 59.566C59.2315 59.566 59.8301 65.5383 56.6973 68.6273C56.6973 68.6273 59.6052 62.5537 58.3382 59.6736L54.8759 60.3414C54.8759 60.3414 55.8262 66.6239 52.3989 70.2763C52.3989 70.2763 55.2149 63.8197 54.1284 60.5408L50.8087 61.6549C50.8087 61.6549 51.6101 67.7981 48.7434 70.8333C48.7434 70.8333 51.2458 63.0443 50.0675 61.9714C50.0675 61.9714 47.0835 63.1804 46.4437 63.8704C46.4437 63.8704 46.9188 68.3013 45.0943 69.8996C45.0943 69.8996 46.2156 64.5192 45.6613 64.2976C45.6613 64.2976 42.1927 66.9056 41.1347 69.1559C41.1347 69.1559 42.4556 65.7187 45.2241 63.7754C45.2241 63.7754 42.8991 63.3798 41.1062 64.3546C41.1062 64.3546 42.3067 62.0727 46.0636 63.1551C46.0636 63.1551 48.8479 61.2276 49.4054 61.2561C49.4054 61.2561 45.8513 59.6736 43.2824 59.8698C43.2824 59.8698 46.0351 58.2874 50.2734 60.9301L53.5772 59.7337C53.5772 59.7337 48.9873 57.3822 46.6844 57.3917C46.6844 57.3917 49.7444 56.208 54.4388 59.4995L57.8282 58.8001C57.8282 58.8001 54.027 56.4738 51.4612 55.9358C51.4612 55.9358 54.537 55.4484 58.8038 58.6418L61.1225 58.4488C61.1225 58.4488 58.316 56.7966 57.4671 56.3947C56.6182 55.9927 56.6562 55.7332 56.6562 55.7332C58.6767 56.0837 60.5598 56.9889 62.095 58.3475C62.095 58.3475 66.9003 58.2494 66.9225 57.955Z" fill="#F8A441"/>
</g>
<g opacity="0.5">
<path opacity="0.5" d="M52.7414 32.8315C52.7414 32.8315 44.3439 13.4397 32.2721 22.3333C32.2721 22.3333 29.7158 23.0739 29.7379 25.7198C29.7379 25.7198 30.7326 25.2577 31.3598 27.3244C31.5936 28.0565 31.9126 28.7586 32.3101 29.4165C32.8407 30.3084 33.6481 31.0029 34.6098 31.3946C34.6098 31.3946 39.4753 35.5787 49.1809 33.2588C49.1809 33.2588 51.8386 33.8253 52.2947 33.5214L49.3266 31.0306C49.3266 31.0306 47.5844 33.2777 45.2467 33.3854C45.2467 33.3854 49.3108 31.2015 48.9022 30.6413C48.8198 30.5274 47.274 29.3943 47.274 29.3943C47.274 29.3943 44.2236 33.2809 40.622 33.341C40.622 33.341 45.8137 31.3851 46.7007 28.9576L44.2616 27.3751C44.2616 27.3751 41.1985 31.6573 37.0837 31.882C37.0837 31.882 42.437 29.6507 43.6629 27.0807L41.0559 25.8685C41.0559 25.8685 38.0277 29.983 34.6034 30.1381C34.6034 30.1381 40.5301 26.9351 40.4382 25.628C40.4382 25.628 37.977 24.6469 37.1977 24.7038C37.1977 24.7038 34.9582 27.5998 32.9594 27.5175C32.9594 27.5175 36.6941 24.957 36.4882 24.5108C36.4882 24.5108 32.9404 24.0867 31.0303 24.8273C31.0303 24.8273 33.7735 23.536 36.5262 23.9601C36.5262 23.9601 35.37 22.3997 33.7545 21.9661C33.7545 21.9661 35.7723 21.292 37.3846 24.0708C37.3846 24.0708 40.1373 24.5139 40.4572 24.8431C40.4572 24.8431 39.2535 21.8712 37.6064 20.5324C37.6064 20.5324 40.1405 21.1654 41.1573 25.1438L43.8023 26.318C43.8023 26.318 42.418 22.3048 41.0433 21.004C41.0433 21.004 43.5362 22.0421 44.4485 26.6693L46.8527 28.1853C46.8527 28.1853 45.9214 24.6405 44.7082 22.8586C44.7082 22.8586 46.8115 24.3209 47.5274 28.6474L49.0162 29.8501C49.0162 29.8501 48.2876 27.2738 48.0121 26.5522C47.7365 25.8306 47.9107 25.6976 47.9107 25.6976C48.9098 27.0556 49.5119 28.6641 49.6497 30.3438C49.6497 30.3438 52.564 32.9992 52.7414 32.8315Z" fill="#F8A441"/>
</g>
<g opacity="0.5">
<path opacity="0.5" d="M216.407 42.9218C216.407 42.9218 214.427 33.4269 208.171 36.3102C207.823 36.3435 207.495 36.486 207.233 36.7175C206.971 36.9489 206.789 37.2573 206.714 37.5983C206.714 37.5983 207.205 37.4812 207.297 38.4687C207.331 38.8191 207.407 39.1643 207.522 39.4973C207.68 39.9464 207.979 40.3326 208.374 40.5987C208.374 40.5987 210.173 42.9282 214.744 42.7826C214.744 42.7826 215.887 43.2827 216.122 43.1877L215.016 41.7951C215.016 41.7951 214.025 42.6433 212.967 42.4756C212.967 42.4756 214.994 41.8711 214.867 41.5799C214.839 41.5198 214.25 40.8678 214.25 40.8678C214.25 40.8678 212.52 42.3332 210.889 42.0262C210.889 42.0262 213.401 41.6274 214.028 40.6177L213.078 39.6841C213.078 39.6841 211.323 41.3235 209.454 41.0418C209.454 41.0418 212.067 40.5355 212.856 39.4942L211.798 38.7029C211.798 38.7029 210.056 40.2664 208.5 40.0227C208.5 40.0227 211.462 39.1302 211.541 38.5352C211.541 38.5352 210.528 37.8674 210.17 37.8199C210.17 37.8199 208.903 38.915 208.006 38.6934C208.006 38.6934 209.907 37.8895 209.872 37.668C209.872 37.668 208.317 37.1489 207.389 37.304C208.234 37.1208 209.113 37.1612 209.939 37.4211C209.706 36.9413 209.337 36.5406 208.877 36.2691C208.877 36.2691 209.847 36.1519 210.315 37.535C210.315 37.535 211.51 37.9876 211.624 38.168C211.624 38.168 211.358 36.7216 210.743 35.9526C210.743 35.9526 211.826 36.4684 211.912 38.3548L212.992 39.127C212.992 39.127 212.742 37.1964 212.245 36.4811C212.245 36.4811 213.268 37.1806 213.249 39.3296L214.199 40.2348C214.199 40.2348 214.11 38.5542 213.73 37.6427C213.73 37.6427 214.538 38.494 214.459 40.4911L215.016 41.1716C215.016 41.1716 214.931 39.9468 214.874 39.5891C214.817 39.2315 214.905 39.1935 214.905 39.1935C215.229 39.8976 215.351 40.6778 215.257 41.447C215.257 41.447 216.312 42.9788 216.407 42.9218Z" fill="#F8A441"/>
</g>
<g opacity="0.5">
<path opacity="0.5" d="M182.317 218.932C182.317 218.932 180.34 209.437 174.081 212.32C173.733 212.354 173.404 212.496 173.141 212.727C172.879 212.959 172.697 213.267 172.621 213.609C172.621 213.609 173.112 213.491 173.203 214.479C173.238 214.83 173.314 215.175 173.432 215.508C173.589 215.956 173.887 216.342 174.28 216.609C174.28 216.609 176.08 218.938 180.654 218.793C180.654 218.793 181.797 219.293 182.029 219.198L180.926 217.805C180.926 217.805 179.935 218.654 178.874 218.486C178.874 218.486 180.901 217.881 180.774 217.59C180.749 217.53 180.156 216.878 180.156 216.878C180.156 216.878 178.427 218.343 176.796 218.036C176.796 218.036 179.311 217.638 179.935 216.628L178.984 215.678C178.984 215.678 177.249 217.324 175.373 217.033C175.373 217.033 177.987 216.527 178.775 215.485L177.717 214.694C177.717 214.694 175.978 216.258 174.423 216.014C174.423 216.014 177.385 215.125 177.464 214.526C177.464 214.526 176.447 213.859 176.092 213.811C176.092 213.811 174.825 214.906 173.926 214.685C173.926 214.685 175.826 213.881 175.791 213.659C175.791 213.659 174.236 213.14 173.308 213.295C174.155 213.112 175.035 213.152 175.861 213.412C175.627 212.933 175.258 212.533 174.8 212.26C174.8 212.26 175.766 212.143 176.235 213.526C176.235 213.526 177.432 213.979 177.546 214.159C177.546 214.159 177.28 212.713 176.666 211.944C176.666 211.944 177.749 212.46 177.831 214.346L178.915 215.118C178.915 215.118 178.661 213.188 178.164 212.472C178.164 212.472 179.19 213.172 179.171 215.321L180.122 216.226C180.122 216.226 180.033 214.545 179.65 213.634C179.65 213.634 180.461 214.485 180.381 216.482L180.939 217.163C180.939 217.163 180.85 215.938 180.793 215.58C180.736 215.223 180.825 215.188 180.825 215.188C181.149 215.891 181.271 216.67 181.176 217.438C181.176 217.438 182.228 218.98 182.317 218.932Z" fill="#F8A441"/>
</g>
</g>
<defs>
<clipPath id="clip0">
<rect width="364" height="239.117" fill="white" transform="translate(0 0.941406)"/>
</clipPath>
</defs>
</svg>
